<?xml version="1.0" encoding="UTF-8" standalone="no"?>
				<svg xmlns:rdf="http://www.w3.org/1999/02/22-rdf-syntax-ns#" xmlns="http://www.w3.org/2000/svg" height="366px" width="501px" xmlns:cc="http://creativecommons.org/ns#" xmlns:xlink="http://www.w3.org/1999/xlink" xmlns:dc="http://purl.org/dc/elements/1.1/">
				<title>Sus scrofa domestica (domestic pig)</title>
				<desc xmlns:ian_image_library="http://ian.umces.edu/imagelibrary/">
					  <ian_image_library:title>Sus scrofa domestica (domestic pig)</ian_image_library:title>
					  <ian_image_library:descr>Illustration of Sus scrofa domestica (domestic pig)</ian_image_library:descr>
					  <ian_image_library:scene>
						<ian_image_library:contains>symbol,vector,illustration,mammal,Animalia,Chordata,Mammalia,Artiodactyla,Suidae,Sus,scrofa,domestica,pig,domestic,hog,boar,swine,hog</ian_image_library:contains>
						<ian_image_library:when>2012-02-17</ian_image_library:when> 
					  </ian_image_library:scene>
				   </desc>
					<metadata
						id="metadata-iil-1940a100f030e864ede9c2a65af9ea66">
					  <rdf:RDF>
					  <cc:Work
						 rdf:about="">
						<dc:format>image/svg+xml</dc:format>
						<dc:type
						   rdf:resource="http://purl.org/dc/dcmitype/StillImage" />
						<cc:license
						   rdf:resource="http://creativecommons.org/licenses/by-sa/3.0/" />
						<dc:title>Sus scrofa domestica (domestic pig)</dc:title>
						<dc:date>2012-02-17</dc:date>
						<dc:creator>
							<cc:Agent>
								<dc:title>Tracey Saxby</dc:title>
							</cc:Agent>	
						</dc:creator>   
						<dc:rights>
						  <cc:Agent>
							<dc:title>Tracey Saxby, Integration and Application Network</dc:title>
						  </cc:Agent>
						</dc:rights>
						<dc:publisher>
						  <cc:Agent>
							<dc:title>Integration and Application Network</dc:title>
						  </cc:Agent>
						</dc:publisher>
						<dc:identifier>http://ian.umces.edu/imagelibrary/displayimage-7134.html</dc:identifier>
						<dc:source>http://ian.umces.edu/imagelibrary/displayimage-7134.html</dc:source>
						<dc:language>en-US</dc:language>
						<dc:subject>
						  <rdf:Bag>
							<rdf:li>symbol,vector,illustration,mammal,Animalia,Chordata,Mammalia,Artiodactyla,Suidae,Sus,scrofa,domestica,pig,domestic,hog,boar,swine,hog</rdf:li>
						  </rdf:Bag>
						</dc:subject>
						<dc:coverage></dc:coverage>
						<dc:description>Illustration of Sus scrofa domestica (domestic pig)</dc:description>
						<dc:contributor>
						  <cc:Agent>
							<dc:title></dc:title>
						  </cc:Agent>
						</dc:contributor>
					  </cc:Work>
					  <cc:License
						 rdf:about="http://creativecommons.org/licenses/by-sa/3.0/">
						<cc:permits
						   rdf:resource="http://creativecommons.org/ns#Reproduction" />
						<cc:permits
						   rdf:resource="http://creativecommons.org/ns#Distribution" />
						<cc:requires
						   rdf:resource="http://creativecommons.org/ns#Notice" />
						<cc:requires
						   rdf:resource="http://creativecommons.org/ns#Attribution" />
						<cc:permits
						   rdf:resource="http://creativecommons.org/ns#DerivativeWorks" />
						<cc:requires
						   rdf:resource="http://creativecommons.org/ns#ShareAlike" />
					  </cc:License>
					</rdf:RDF>
				  </metadata>
					
<defs>
</defs>
<linearGradient id="ian_symbols_1fd650dc00b05794b55250dc7156e516" gradientUnits="userSpaceOnUse" x1="181.8936" y1="284.9854" x2="220.4204" y2="284.9854">
	<stop  offset="0" style="stop-color:#2F2933"/>
	<stop  offset="1" style="stop-color:#36272C"/>
</linearGradient>
<path fill="url(#ian_symbols_1fd650dc00b05794b55250dc7156e516)" d="M195.467,246.408c0,0,2.772,6.777,3.697,10.166s0.616,8.934,0.924,12.322
	c0.308,3.389,3.389,17.561,3.389,24.338s-2.772,13.863-3.697,15.095c-0.924,1.232-5.237,11.399-8.934,13.556
	c-3.697,2.155-9.319,6.623-8.934,7.394c0.385,0.77,1.078,1.385,3.389,1.539c2.31,0.154,5.237-0.153,5.237-0.153
	s-1.617,1.386,0.616,2.002s8.318,0.463,9.55,0.309s2.156-1.232,2.156-1.232s1.155,0.385,4.621,0.616
	c3.465,0.23,11.398-3.389,11.398-3.389l1.54-92.111L195.467,246.408z"/>
<path fill="#1A1728" d="M200.781,323.81c1.155-1.387,2.311-2.311,2.772-3.697c0.462-1.386,1.155-5.775,0.924-6.469
	s-3.928,1.386-4.852,3.234s-0.231,3.234-2.079,5.083c-1.849,1.849-3.928,2.079-6.239,3.928c-1.325,1.06-3.862,3.258-5.789,4.94
	c1.858,0.101,4.027-0.073,4.759-0.14c1.786-0.751,4.117-1.81,5.419-2.721C198.009,326.351,199.626,325.195,200.781,323.81z"/>
<path fill="#24222D" d="M206.681,326.213c-1.248,1.027-2.179,2.56-3.328,3.722c-0.81,0.82-1.152,1.601-1.301,2.498
	c0.495-0.333,0.809-0.69,0.809-0.69s0.27,0.088,0.925,0.205c0.115-0.83,0.367-1.679,0.607-2.215
	C204.932,328.534,206.982,327.658,206.681,326.213z"/>
<linearGradient id="ian_symbols_6f46b60566e5b184b54ec50de8440f96" gradientUnits="userSpaceOnUse" x1="345.917" y1="260.2275" x2="417.0732" y2="260.2275">
	<stop  offset="0" style="stop-color:#514242"/>
	<stop  offset="0.8121" style="stop-color:#523D42"/>
</linearGradient>
<path fill="url(#ian_symbols_6f46b60566e5b184b54ec50de8440f96)" d="M372.23,210.092c1.419,7.699,7.022,17.765,7.768,22.761c0.672,4.512,0.04,14.109,0,15.404
	c-0.275,8.884-3.335,20.574-6.161,28.033c-2.826,7.46-9.138,18.579-14.171,22.797c-5.033,4.219-15.285,9.984-13.555,10.783
	c1.729,0.799,2.772,1.539,2.772,1.539s2.275,0.435,4.005,1.233c1.73,0.799,5.854,0.615,5.854,0.615s0.811,1.11,3.08,1.541
	s6.928,0.239,9.089-1.232c2.16-1.471,1.848-2.156,1.848-2.156s1.965,0.857,3.39-1.694c0.486-0.87,2.065-1.372,2.772-2.618
	c0.434-0.766,0.72-2.741,1.231-3.543c1.099-1.72,1.963-4.171,2.311-6.007c0.158-0.831,0.769-2.877,1.671-5.668
	c0.482,0.949,0.947,2.169,0.947,3.357c0,2.464,0.31,5.083,0.31,5.083s0.153,1.849,0.77,0.924c0.616-0.924,3.08-4.005,3.08-6.47
	c0-2.464-0.309-3.696,0-6.623c0.12-1.135-0.535-2.521-0.462-4.929c0.067-2.235,0.374-4.865,0.615-6.662
	c3.607-10.091,7.733-20.953,10.07-25.745c4.619-9.472,9.307-17.808,11.268-24.672c1.401-4.908,4.556-6.661,4.877-10.833
	c0.321-4.173-0.963-5.813-0.235-8.797c0.029,0.185,0.141,0.283,0.335,0.295c0.136-0.369,0.176-0.923,0.429-1.232
	c0.298,0.156,0.326,0.398,0.649,0.499c0.097-0.207,0.191-0.416,0.287-0.622L372.23,210.092z"/>
<linearGradient id="ian_symbols_d1caf93bcc90a8c4b126060c4c6b94cf" gradientUnits="userSpaceOnUse" x1="121.1475" y1="85.8125" x2="216.624" y2="85.8125">
	<stop  offset="0" style="stop-color:#DECFD2"/>
	<stop  offset="1" style="stop-color:#CCA4A8"/>
</linearGradient>
<path fill="url(#ian_symbols_d1caf93bcc90a8c4b126060c4c6b94cf)" d="M216.262,50.941c0.113-0.062,0.24-0.129,0.362-0.194c-9.842,3.449-20.183,7.175-23.313,8.665
	c-6.469,3.081-21.564,10.166-28.65,13.863s-14.479,13.556-20.641,19.408c-4.361,4.144-16.278,19.544-22.873,28.195
	c20.507-18.843,60.355-48.728,69.237-54.226C200.088,60.645,204.247,57.41,216.262,50.941z"/>
<linearGradient id="ian_symbols_44d3b8df1c1f1274e594e97b7ac69561" gradientUnits="userSpaceOnUse" x1="330.1904" y1="353.2363" x2="216.2068" y2="66.1202">
	<stop  offset="0" style="stop-color:#5F5554"/>
	<stop  offset="0.1273" style="stop-color:#7F5C57"/>
	<stop  offset="0.3333" style="stop-color:#B57D84"/>
	<stop  offset="0.6424" style="stop-color:#C59297"/>
	<stop  offset="1" style="stop-color:#D5BDB1"/>
</linearGradient>
<path fill="url(#ian_symbols_44d3b8df1c1f1274e594e97b7ac69561)" d="M493.058,149.368c1.776-4.732,6.47-22.643,6.008-33.271s3.234-24.491-7.394-43.437
	c-10.629-18.946-35.119-55.914-67.467-63.77c-32.347-7.856-75.321-12.939-103.972-4.621s-91.957,40.203-103.972,46.672
	s-16.173,9.704-25.877,15.711s-56.376,41.126-74.398,59.148c-18.021,18.021-50.369,73.936-50.369,73.936
	s-9.704,20.794-13.401,31.423c-3.697,10.628,9.242,38.354,9.242,38.354s-1.232,13.247-1.849,21.719
	c-0.616,8.473-4.005,20.486-6.007,23.567c-2.002,3.08-8.78,8.317-8.78,8.317s2.157,7.086,5.083,8.78
	c2.926,1.693,4.774,2.002,7.855,4.62c3.081,2.619,4.005,6.624,6.007,6.008c2.002-0.616,3.543-3.389,6.931-5.545
	c3.389-2.156,7.856-6.47,9.242-10.783c0.369-1.147-0.447-2.558,0.616-4.312c1.108-1.83,4.313-2.773,6.47-5.546
	s4.005-6.623,4.005-6.623s1.232,5.391,0.924,7.394c-0.308,2.002-1.232,3.542-3.235,6.469s-2.311,2.618-4.621,4.621
	s-1.386,1.694-1.848,4.159c-0.462,2.465,1.386,7.855,3.697,7.855s11.09-3.697,17.56-7.394s14.787-5.545,22.643-7.855
	c7.856-2.311,11.091-11.553,18.022-19.408c6.932-7.855,16.173-25.415,22.181-32.347s18.946-19.87,24.953-22.643
	c6.007-2.773,18.022-3.235,24.491-4.621c6.47-1.387,47.134-24.029,57.3-29.574c10.166-5.546,20.794-10.166,34.195-12.939
	c13.4-2.772,29.574-1.848,44.361-5.545c14.787-3.696,29.574-12.938,40.202-18.945c10.629-6.008,18.022-21.719,18.022-21.719
	s2.61-2.171,7.394,3.235c8.652,9.781,15.395,38.215,16.782,45.345c1.257,2.132,8.92,22.848,11.405,29.978
	c1.501,4.306,0.722,7.038,0.924,8.317c1.387,8.78,5.083,22.643,3.697,30.498c-1.387,7.856-6.47,19.87-10.628,24.954
	c-4.159,5.083-12.939,10.166-11.091,10.628s4.621,0.924,4.621,0.924s1.849,0.925,3.696,1.387c1.849,0.462,6.008-0.925,6.008-0.925
	s3.234,2.773,5.545,2.773s4.621,0,6.47-1.849s2.772-6.008,2.772-6.008s0.978-4.225,2.003-6.314c0.256-0.523,0.646-3.912,0.924-4.005
	c0.347-0.115,0.308,2.907,0.546,3.532c0.205,0.539,0.388,1.242,0.575,1.919c0.468,1.681,0.663,4.277,1.651,2.712
	c1.561-2.471,2.465-9.241,1.694-15.403c-0.517-4.126,3.696-30.96,6.47-41.127c2.772-10.166,5.822-19.229,6.469-26.339
	c0.462-5.083,3.234-7.394,2.772-11.553s-1.997-5.264-1.872-8.599s8.791-26.334,10.791-33.001S491.281,154.1,493.058,149.368z"/>
<linearGradient id="ian_symbols_b79ea566ee9e4b84cd5e78731fe7db71" gradientUnits="userSpaceOnUse" x1="80.8228" y1="321.9971" x2="92.0068" y2="321.9971">
	<stop  offset="0" style="stop-color:#3C2A36"/>
	<stop  offset="1" style="stop-color:#482837"/>
</linearGradient>
<path fill="url(#ian_symbols_b79ea566ee9e4b84cd5e78731fe7db71)" d="M82.253,332.358c0.462-2.465-0.462-2.156,1.848-4.159s2.619-1.694,4.621-4.621
	s2.927-4.467,3.235-6.469c0.308-2.003-0.924-7.394-0.924-7.394s-1.849,3.851-4.005,6.623c-1.212,1.558-2.746,2.535-4.062,3.42
	c-0.297,2.849-0.776,5.947-1.791,7.979c-0.904,1.809,0.103,4.566,1.088,6.541C82.167,333.559,82.154,332.889,82.253,332.358z"/>
<linearGradient id="ian_symbols_6c221a14a40009a4c9be83c10bb43cba" gradientUnits="userSpaceOnUse" x1="377.6885" y1="217.4414" x2="420.2014" y2="184.1704">
	<stop  offset="0" style="stop-color:#744950"/>
	<stop  offset="1" style="stop-color:#B26E7D"/>
</linearGradient>
<path fill="url(#ian_symbols_6c221a14a40009a4c9be83c10bb43cba)" d="M409.881,157.223c0,0-7.394,15.711-18.022,21.719c-1.397,0.79-2.872,1.639-4.405,2.521l-4.605,28.207
	l0.693,9.704c0,0,5.776,1.618,12.477,0.693c6.7-0.924,19.254-4.929,20.563-4.852c1.31,0.076,3.003,0.693,3.003,0.693
	s0,1.231,0.693,1.617c0.693,0.385,1.771,0.385,2.311-0.231s0.231-0.924,0.462-2.311c0.231-1.386,6.393-12.631,6.932-15.249
	c0.213-1.033,0.653-3.627,1.109-6.388c-3.043-11.298-7.996-26.312-13.816-32.891C412.491,155.052,409.881,157.223,409.881,157.223z"
	/>
<linearGradient id="ian_symbols_14c9c50debc5c11499efa3c19f318fbe" gradientUnits="userSpaceOnUse" x1="425.7207" y1="199.7598" x2="434.0332" y2="189.5723">
	<stop  offset="0.097" style="stop-color:#AC6A78"/>
	<stop  offset="0.3515" style="stop-color:#B26E7D"/>
</linearGradient>
<path fill="url(#ian_symbols_14c9c50debc5c11499efa3c19f318fbe)" d="M425.438,199.121c0,0,4.774,0.461,5.853,0.153c1.079-0.308,1.541-1.078,2.003-1.232
	s0.924,1.232,1.694,1.232c0.77,0,2.31-0.925,2.618-1.387s0.77-2.002,0-2.926c-0.367-0.44-1.484-0.732-2.464-1.695
	c-1.076-1.059-2.041-2.811-2.927-3.696c-1.694-1.694-4.775-4.621-4.775-4.621"/>
<linearGradient id="ian_symbols_6783e24f6663bab42db6a9184dfd8536" gradientUnits="userSpaceOnUse" x1="349.2539" y1="228.9111" x2="385.915" y2="192.2505">
	<stop  offset="0" style="stop-color:#975A65"/>
	<stop  offset="0.4545" style="stop-color:#B26E7D"/>
	<stop  offset="1" style="stop-color:#B57981"/>
</linearGradient>
<path fill="url(#ian_symbols_6783e24f6663bab42db6a9184dfd8536)" d="M351.656,197.888c-1.332,0.333-2.678,0.617-4.029,0.881l-16.919,14.061l5.396,3.391
	c3.647,1.968,9.188,4.857,13.01,5.929c5.776,1.617,16.867-0.693,18.253-0.231c1.387,0.462,3.004,3.004,5.314,4.159s6.007,0,6.007,0
	s1.387,1.386,2.311,2.079c0.925,0.693,2.772,0,3.928-0.462s0.925-1.849,1.155-2.542c0.231-0.693-1.155-2.541-1.155-2.541
	s0.231-2.542,0.463-5.083c0.23-2.542-0.693-4.391-0.231-6.008s5.776-7.162,7.394-9.473s1.617-2.772,2.542-6.238
	c0.924-3.466,1.617-6.238,2.079-10.628c0.284-2.699,0.219-7.227,0.126-10.319c-1.691,1.578-3.512,2.99-5.44,4.081
	C381.23,184.949,366.443,194.191,351.656,197.888z"/>
<linearGradient id="ian_symbols_f9b214a5b975d6247dfa881265b27567" gradientUnits="userSpaceOnUse" x1="269.4678" y1="217.1504" x2="356.5635" y2="217.1504">
	<stop  offset="0" style="stop-color:#7D5757"/>
	<stop  offset="0.1306" style="stop-color:#8A6263"/>
	<stop  offset="0.3209" style="stop-color:#9A6E71"/>
	<stop  offset="0.4485" style="stop-color:#A07376"/>
	<stop  offset="0.9879" style="stop-color:#B57981"/>
</linearGradient>
<path fill="url(#ian_symbols_f9b214a5b975d6247dfa881265b27567)" d="M307.295,203.433c-13.401,2.773-24.029,7.394-34.195,12.939c-0.958,0.522-2.187,1.196-3.632,1.99
	c0.578,6.992,1.552,16.031,1.552,16.031l4.621,0.462c0,0,1.387,2.08,2.542,2.772c1.155,0.693,3.004-0.462,3.697-0.924
	c0.692-0.462,0-2.079,0.692-3.004c0.693-0.924,2.08-6.007,6.238-7.624c4.159-1.618,15.25-3.004,18.715-3.928
	c3.466-0.925,4.391-2.311,6.47-2.542s7.162,0.231,9.011,0s2.542-2.541,3.235-2.541c0.692,0,3.234-0.463,3.928-0.925
	c0.692-0.462,1.155-2.311,2.311-1.849l12.092-2.387l8.625-6.47l3.367-8.979c-1.632,0.534-3.27,1.021-4.907,1.431
	C336.869,201.585,320.695,200.66,307.295,203.433z"/>
<linearGradient id="ian_symbols_1e2f6874c6dc19a4094e6f9d20ea0598" gradientUnits="userSpaceOnUse" x1="402.9521" y1="189.4844" x2="405.0178" y2="201.1992">
	<stop  offset="0.3273" style="stop-color:#9F636F"/>
	<stop  offset="0.8667" style="stop-color:#B26E7D"/>
</linearGradient>
<path opacity="0.6" fill="url(#ian_symbols_1e2f6874c6dc19a4094e6f9d20ea0598)" d="M398.79,193.113c0,0,2.772,0.771,3.697,1.849c0.924,1.077,1.617,3.619,2.772,4.313
	s2.694,0.539,3.08-0.308c0.386-0.848-0.924-1.694-0.615-3.697c0.308-2.003-0.309-7.701-0.309-7.701"/>
<path fill="#B38383" d="M492.813,74.792c3.225-3.766,7.045-11.521,7.176-14.146c0.153-3.082-1.386-5.545-2.772-6.007
	s-2.002-1.078-3.697,0c-1.694,1.078-1.077,3.85-3.696,7.855c-0.783,1.198-1.635,2.129-2.444,2.853
	c1.611,2.631,3.051,5.1,4.293,7.313C492.075,73.378,492.45,74.087,492.813,74.792z"/>
<linearGradient id="ian_symbols_6dc2746bfa3ee204d1519289d97d8628" gradientUnits="userSpaceOnUse" x1="0" y1="223.7451" x2="62.5151" y2="223.7451">
	<stop  offset="0" style="stop-color:#D5BDB1"/>
	<stop  offset="1" style="stop-color:#C59398"/>
</linearGradient>
<path fill="url(#ian_symbols_6dc2746bfa3ee204d1519289d97d8628)" d="M52.217,231.159c2.351-6.76,7.129-17.625,10.298-24.644c-2.69,0.277-6.479,0.764-9.836,1.538
	c-6.007,1.387-11.553,4.621-14.787,7.394c-3.235,2.772-7.394,8.78-11.553,9.704c-4.159,0.925-8.78-1.386-14.325,0.462
	C6.469,227.462,0,232.545,0,232.545s12.015,9.242,18.022,6.932s7.394-2.772,10.628-3.696c3.235-0.925,10.167,0.462,10.167,0.462
	L52,240.975C51.406,237.144,51.343,233.672,52.217,231.159z"/>
<path fill="#6B5C5F" d="M52.217,231.159c0.384-1.104,0.835-2.32,1.331-3.608c-1.369-0.078-3.181-0.188-4.657-0.021
	c-2.657,0.298-19.73,3.699-21.488,4.554s-11.063,5.247-14.209,6.816c-0.25,0.124-0.481,0.227-0.717,0.335
	c2.134,0.646,4.184,0.863,5.8,0.242c6.007-2.311,7.394-2.772,10.628-3.696c3.234-0.925,10.166,0.462,10.166,0.462l12.915,4.636
	C51.405,237.086,51.351,233.649,52.217,231.159z"/>
<linearGradient id="ian_symbols_c76155b5817507c4158e00247b0387fa" gradientUnits="userSpaceOnUse" x1="45.9429" y1="324.9082" x2="63.1945" y2="343.3923">
	<stop  offset="0" style="stop-color:#E6A2B1"/>
	<stop  offset="0.2452" style="stop-color:#DF9CAB"/>
	<stop  offset="0.4811" style="stop-color:#CF8F9D"/>
	<stop  offset="0.7131" style="stop-color:#B77B89"/>
	<stop  offset="0.9416" style="stop-color:#986370"/>
	<stop  offset="1" style="stop-color:#905C69"/>
</linearGradient>
<path fill="url(#ian_symbols_c76155b5817507c4158e00247b0387fa)" d="M43.283,321.576c0.924-0.616,2.002-0.77,2.618,0c0.617,0.771,3.235,3.852,4.005,5.7
	c0.77,1.848,0,3.081,1.848,3.696c1.849,0.616,6.315,2.311,8.78,4.621s4.005,4.313,4.159,5.545c0.154,1.232-0.154,1.541-1.387,2.156
	c-1.232,0.616-2.002,0.308-4.005-1.54c-2.002-1.849-4.004-6.161-5.699-6.777c-1.695-0.616-3.081-1.079-5.392-2.927
	c-2.311-1.849-4.158-4.006-4.929-6.008C42.513,324.041,42.359,322.193,43.283,321.576z"/>
<linearGradient id="ian_symbols_a0d2a276400832845563b5b1b576c6ba" gradientUnits="userSpaceOnUse" x1="1.2588" y1="250.5566" x2="96.668" y2="250.5566">
	<stop  offset="0" style="stop-color:#D5BDB1"/>
	<stop  offset="1" style="stop-color:#C59398"/>
</linearGradient>
<path fill="url(#ian_symbols_a0d2a276400832845563b5b1b576c6ba)" d="M1.386,269.744c0,0-0.693-3.928,1.155-6.47c1.849-2.541,9.935-4.852,12.246-6.469
	c2.311-1.618,14.787-12.939,18.946-15.712c4.159-2.772,12.246-9.704,15.942-11.09c3.697-1.387,11.553-2.311,16.636-3.466
	s10.859-3.928,15.711-2.772s9.935,6.932,11.783,11.09c1.849,4.159,3.235,9.936,2.772,12.015c-0.462,2.079-6.7,2.542-6.7,4.853
	c0,2.31,3.003,6.7,3.003,11.783s0,11.553-2.31,12.245c-2.311,0.693-3.466,0.693-9.242,1.617c-5.776,0.925-29.112-0.924-35.813-1.386
	s-19.87-0.462-22.643-0.924c-2.773-0.463-2.773-2.773-6.238-3.697C13.17,270.438,1.386,269.744,1.386,269.744z"/>
<path fill="#594746" d="M73.474,279.217c-0.662,2.034,4.758,5.536,6.699,5.673c1.845-0.859-1.059-2.672-1.797-3.413
	c-1.203-1.208-2.938-2.606-3.747-2.953C73.82,278.178,73.474,279.217,73.474,279.217z"/>
<path fill="#B57D84" d="M302.212,201.123c-0.462-10.629-15.249-24.954-23.567-30.961c-7.552-5.455-15.464-5.765-16.859-5.776
	c1.053,0.564,5.31,4.798,6.924,7.625c1.849,3.234,6.239,13.17,7.625,16.866c1.387,3.697,0.231,6.238,0.693,8.317
	c0.462,2.08,2.772,4.391,2.079,6.008c-0.692,1.617-1.155,3.004-1.848,4.39c-0.693,1.387,0.692,2.079,0.692,4.39
	c0,0.426-0.023,1.08-0.064,1.877c7.424-3.749,15.269-6.953,24.385-9.269C302.274,203.354,302.258,202.186,302.212,201.123z"/>
<linearGradient id="ian_symbols_a3d9905dce58d934b5352348d642e043" gradientUnits="userSpaceOnUse" x1="12.1563" y1="265.9209" x2="92.8813" y2="265.9209">
	<stop  offset="0" style="stop-color:#847D83"/>
	<stop  offset="0.3145" style="stop-color:#7F757B"/>
	<stop  offset="0.8259" style="stop-color:#716367"/>
	<stop  offset="1" style="stop-color:#6B5C5F"/>
</linearGradient>
<path opacity="0.64" fill="url(#ian_symbols_a3d9905dce58d934b5352348d642e043)" d="M22.874,275.059c2.772,0.462,15.942,0.462,22.643,0.924s30.036,2.311,35.813,1.386
	c5.776-0.924,6.932-0.924,9.242-1.617c2.31-0.692,2.31-7.162,2.31-12.245c0-3.614-1.514-6.872-2.392-9.287
	c-0.336,2.951,1.215,8.765-2.148,8.443c-0.605,1.24-1.41,2.304-2.009,3.547c-3.322-0.965-4.828,1.45-7.75,1.431
	c-2.735-0.02-5.101-0.188-7.881-0.438c-1.503-0.134-2.621-0.152-3.811-0.114c0.458-0.015-3.709,0.638-2.993,0.195
	c-2.159,1.333-2.055,4.853-5.593,3.073c-0.604-2.16,0.4-4.61,0.291-6.75c-0.133-2.612-0.591-3.724,0.969-6.477
	c-2.117-0.41-3.153,1.713-4.91,1.881c-1.777,0.171-2.878-2.106-3.926-1.893c-0.838,0.171-1.811,11.233-3.673,5.542
	c-2.498-0.866-3.679-4.799-6.494-3.81c-3.527,1.239-1.037,6.572-5.451,6.536c0.649,0.005-3.51-2.127-3.224-1.872
	c-1.192-1.063-1.49-1.414-2.426-3.141c-0.878-1.621-4.414-6.606-4.113-1.097c-0.609-0.124-1.562,0.259-2.172,0.139
	c-0.038,1.699,0.105,3.422-0.612,4.934c-2.343,0.748-2.845-1.517-4.46-2.171c-0.18,5.013-0.897,2.899-3.902,5.36
	c-1.156,0.947-1.505,2.111-2.044,3.104c1.854,0.214,3.5,0.456,4.479,0.718C20.101,272.285,20.101,274.596,22.874,275.059z"/>
<path fill="#B57D84" d="M216.892,237.306c-4.365-5.668-15.135-5.677-21.765-4.792c-8.585,1.145-11.206,7.36-16.125,13.554
	c-5.452,6.866-13.688,6.399-17.22,14.098c-3.405,1.429-4.644,1.155-6.519,4.571c-1.708,3.112-1.781,6.906-3.955,9.705
	c-2.438,3.138-4.595,5.205-6.519,8.779c-1.613,2.996-3.251,7.403-7.439,6.732c-1.082,2.695-5.355,3.036-7.562,2.671
	c1.512,4.38,5.981,18.343,4.269,26.563c3.223-3.891,6.028-8.996,10.117-13.63c6.932-7.855,16.173-25.415,22.181-32.347
	s18.946-19.87,24.953-22.643c6.007-2.773,18.022-3.235,24.491-4.621c0.729-0.156,1.911-0.594,3.417-1.236
	C219.303,242.174,218.715,239.672,216.892,237.306z"/>
<linearGradient id="ian_symbols_3a53355f8c665f34d9dd4adc1e7fdfc4" gradientUnits="userSpaceOnUse" x1="227.5918" y1="196.5303" x2="260.5089" y2="365.8743">
	<stop  offset="0" style="stop-color:#C39095"/>
	<stop  offset="0.0727" style="stop-color:#C28E93"/>
	<stop  offset="0.3273" style="stop-color:#B57D84"/>
	<stop  offset="0.5758" style="stop-color:#81695F"/>
	<stop  offset="0.8848" style="stop-color:#5F5554"/>
</linearGradient>
<path fill="url(#ian_symbols_3a53355f8c665f34d9dd4adc1e7fdfc4)" d="M192.695,232.083c0,0,8.24-0.385,14.169,0.463s9.86,13.862,9.86,17.097
	c0,3.235-2.311,21.95-2.08,26.108c0.231,4.159,1.849,8.549,2.08,13.863s0.693,18.946,0.693,22.874s-1.155,7.509-1.618,11.321
	c-0.462,3.813,0.462,10.166-0.462,13.632s-3.466,11.321-3.928,14.556c-0.462,3.235-3.004,9.127-2.311,9.936
	c0.693,0.809,2.542,1.849,4.39,1.849c1.849,0,3.235-0.925,3.235-0.925s-0.115,1.155,0.924,1.617
	c1.608,0.715,4.274,1.387,7.625,0.925s6.123-0.809,8.318-2.542c2.195-1.732,4.621-3.35,4.852-5.083
	c0.231-1.732-1.04-7.624-1.618-9.935s-0.924-7.278-0.231-6.701c0.693,0.578,2.888,5.083,3.466,6.238s1.964,3.235,2.542,3.235
	s1.964-2.772,1.617-4.391c-0.346-1.617-1.155-5.198-0.693-7.624s1.502-6.816,1.155-9.473c-0.347-2.657-2.08-21.025-2.08-22.644
	c0-1.617,0.231-3.234,0.231-3.234c0.513-0.846,1.799-0.421,2.068-1.526c0.811,0.104,1.3-0.84,2.052-1.28
	c0.084-0.9,0.859-2.128,1.437-2.854c-0.024-0.023-0.01-0.209,0.006-0.235c-0.311,0.081-0.348,0.056-0.705,0.254
	c-0.529-0.126-1.222-0.191-1.814-0.173c-0.026-0.131-0.052-0.264-0.078-0.396c-0.197,0.06-0.409,0.175-0.621,0.158
	c-0.208-0.109-0.291-0.246-0.507-0.277c0.017-0.884-0.017-1.786,0.063-2.653c0.096-0.013,0.16,0.024,0.192,0.113
	c0.018-0.208-0.054-0.375,0.033-0.582c0.542-0.033,1.261-0.316,1.993-0.293c0.676-0.955,1.797-1.328,2.812-2.085
	c1.099-0.819,1.73-1.934,2.785-2.842c-0.021,0.011-0.006-0.242,0-0.254c-0.592,0.643-2.335,1.201-3.025,1.202
	c0.099-1.262,1.731-2.462,2.314-3.611c0.605-1.194,0.625-2.535,1.416-3.574c-1.284-0.766-3.258-0.135-4.435,0.229
	c2.695-0.631,4.962-3.716,7.005-5.619c2.456-2.289,4.611-4.499,6.157-7.582c-1.29,0.868-2.539,2.234-3.688,3.303
	c1.662-3.707,5.078-6.795,5.571-11.167c-0.915,1.678-2.575,4.864-3.943,5.829c0.303-1.499,1.476-3.046,2.026-4.518
	c0.589-1.575,1.089-2.981,1.466-4.532c-1.579,1.956-3.197,3.64-4.834,5.146c0.124-0.166,0.121-0.416,0.213-0.546
	c-0.5,1.004-2.768,2.185-3.742,2.612c3.812-3.663,10.179-8.857,11.351-14.232l2.772-5.083l1.386-8.549c0,0,5.776-9.704,6.238-12.477
	c0.463-2.772,1.155-11.783,1.155-14.094s-1.386-3.004-0.692-4.39c0.692-1.387,1.155-2.772,1.848-4.39
	c0.693-1.618-1.617-3.929-2.079-6.008s0.693-4.621-0.693-8.317c-1.386-3.697-5.776-13.632-7.625-16.867
	c-1.848-3.234-7.163-8.317-7.163-7.625"/>
<path fill="#38323D" d="M217.874,355.92c0.337-2.852,2.025-8.873,0.473-11.667c-0.712,0.648-0.392,2.859-0.583,4.048
	c-0.305,1.89-0.863,2.957-1.04,4.39c-0.414,3.365-0.509,6.148-1.668,9.215c-0.097,0.013-0.161-0.025-0.193-0.113
	c-0.177,0.656-0.468,1.298-0.739,1.951c1.521-0.17,2.6-0.887,2.6-0.887s-0.015,0.184,0.027,0.431c0.134-0.568,0.3-1.121,0.422-1.599
	C217.664,359.769,217.628,357.989,217.874,355.92z"/>
<path fill="#38323D" d="M239.135,339.752c-0.325-1.381-0.7-2.736-0.975-4.108c-0.242-1.211-0.191-3.135-0.885-4.114
	c0.02,1.589-0.079,4.455-0.451,6.952c-0.236,1.59-0.961,2.955-0.614,3.985c0.005-0.95,0.117-1.551,0.383-1.329
	c0.539,0.449,1.981,3.264,2.87,5.041C239.562,344.018,239.634,341.866,239.135,339.752z"/>
</svg>
