<?xml version="1.0" encoding="UTF-8" standalone="no"?>
<svg xmlns:rdf="http://www.w3.org/1999/02/22-rdf-syntax-ns#" xmlns="http://www.w3.org/2000/svg" height="501px" width="336px" xmlns:cc="http://creativecommons.org/ns#" xmlns:xlink="http://www.w3.org/1999/xlink" xmlns:dc="http://purl.org/dc/elements/1.1/">
<title>Fraxinus americana (White Ash)</title>
<desc xmlns:ian_image_library="http://ian.umces.edu/imagelibrary/">
      <ian_image_library:title>Fraxinus americana (White Ash)</ian_image_library:title>
      <ian_image_library:descr>Illustration of white ash (Fraxinus Americana)</ian_image_library:descr>
      <ian_image_library:scene>
		<ian_image_library:contains>symbol,vector,illustration,Angiosperms,Eudicots,Asterids,Lamiales,Oleaceae,Fraxinus,hardwood forest</ian_image_library:contains>
        <ian_image_library:when>2011-02-20</ian_image_library:when> 
	  </ian_image_library:scene>
   </desc>
    <metadata
		id="metadata-iil-bc0d0073042a80f411c6c719d4b305f8">
      <rdf:RDF>
      <cc:Work
         rdf:about="">
        <dc:format>image/svg+xml</dc:format>
        <dc:type
           rdf:resource="http://purl.org/dc/dcmitype/StillImage" />
        <cc:license
           rdf:resource="http://creativecommons.org/licenses/by-sa/3.0/" />
        <dc:title>Fraxinus americana (White Ash)</dc:title>
		<dc:date>2011-02-20</dc:date>
        <dc:creator>
			<cc:Agent>
				<dc:title>Joanna Woerner</dc:title>
			</cc:Agent>	
		</dc:creator>   
		<dc:rights>
          <cc:Agent>
            <dc:title>Joanna Woerner, Integration and Application Network</dc:title>
          </cc:Agent>
        </dc:rights>
        <dc:publisher>
          <cc:Agent>
            <dc:title>Integration and Application Network</dc:title>
          </cc:Agent>
        </dc:publisher>
		<dc:identifier>http://ian.umces.edu/imagelibrary/displayimage-6603.html</dc:identifier>
        <dc:source>http://ian.umces.edu/imagelibrary/displayimage-6603.html</dc:source>
        <dc:language>en-US</dc:language>
        <dc:subject>
          <rdf:Bag>
            <rdf:li>symbol,vector,illustration,Angiosperms,Eudicots,Asterids,Lamiales,Oleaceae,Fraxinus,hardwood forest</rdf:li>
          </rdf:Bag>
        </dc:subject>
        <dc:coverage></dc:coverage>
        <dc:description>Illustration of white ash (Fraxinus Americana)</dc:description>
        <dc:contributor>
          <cc:Agent>
            <dc:title></dc:title>
          </cc:Agent>
        </dc:contributor>
      </cc:Work>
      <cc:License
         rdf:about="http://creativecommons.org/licenses/by-sa/3.0/">
        <cc:permits
           rdf:resource="http://creativecommons.org/ns#Reproduction" />
        <cc:permits
           rdf:resource="http://creativecommons.org/ns#Distribution" />
        <cc:requires
           rdf:resource="http://creativecommons.org/ns#Notice" />
        <cc:requires
           rdf:resource="http://creativecommons.org/ns#Attribution" />
        <cc:permits
           rdf:resource="http://creativecommons.org/ns#DerivativeWorks" />
        <cc:requires
           rdf:resource="http://creativecommons.org/ns#ShareAlike" />
      </cc:License>
    </rdf:RDF>
  </metadata>
	
<defs>
</defs>
<linearGradient id="ian_symbols_5aa3c81fc73d85c4b1d996dbedad8c1b" gradientUnits="userSpaceOnUse" x1="151.2817" y1="486.957" x2="153.6526" y2="288.7552" gradientTransform="matrix(1 0 0 -1 0 498.9941)">
	<stop  offset="0" style="stop-color:#395B2B"/>
	<stop  offset="0.3166" style="stop-color:#375528"/>
	<stop  offset="0.7429" style="stop-color:#2C4323"/>
	<stop  offset="1" style="stop-color:#24361E"/>
</linearGradient>
<path fill="url(#ian_symbols_5aa3c81fc73d85c4b1d996dbedad8c1b)" d="M163.585,214.351c-7.592-3.797-15.644-3.31-23.707-5.687c-6.633-1.892-12.333-5.687-18.494-8.065
	c-13.279-5.687-27.975-18.492-37.931-28.448c-8.537-9.01-20.398-19.438-15.17-33.662c1.891-6.16,7.106-5.688,10.901-9.484
	c4.269-3.794,6.633-12.333,0-16.601c3.323-6.632,14.697-6.159,19.438-13.279c5.214-8.051,1.419-18.006,6.16-26.071
	c3.323-5.214,9.956-6.646,10.915-13.75c0.946-6.16-3.323-13.279-8.064-16.602c-5.214-3.31-10.9-0.945-16.128-2.364
	c-8.524-2.377-5.687-6.647,1.432-9.01c5.687-1.431,10.429-1.431,15.643-4.268c2.85-1.904,3.796-3.796,7.119-3.796
	c5.214,0,11.374,5.214,14.225,7.592c1.419,1.418,1.891,3.783,1.891,5.687c10.901,0,5.214-9.011,1.432-12.333
	c-2.85-2.837-7.119-4.268-4.282-8.064c0.959-1.419,8.55-2.364,9.969-1.893c3.31,1.893,5.214,16.603,11.374,9.011
	c5.687-6.159-6.159-11.847-6.159-16.116c-0.473-6.646,9.956-8.537,14.225-6.172c2.364,1.431,0.472,4.741,4.268,6.172
	c4.268,1.891,6.16-1.904,9.482-3.323c4.269-1.891,15.17-5.688,12.32,2.836c-1.419,5.227-10.9,6.172-11.847,12.806
	c-0.474,6.645,4.269,10.429,9.956,8.537c4.741-1.892,5.228-9.481,9.01-10.429c5.699-1.432,9.482,4.742,9.01,9.483
	c-0.474,5.214-11.375,10.429-10.429,15.643c0.946,5.213,9.482,0,12.32-2.364c3.809-4.268,3.809-9.01,10.9-8.064
	c18.021,2.85-9.009,21.343,0,32.244c3.809-3.324,12.819-15.643,18.021-9.011c1.917,2.837-2.364,14.698-2.364,18.494
	c0,7.591,0.946,9.482-2.364,16.116c-2.363,5.226-6.172,11.386-6.172,17.073c0,2.85,0.944,10.429,1.891,13.751
	c1.918,5.687,7.592,8.537,12.345,13.278c13.739,14.696-11.4,25.125-22.301,32.717c-14.211,10.429-18.021,18.966-23.694,33.662
	c-4.282,10.915-17.074,17.073-27.502,12.806"/>
<linearGradient id="ian_symbols_2574a919fbe706745d718fc6296ecea1" gradientUnits="userSpaceOnUse" x1="90.9805" y1="309.0215" x2="77.2306" y2="259.2374" gradientTransform="matrix(1 0 0 -1 0 498.9941)">
	<stop  offset="0" style="stop-color:#395B2B"/>
	<stop  offset="0.4223" style="stop-color:#334D26"/>
	<stop  offset="1" style="stop-color:#24361E"/>
</linearGradient>
<path fill="url(#ian_symbols_2574a919fbe706745d718fc6296ecea1)" d="M141.665,236.775c-10.901-10.429-22.17-12.942-32.14-24.79c-4.74-5.7-9.956-12.333-18.019-13.279
	c-6.16-0.472-9.956,3.324-15.643-0.945c-6.159-3.796-4.74-9.956-6.633-16.13c-2.376-7.578-7.119-10.9-11.859-17.073
	c-3.323-3.783-23.708-32.231-29.395-18.48c-3.323,7.578,9.01,13.752,9.483,20.384c1.891,10.901-6.578,2.334-12.333,1.892
	c-5.755-0.443-5.688,9.956-1.419,15.184c2.364,2.837,3.795,3.31,5.213,6.632c1.419,2.85,0.946,6.16,2.377,9.483
	c2.837,6.632,4.254,5.687,12.32,6.16c7.592,0.472,9.011,1.432,14.225,6.172c9.009,8.052,22.288,4.741,27.03,14.226
	c2.85,5.687,3.323,10.428,7.592,15.642c4.268,5.687,9.956,8.064,15.642,12.334c9.483,7.105,17.075,9.482,29.408,7.105
	c10.428-1.894,16.588-11.847,7.106-20.858L141.665,236.775z"/>
<linearGradient id="ian_symbols_d76e47b6bb0c324479f54e1ffbd054c3" gradientUnits="userSpaceOnUse" x1="167.9878" y1="291.2188" x2="269.9337" y2="374.6721" gradientTransform="matrix(1 0 0 -1 0 498.9941)">
	<stop  offset="0" style="stop-color:#395B2B"/>
	<stop  offset="0.0163" style="stop-color:#3C5D2D"/>
	<stop  offset="0.3509" style="stop-color:#748C5C"/>
	<stop  offset="0.6381" style="stop-color:#9CAD7F"/>
	<stop  offset="0.8638" style="stop-color:#B6C194"/>
	<stop  offset="1" style="stop-color:#BFC99C"/>
</linearGradient>
<path fill="url(#ian_symbols_d76e47b6bb0c324479f54e1ffbd054c3)" d="M162.64,215.309c-0.946-11.387-4.268-22.773,3.323-31.771c8.051-9.482,15.17-10.915,25.126-15.656
	c10.429-5.687,10.429-11.846,12.32-21.33c1.443-7.118,15.655-19.452,16.128-5.7c8.064,0.473,8.537-2.364,12.319-8.524
	c4.281-7.119,4.755-5.228,13.292-5.7c12.792-0.473,9.955-10.902,17.548-18.494c5.201-5.687,20.857-22.287,25.111-5.687
	c1.444,4.742,0,9.011,1.444,13.279c1.892,5.687,3.311,9.956,0.474,16.602c-2.863-0.96-12.819-7.592-15.183-4.268
	c-2.838,3.309,2.836,4.268,3.782,5.687c2.391,3.31,2.863,4.268,3.335,9.01c2.839,27.029-18.019-16.128-20.384,2.364
	c-0.945,6.173,3.783,10.441,1.419,17.073c-2.364,7.592-7.592,10.429-14.237,13.751c-18.02,9.484-31.286,25.126-50.252,32.244
	c-10.915,4.268-22.287,9.956-34.147,7.592"/>
<linearGradient id="ian_symbols_0ef7142f0e357404f93274eb6b635703" gradientUnits="userSpaceOnUse" x1="77.981" y1="228.5142" x2="80.3519" y2="136.5217" gradientTransform="matrix(1 0 0 -1 0 498.9941)">
	<stop  offset="0" style="stop-color:#395B2B"/>
	<stop  offset="0.4223" style="stop-color:#334D26"/>
	<stop  offset="1" style="stop-color:#24361E"/>
</linearGradient>
<path fill="url(#ian_symbols_0ef7142f0e357404f93274eb6b635703)" d="M146.039,268.396c-7.105-1.418-13.278-2.836-19.911-0.472c-6.633,1.916-11.388,7.118-17.548,9.01
	c-14.225,4.282-20.857-8.538-32.717-11.374c-4.268-0.946-13.279-0.473-16.588,1.418c-7.592,4.756-0.959,10.901-4.269,16.603
	c-5.7,9.956-24.179,7.591-33.676,7.118c-4.255-0.473-10.429-1.891-14.697-0.945c-8.537,1.893-5.687,7.092-2.364,13.267
	c2.364,4.752,5.214,12.32,8.052,15.655c3.796,5.201,13.279,2.363,10.915,10.428c-0.959,3.312-17.074,13.267-9.483,18.02
	c4.742,3.312,10.429-8.062,14.225-8.062c1.419,0,16.116,3.309,17.074,4.753c4.256,6.62-9.023,10.9,0.473,14.683
	c11.374,4.281,20.857-13.265,31.285-16.129c9.956-2.364,20.871-0.945,30.353-3.783c5.687-1.891,30.354-8.064,21.802,6.646
	c-3.31,5.673-34.135,16.102-17.061,23.22c5.214,2.392,11.86,0,17.061-0.472c5.228-0.946,17.075,0.945,21.342-1.891
	c9.01-4.756,6.646-22.747,6.646-31.76c0-11.872,0-23.245-1.432-35.095c-0.473-4.753-0.473-9.481-1.419-13.765
	c-1.419-8.062-2.753-9.441-7.493-15.116L146.039,268.396z"/>
<linearGradient id="ian_symbols_d2b16cec39f2f4b4155223fda22a0e23" gradientUnits="userSpaceOnUse" x1="48.6895" y1="249.6748" x2="49.3459" y2="194.5371" gradientTransform="matrix(1 0 0 -1 0 498.9941)">
	<stop  offset="0" style="stop-color:#BFC99C"/>
	<stop  offset="0.1189" style="stop-color:#A3B285"/>
	<stop  offset="0.3019" style="stop-color:#7D9365"/>
	<stop  offset="0.4841" style="stop-color:#5F7B4B"/>
	<stop  offset="0.6629" style="stop-color:#4B6938"/>
	<stop  offset="0.8368" style="stop-color:#3D5F2F"/>
	<stop  offset="1" style="stop-color:#395B2B"/>
</linearGradient>
<path fill="url(#ian_symbols_d2b16cec39f2f4b4155223fda22a0e23)" d="M44.092,290.698c-4.742-0.945-12.793,0.946-17.062-0.945c-5.7-2.39-8.537-9.011-14.224-11.873
	C7.579,275.044,0,273.152,0,266.032c0-4.268,6.16-12.792,8.052-17.06c3.796-6.646,6.173-6.646,9.969,1.418
	c2.837,5.687,1.419,12.333,8.525,12.805c12.333,1.418,18.979-16.601,30.353-15.655c5.688,0.473,8.064,4.268,11.387,8.065
	c4.268,5.213,5.687,6.159,12.32,7.119c5.214,0.472,7.592,0,11.861,3.309c3.795,2.864,8.052,8.538,3.309,11.848
	c-0.945,0.499-9.956-0.472-11.846-0.472c-7.118,0.971-9.483,2.864-14.697,8.062c-6.173,6.175-17.073,21.358-24.665,7.12
	L44.092,290.698z"/>
<linearGradient id="ian_symbols_472a65a30f61c6c4cd2c672e82b4035f" gradientUnits="userSpaceOnUse" x1="224.5181" y1="235.8779" x2="228.5155" y2="182.3172" gradientTransform="matrix(1 0 0 -1 0 498.9941)">
	<stop  offset="0" style="stop-color:#BFC99C"/>
	<stop  offset="0.1189" style="stop-color:#A3B285"/>
	<stop  offset="0.3019" style="stop-color:#7D9365"/>
	<stop  offset="0.4841" style="stop-color:#5F7B4B"/>
	<stop  offset="0.6629" style="stop-color:#4B6938"/>
	<stop  offset="0.8368" style="stop-color:#3D5F2F"/>
	<stop  offset="1" style="stop-color:#395B2B"/>
</linearGradient>
<path fill="url(#ian_symbols_472a65a30f61c6c4cd2c672e82b4035f)" d="M165.004,278.854c4.268-5.701,19.923-9.013,26.557-5.701c9.01,4.256-6.16,16.601,6.646,14.211
	c12.793-1.893,28.921-43.134,37.458-12.793c6.646-2.364,6.646-7.593,15.156-6.646c11.401,1.444,3.811,4.753,3.811,11.401
	c3.783-0.473,5.201-3.335,8.063-5.229c5.201-2.837,4.255-0.474,9.955,0.474c8.064,0.945,7.118-5.674,14.212-5.674
	c7.59,0,10.428,6.619,8.063,12.32c-2.838,6.147-13.739,7.118-12.792,13.266c0.944,4.754,15.656,12.819-0.946,14.237
	c-4.753,0.473-10.899-2.836-15.655-2.836c-2.837-0.498-11.848-0.973-13.266,1.418c-3.336,4.727,13.266,2.837,3.311,9.009
	c-7.592,4.256-19.912-3.335-27.504-0.97c4.257,5.226,2.364,9.98-5.699,5.7c-6.619-3.783-6.619-9.955-15.63-9.013
	c-5.228,0.475-13.29,3.313-17.073,6.647c-5.229,4.727-3.796,7.119-11.86,7.59c-11.847,0.476-20.857-0.943-19.438-14.237
	c0.945-7.59,0-26.557,4.741-31.756L165.004,278.854z"/>
<linearGradient id="ian_symbols_f11f932b313f44b449aeb9d3f2bcd9ec" gradientUnits="userSpaceOnUse" x1="143.186" y1="134.5283" x2="171.1851" y2="134.5283" gradientTransform="matrix(1 0 0 -1 0 498.9941)">
	<stop  offset="0" style="stop-color:#211D12"/>
	<stop  offset="0.0984" style="stop-color:#2D281B"/>
	<stop  offset="0.2795" style="stop-color:#4F483B"/>
	<stop  offset="0.5217" style="stop-color:#867E6D"/>
	<stop  offset="0.5482" style="stop-color:#8B8372"/>
	<stop  offset="1" style="stop-color:#211D12"/>
</linearGradient>
<path fill="url(#ian_symbols_f11f932b313f44b449aeb9d3f2bcd9ec)" d="M148.402,497.981c1.313-2.655,0.683-6.147,0.986-9.091c0.419-4.308,0.367-8.695,0.486-13.003
	c0.17-5.646,2.193-10.532,2.442-16.128c0.224-4.938-0.236-9.902-0.013-14.841c0.617-13.896-0.42-27.792,0.263-41.477
	c0.762-15.421-0.894-30.813-1.746-46.208c-0.815-14.867,0.13-29.84-1.012-44.681c-0.485-6.385-0.342-12.794-0.958-19.098
	c-0.224-2.182-0.119-4.571-0.421-6.751c-0.328-2.444-5.136-46.325-5.148-49.384c-0.013-2.01-0.329-4.781,0.275-6.699
	c0.866-2.758,2.115-1.392,4.859-1.051c2.102,0.25,4.268,0.198,6.423,0.301c3.021,0.118,6.121,0.276,9.155,0.46
	c1.09,7.197-0.053,14.973,1.011,22.315c1.024,7,1.115,13.725,1.471,20.87c0.368,7.537,0.88,14.999,0.985,22.485
	c0.026,2.602,0,5.2,0.249,7.75c0.447,4.753-0.512,9.089-0.5,13.843c0.014,15.891,0.329,33.044-1.221,48.753
	c-0.591,6.043-0.04,12.504,0.236,18.548c0.132,2.837,0.342,5.279,0.75,8.063c0.695,4.782-0.04,9.954,0.026,14.79
	c0.079,5.701,0.33,11.427,1.156,17.101c1.417,9.823,0.406,20.331,0.774,30.262c0.315,8.693-0.92,17.938,0.71,26.425
	c0.643,3.31,1.195,6.199,1.234,9.612c0.026,2.653,1.246,6.122-1.327,7.329c-2.534,1.209-6.948,0.134-9.707,0.238
	c-3.729,0.103-8.262,2.679-11.689,0.234L148.402,497.981z"/>
<linearGradient id="ian_symbols_5871bf27df8edaa481a0bf77bff15f52" gradientUnits="userSpaceOnUse" x1="137.0625" y1="135.4053" x2="124.7334" y2="106.9536" gradientTransform="matrix(1 0 0 -1 0 498.9941)">
	<stop  offset="0" style="stop-color:#BFC99C"/>
	<stop  offset="0.5812" style="stop-color:#92AA6B"/>
	<stop  offset="1" style="stop-color:#76974C"/>
</linearGradient>
<path fill="url(#ian_symbols_5871bf27df8edaa481a0bf77bff15f52)" d="M150.78,367.508c-6.974-0.578-8.497-9.536-16.877-6.174c-2.956,1.184-4.768,3.232-8.721,2.863
	c-3.152-0.288-5.596-1.393-9.115-1.313c-8.603,0.158-9.01,4.15-12.833,9.721c-1.996,2.916-4.964,2.074-6.883,4.49
	c-1.917,2.445-0.38,7.252,3.152,7.095c1.196,4.516-1.47,9.22,5.767,8.01c1.93-0.34,3.545-2.467,5.583-2.991
	c2.312-0.633,5.174-0.369,7.696-0.369c4.742,0,15-0.973,9.509,6.068c-2.955,3.781-8.589,4.912-8.498,10.481
	c4.583,1.023,3.099-2.154,5.596-3.494c3.007-1.629,6.002-0.369,5.306,3.966c4.321,0.263,5.885-5.358,6.659-8.878
	c3.573-1.525,6.975,1.05,10.744,0.34c0.171-3.23-0.787-8.642,2.549-9.034c2.653-0.343,6.777,3.229,9.272,3.833
	c4.006-10.19-7.434-15.233-8.431-23.668"/>
<linearGradient id="ian_symbols_baf02674b6f69c647911cc5007ee883f" gradientUnits="userSpaceOnUse" x1="84.8081" y1="169.8022" x2="84.1339" y2="90.2349" gradientTransform="matrix(1 0 0 -1 0 498.9941)">
	<stop  offset="0" style="stop-color:#BFC99C"/>
	<stop  offset="0.0639" style="stop-color:#AAB78A"/>
	<stop  offset="0.1835" style="stop-color:#879B6C"/>
	<stop  offset="0.3109" style="stop-color:#6A8455"/>
	<stop  offset="0.4465" style="stop-color:#557242"/>
	<stop  offset="0.5943" style="stop-color:#456534"/>
	<stop  offset="0.7632" style="stop-color:#3C5D2D"/>
	<stop  offset="1" style="stop-color:#395B2B"/>
</linearGradient>
<path fill="url(#ian_symbols_baf02674b6f69c647911cc5007ee883f)" d="M68.285,342.84c17.061-5.199,37.931-17.048,56.897-8.51c-0.473,0.945-0.473,1.417-0.946,2.363
	c-4.741-0.946-12.805-0.946-13.75,4.254c2.837,0.946,14.697,6.173,8.523,11.374c-5.687,5.229-9.483-8.037-15.642,0.473
	c-1.893,2.864,1.419,5.229-2.85,8.065c-2.364,2.391-7.106,0.473-9.483,4.282c-2.837,4.255,0,10.43,0.473,15.157
	c0.486,12.818-10.429,15.655-21.802,11.871c-6.173-1.916-9.956-4.753-17.075-5.699c-6.16-0.943-11.374-4.728-7.106-12.318
	c6.16-9.484,15.643-4.282,14.225-17.549C58.803,346.65,59.748,348.067,68.285,342.84"/>
<linearGradient id="ian_symbols_c0716b6a3976fcb42dff1ddbb42af405" gradientUnits="userSpaceOnUse" x1="15.6919" y1="136.6074" x2="86.9858" y2="136.6074" gradientTransform="matrix(1 0 0 -1 0 498.9941)">
	<stop  offset="0" style="stop-color:#BFC99C"/>
	<stop  offset="0.5812" style="stop-color:#92AA6B"/>
	<stop  offset="1" style="stop-color:#76974C"/>
</linearGradient>
<path fill="url(#ian_symbols_c0716b6a3976fcb42dff1ddbb42af405)" d="M16.116,371.315c3.323-4.755,10.915-11.872,16.602-12.819c4.742-0.473,10.429,2.365,16.115,1.419
	c12.806-1.419,20.871-16.574,32.717-7.119c14.709,10.928-4.269,8.536-11.846,9.98c-7.592,1.419-7.592,7.094-14.698,10.432
	c-5.228,2.363-9.482,1.418-15.182,0c-5.214-1.42-8.524-1.894-13.752-0.946c-4.269,0.474-8.002,6.283-10.379-0.363L16.116,371.315z"
	/>
<linearGradient id="ian_symbols_931a4dafd3ea04b4191bcae2d8248fa2" gradientUnits="userSpaceOnUse" x1="213.2788" y1="180.2505" x2="215.694" y2="144.0231" gradientTransform="matrix(1 0 0 -1 0 498.9941)">
	<stop  offset="0" style="stop-color:#BFC99C"/>
	<stop  offset="0.175" style="stop-color:#A6B587"/>
	<stop  offset="0.7402" style="stop-color:#587345"/>
	<stop  offset="1" style="stop-color:#395B2B"/>
</linearGradient>
<path fill="url(#ian_symbols_931a4dafd3ea04b4191bcae2d8248fa2)" d="M182.257,357.643c-24.181,3.781-7.771-16.693-0.18-25.704c5.701-7.119,5.701-10.428,13.267-8.063
	c-0.473,0,7.592,3.334,7.119,3.334c2.862,1.891,2.862,4.256,6.173,6.146c5.7,2.391,10.429-1.891,15.155-1.418
	c2.864,0.474,4.283,3.337,7.12,3.809c3.336,0,6.645-2.862,9.009-4.753c4.283-2.837,9.482-11.373,15.184-9.956
	c7.593,1.42,4.255,8.538,1.419,12.819c-2.365,3.783-3.784,4.256-5.702,8.038c-1.418,3.336-0.473,6.172-3.782,8.063
	c-4.255,3.337-17.073,0.946-22.276,0.946c-14.709,0-26.557,4.281-40.794,6.172L182.257,357.643z"/>
<linearGradient id="ian_symbols_753e56593eebdff4755d49b076d384d9" gradientUnits="userSpaceOnUse" x1="249.9692" y1="208.2109" x2="248.0728" y2="108.1734" gradientTransform="matrix(1 0 0 -1 0 498.9941)">
	<stop  offset="0" style="stop-color:#BFC99C"/>
	<stop  offset="0.0569" style="stop-color:#B5C093"/>
	<stop  offset="0.373" style="stop-color:#809566"/>
	<stop  offset="0.6468" style="stop-color:#5A7646"/>
	<stop  offset="0.8649" style="stop-color:#426231"/>
	<stop  offset="1" style="stop-color:#395B2B"/>
</linearGradient>
<path fill="url(#ian_symbols_753e56593eebdff4755d49b076d384d9)" d="M166.436,364.196c10.901-11.4,22.29-20.383,38.417-21.356c13.738-0.473,27.004,0.501,40.768,0.501
	c6.646,0,9.957-0.501,15.156-5.228c2.864-1.893,4.755-3.313,6.646-6.646c1.893-2.838,1.893-6.646,3.337-9.483
	c3.782-5.674,8.511-4.254,14.211-6.145c10.428-2.865,6.645-8.065,12.319-14.239c2.392-3.311,7.119-4.281,9.982-5.699
	c3.31-1.894,6.146-3.784,9.456-5.673c4.754,6.145-9.456,12.318-2.364,12.792c5.699,0,8.536-6.175,15.182-3.784
	c7.593,2.363,5.7,5.202,1.892,8.536c-2.363,1.894-4.728-0.471-6.172,3.313c-0.945,1.89,1.917,6.644,2.863,8.537
	c6.146,18.964-13.292-0.476-20.385,9.955c-5.7,8.064,27.005,14.237,11.374,24.192c-4.282,2.363-10.9-0.973-15.656,0.473
	c-10.429,2.837-5.672,8.536-5.199,15.631c0.473,5.7-3.337,14.71-10.929,11.4c-6.147-2.863-5.675-13.765-12.792-16.13
	c-6.646-2.365-11.374,2.836-15.656,7.119c-8.064,7.091-6.62,6.619-2.837,15.629c2.364,5.227,2.837,10.43-4.754,9.011
	c-6.147-1.419-10.43-10.901-15.629-14.686c-11.874-8.536-27.977-19.438-43.632-10.9c-7.106,3.783-10.429,10.9-19.912,10.43
	c-9.955-0.474-9.955-8.064-7.118-16.602L166.436,364.196z"/>
<linearGradient id="ian_symbols_d981551a4be39864f96ac28c567ecb42" gradientUnits="userSpaceOnUse" x1="286.2095" y1="162.5083" x2="281.5685" y2="136.6514" gradientTransform="matrix(1 0 0 -1 0 498.9941)">
	<stop  offset="0" style="stop-color:#BFC99C"/>
	<stop  offset="0.5812" style="stop-color:#92AA6B"/>
	<stop  offset="1" style="stop-color:#76974C"/>
</linearGradient>
<path fill="url(#ian_symbols_d981551a4be39864f96ac28c567ecb42)" d="M259.359,350.434c6.646-3.312,7.592-9.955,13.765-11.849c3.311-1.418,10.43,0.476,13.739,0.476
	c4.754,0,10.428-0.946,12.819,2.835c0.944,1.918-1.418,6.172-0.945,7.592c1.891,3.309,7.092,2.364,9.481,6.172
	c3.311,6.646-2.863,8.537-7.592,6.175c-6.646-2.393-7.592-8.538-15.656-8.065c-4.255,0.472-28.447,10.901-28.92,0.472
	c0-1.917,0.72-2.138,2.138-3.082L259.359,350.434z"/>
<linearGradient id="ian_symbols_70f405bb1f4a8bb4b97ad005676e05f4" gradientUnits="userSpaceOnUse" x1="250.4878" y1="137.3398" x2="250.4623" y2="122.6168" gradientTransform="matrix(1 0 0 -1 0 498.9941)">
	<stop  offset="0" style="stop-color:#BFC99C"/>
	<stop  offset="0.5812" style="stop-color:#92AA6B"/>
	<stop  offset="1" style="stop-color:#76974C"/>
</linearGradient>
<path fill="url(#ian_symbols_70f405bb1f4a8bb4b97ad005676e05f4)" d="M223.108,365.035c4.755-1.418,10.193-1.783,15.395-1.783c6.646,0.473,13.266-1.918,19.438-1.918
	c5.227,0.5,8.064,2.863,11.874,5.7c4.727,3.311,9.953,4.756,8.51,12.32c-5.201,0-9.482-3.309-15.157-2.363
	c-4.753,0.473-8.063,1.419-12.819,0.943c-10.901-0.472-22.275-2.362-27.975-12.32L223.108,365.035z"/>
<linearGradient id="ian_symbols_510d7309ac03388479fc0321673ab6c4" gradientUnits="userSpaceOnUse" x1="59.6187" y1="209.8916" x2="70.2641" y2="157.7716" gradientTransform="matrix(1 0 0 -1 0 498.9941)">
	<stop  offset="0" style="stop-color:#BFC99C"/>
	<stop  offset="0.0223" style="stop-color:#BAC697"/>
	<stop  offset="0.1651" style="stop-color:#A3B67E"/>
	<stop  offset="0.3204" style="stop-color:#8EA868"/>
	<stop  offset="0.4925" style="stop-color:#819E58"/>
	<stop  offset="0.6946" style="stop-color:#78994F"/>
	<stop  offset="1" style="stop-color:#76974C"/>
</linearGradient>
<path fill="url(#ian_symbols_510d7309ac03388479fc0321673ab6c4)" d="M41.634,316.143c1.739,1.778-3.229,3.95-2.757,12.015c0.473,11.846-2.85,12.321-10.429,20.857
	c6.16,2.364,13.751,0.944,17.548-5.201c2.836-4.282,0.946-11.401,3.783-16.131c4.269-6.171,8.537-1.889,14.711-2.862
	c7.579-0.944,8.997-4.728,13.278-9.956c3.783-5.199,4.269-3.78,11.375-5.199c8.064-1.418,6.16-2.837,9.956-9.483
	c2.376-4.281,13.278-9.954,7.591-13.293c-4.268-2.362-12.805,2.392-17.074,1.921c-12.333-0.947-17.547-8.538-28.922,1.891
	c-2.377,2.363-2.377,4.254-5.687,5.672c-1.904,0.946-5.228-0.945-7.592,0c-5.214,2.863-2.85,8.065-8.064,9.981
	c-6.633,1.894-19.912-6.646-23.234,3.312c-3.796,11.847,18.965,5.673,25.139,6.172L41.634,316.143z"/>
<linearGradient id="ian_symbols_3182041ee2eda9e43d5ddc8433a7f705" gradientUnits="userSpaceOnUse" x1="34.79" y1="235.8931" x2="36.199" y2="209.1241" gradientTransform="matrix(1 0 0 -1 0 498.9941)">
	<stop  offset="0" style="stop-color:#BFC99C"/>
	<stop  offset="0.0223" style="stop-color:#BAC697"/>
	<stop  offset="0.1651" style="stop-color:#A3B67E"/>
	<stop  offset="0.3204" style="stop-color:#8EA868"/>
	<stop  offset="0.4925" style="stop-color:#819E58"/>
	<stop  offset="0.6946" style="stop-color:#78994F"/>
	<stop  offset="1" style="stop-color:#76974C"/>
</linearGradient>
<path fill="url(#ian_symbols_3182041ee2eda9e43d5ddc8433a7f705)" d="M55.08,287.612c-9.483-9.482-19.999,4.978-28.05-3.561c-0.959-1.418-0.485-3.78-1.431-5.2
	c-1.891-1.918-4.269-2.391-6.16-3.81c-3.323-1.891-13.279-8.537-6.632-13.279c5.687-3.782,10.428,6.162,13.265,8.077
	c3.796,1.894,8.537,0.946,12.806,1.894c5.687,0.943,9.011,3.309,13.752,6.146c2.85,1.917,13.751,11.401,3.323,10.454L55.08,287.612z
	"/>
<linearGradient id="ian_symbols_57b8bedb50541774f1a2737fa9ad8fb2" gradientUnits="userSpaceOnUse" x1="232.1567" y1="303.6162" x2="234.0535" y2="241.9704" gradientTransform="matrix(1 0 0 -1 0 498.9941)">
	<stop  offset="0" style="stop-color:#BFC99C"/>
	<stop  offset="0.1189" style="stop-color:#A3B285"/>
	<stop  offset="0.3019" style="stop-color:#7D9365"/>
	<stop  offset="0.4841" style="stop-color:#5F7B4B"/>
	<stop  offset="0.6629" style="stop-color:#4B6938"/>
	<stop  offset="0.8368" style="stop-color:#3D5F2F"/>
	<stop  offset="1" style="stop-color:#395B2B"/>
</linearGradient>
<path fill="url(#ian_symbols_57b8bedb50541774f1a2737fa9ad8fb2)" d="M166.909,270.313c5.687-2.389,10.429,0.475,16.115,0.946c2.851,0.474,6.646,0.474,8.537-1.891
	c1.893-1.919-0.473-7.118,0.946-8.077c6.646-7.105,12.346,6.158,16.129,8.077c10.9,6.146,4.727-4.282,5.7-8.077
	c1.418-6.634,13.736-3.312,19.911-7.579c2.836-2.377,9.956-10.915,14.683-5.214c2.838,3.785-5.2,14.697,4.283,16.115
	c6.619,0.476,4.255-12.33,13.737-5.686c3.81,2.364,3.337,7.104,8.537,9.47c2.364-3.309-0.944-5.673,0.474-8.523
	c2.836-5.687,2.364-1.892,7.118-2.378c7.593-0.472,14.211-3.309,13.74-12.792c-4.729-0.474-18.021,0.473-13.266-9.483
	c2.363-5.227,6.645-1.432,10.898-3.322c3.338-1.905,4.284-5.687,5.702-9.484c0.945-4.268,4.729-15.168,1.892-18.965
	c-4.755-4.742-16.13,2.364-21.33,1.891c0-10.902-22.301-10.902-27.976-4.742c-4.281,4.268-1.918,13.279-5.7,18.966
	c-1.891,2.85-4.255,7.119-8.064,7.592c-5.201,0.473-2.838-2.364-5.674-4.269c-6.173-5.215-8.064-5.215-15.655-0.473
	c-9.483,5.215-5.702,0.473-13.765-2.85c-8.538-3.31-7.565,4.268-10.901,8.064c-3.782,5.214-7.117,0.621-14.225,0
	c-25.894-2.262-11.375,23.234-14.224,39.821L166.909,270.313z"/>
<linearGradient id="ian_symbols_605b0280b6c46214edc25469b5b7e180" gradientUnits="userSpaceOnUse" x1="226.3062" y1="339.2197" x2="238.7504" y2="282.5257" gradientTransform="matrix(1 0 0 -1 0 498.9941)">
	<stop  offset="0" style="stop-color:#BFC99C"/>
	<stop  offset="0.0569" style="stop-color:#B5C093"/>
	<stop  offset="0.373" style="stop-color:#809566"/>
	<stop  offset="0.6468" style="stop-color:#5A7646"/>
	<stop  offset="0.8649" style="stop-color:#426231"/>
	<stop  offset="1" style="stop-color:#395B2B"/>
</linearGradient>
<path fill="url(#ian_symbols_605b0280b6c46214edc25469b5b7e180)" d="M157.426,228.574c5.744-11.012,3.746-30.706,18.493-31.285c4.74,5.215,11.373,4.268,16.116,0
	c5.699-5.227,4.753-9.969,5.699-16.601c0.473-2.85-0.473-7.106,2.836-8.537c5.229-1.892,3.784,3.322,6.647,4.74
	c6.146,3.797,10.9,2.851,15.155-3.309c1.918-2.377,3.336-7.592,6.174-9.497c3.31-2.364,5.7,0,9.482-0.473
	c7.118-0.472,8.537-5.688,14.709-8.051c6.147-1.905,11.849,0.945,10.901,7.579c-0.473,3.795-11.873,12.805-3.31,14.224
	c4.255,0.473,11.848-8.537,13.266-11.846c1.418-3.323-0.473-5.214,2.836-8.064c2.838-1.892,7.592,0,9.482-1.892
	c3.81-2.85,0.946-9.482,4.282-12.333c3.783-4.268,10.901-2.377,15.63-3.322c1.444,4.268,0.472,6.645-0.474,10.427
	c-0.474,3.796-0.945,7.592-0.945,12.334c0,1.419,0,7.118-0.946,8.065c-2.836,3.323-7.592-0.473-9.011,4.269
	c3.338,0.472,15.185,3.309,9.484,9.956c-3.311,3.323-12.793-1.905-16.602,2.85c-1.891,2.837,1.418,6.632-0.473,9.483
	c-0.473,0.473-9.483,4.268-10.429,4.742c-5.202,1.419-10.901-0.959-16.103,0.473c-9.036,1.891-4.754,5.687-8.064,11.374
	c-4.282,5.687-10.455,3.323-15.655,2.85c-4.282-0.473-10.43-1.419-14.238-0.473c-6.619,1.892-8.037,8.538-12.792,11.375
	c-7.592,3.796-18.966,0.945-27.03,3.796C174.974,233.788,163.113,236.639,157.426,228.574"/>
<linearGradient id="ian_symbols_790d8c54cc8de43409369b6fa9b29ead" gradientUnits="userSpaceOnUse" x1="101.2695" y1="211.5601" x2="117.4289" y2="175.5458" gradientTransform="matrix(1 0 0 -1 0 498.9941)">
	<stop  offset="0" style="stop-color:#BFC99C"/>
	<stop  offset="0.0519" style="stop-color:#B2BD90"/>
	<stop  offset="0.2252" style="stop-color:#869A6C"/>
	<stop  offset="0.3932" style="stop-color:#647F50"/>
	<stop  offset="0.5524" style="stop-color:#4D6B3C"/>
	<stop  offset="0.6991" style="stop-color:#3E5F2F"/>
	<stop  offset="0.8215" style="stop-color:#395B2B"/>
</linearGradient>
<path fill="url(#ian_symbols_790d8c54cc8de43409369b6fa9b29ead)" d="M148.415,285.471c-5.214-4.729-10.9-0.944-15.655-0.473c-3.31,0.945-0.946,2.364-5.688,0.473
	c-3.795-1.419-3.795-5.199-8.537-4.729c-4.269,0-3.796,2.838-6.633,4.256c-2.85,1.418-4.742,1.891-8.065,2.364
	c-5.214,0.971-9.01,0-10.901,5.227c-1.432,4.729,4.268,10.43,0.946,15.657c-4.268,6.146-13.278,2.363-16.601,9.009
	c-0.945,1.891,0,5.674-0.473,7.564c-0.473,1.443-4.256,6.175-3.783,6.646c1.418,9.011,10.429-1.891,12.319-4.256
	c8.065-10.9,9.957,1.418,20.871,0c9.482-1.891,6.16-13.765,14.696-17.073c6.633-2.365,15.17,0,20.856-3.783
	c4.742-3.335,11.388-15.184,7.119-19.938"/>
<linearGradient id="ian_symbols_532d5da15a85dd04ed75cbdc1fd8bccd" gradientUnits="userSpaceOnUse" x1="72.4458" y1="297.8389" x2="62.0883" y2="241.3661" gradientTransform="matrix(1 0 0 -1 0 498.9941)">
	<stop  offset="0.1091" style="stop-color:#BFC99C"/>
	<stop  offset="0.3405" style="stop-color:#94A678"/>
	<stop  offset="0.6424" style="stop-color:#647E4F"/>
	<stop  offset="0.8718" style="stop-color:#456534"/>
	<stop  offset="1" style="stop-color:#395B2B"/>
</linearGradient>
<path fill="url(#ian_symbols_532d5da15a85dd04ed75cbdc1fd8bccd)" d="M111.43,267.925c-7.592-2.836-18.494-22.276-27.975-18.008c-5.688,2.364-0.946,10.429-9.483,9.481
	c-3.323-0.472-3.796-2.85-6.173-4.268c-5.214-2.363-3.309-0.944-8.524-0.474c-15.656,0.946-19.451-11.387-30.826-18.965
	c-4.741-2.85-12.806-6.173-13.751-12.333c-0.472-5.214,4.269-8.538,2.85-14.696c-0.959-2.85-3.796-5.687-4.741-8.538
	c6.16-2.364,12.32,1.905,15.169,6.647c3.323,5.214,1.419,7.579,9.956,7.579c7.119,0,9.011-2.837,14.698,2.85
	c5.687,6.16,5.214,9.483,14.696,9.483c4.742,0,10.915-1.891,15.184-0.472c4.728,1.89,11.847,6.159,16.116,8.537
	c7.592,3.783,3.796,8.051,9.01,13.266c3.796,3.795,16.129,3.323,13.751,12.332c-0.946,3.325-5.687,5.214-8.064,7.104L111.43,267.925
	z"/>
<linearGradient id="ian_symbols_12e9e09357496904a9e40cd9b89a5bcc" gradientUnits="userSpaceOnUse" x1="106.3013" y1="356.2461" x2="104.9046" y2="264.0651" gradientTransform="matrix(1 0 0 -1 0 498.9941)">
	<stop  offset="0" style="stop-color:#BFC99C"/>
	<stop  offset="0.3678" style="stop-color:#889C6E"/>
	<stop  offset="0.7947" style="stop-color:#506E3E"/>
	<stop  offset="1" style="stop-color:#395B2B"/>
</linearGradient>
<path fill="url(#ian_symbols_12e9e09357496904a9e40cd9b89a5bcc)" d="M137.828,238.897c-6.276-9.188-17.861,1.537-30.193-6.054c-5.687-3.783-8.537-11.374-14.225-16.116
	c-5.687-5.214-11.86-9.01-19.438-11.387c-5.214-1.891-14.225-2.364-17.074-7.578c-4.741-7.592,3.795-9.011,7.119-14.225
	c9.469-14.709-17.548-22.288-15.656-36.041c0.946-4.741,8.064-12.332,13.278-11.387c4.742,0.946,1.892,2.378,4.742,4.742
	c3.796,3.323,3.796,3.323,9.482,4.268c6.646,0.958,10.901-0.945,13.279,7.118c1.418,4.742-0.473,10.428,0.945,15.17
	c1.904,7.592,5.215,10.429,12.333,10.901c4.742,0,12.806-4.255,16.116-0.945c3.323,2.85,0.959,10.915,2.85,14.698
	c2.377,6.173,9.01,9.969,15.169,10.915c4.269,0.472,9.957-1.42,12.806,1.418c1.892,0.945,1.892,6.646,3.323,8.537
	c2.364,2.85,6.16,3.794,8.052,8.064c8.064,16.588-7.86,15.051-17.357,17.902C143.379,238.897,139.08,240.604,137.828,238.897z"/>
<linearGradient id="ian_symbols_87c6691a68f39464fd155e67d831f5cc" gradientUnits="userSpaceOnUse" x1="216.228" y1="298.2363" x2="217.6507" y2="269.3109" gradientTransform="matrix(1 0 0 -1 0 498.9941)">
	<stop  offset="0" style="stop-color:#BFC99C"/>
	<stop  offset="0.3508" style="stop-color:#A9BA84"/>
	<stop  offset="1" style="stop-color:#76974C"/>
</linearGradient>
<path fill="url(#ian_symbols_87c6691a68f39464fd155e67d831f5cc)" d="M160.08,241.314c5.058-4.194,10.624,1.484,16.312-0.407c7.105-2.377,4.741-8.538,7.578-13.751
	c3.322-7.119,8.065-8.064,14.237-9.011c8.537-1.419,9.483-2.364,14.684-9.01c9.957-11.847,33.203-17.074,45.524-5.687
	c5.227,4.268,8.536,10.902,13.765,15.644c2.363,2.85,5.672,1.419,4.254,6.646c-0.945,2.837-3.783,4.255-6.619,4.255
	c-6.173-0.473-10.454-12.793-16.13-3.31c-2.864,5.215,3.311,14.697-4.282,17.062c-8.064,2.377-15.155-11.375-22.275-13.751
	c-5.228-1.892-15.656-0.932-14.71,6.646c-4.255,0.945-8.537,0-12.32,1.892c-5.228,2.85-8.063,7.591-14.225,9.968
	c-7.591,2.837-31.298,10.43-26.083-6.646L160.08,241.314z"/>
<linearGradient id="ian_symbols_fecd14bd2ed6da74059937d5fb9d074d" gradientUnits="userSpaceOnUse" x1="173.0884" y1="209.7612" x2="171.8821" y2="184.6745" gradientTransform="matrix(1 0 0 -1 0 498.9941)">
	<stop  offset="0" style="stop-color:#BFC99C"/>
	<stop  offset="0.5812" style="stop-color:#92AA6B"/>
	<stop  offset="1" style="stop-color:#76974C"/>
</linearGradient>
<path fill="url(#ian_symbols_fecd14bd2ed6da74059937d5fb9d074d)" d="M156.953,319.621c-9.011-13.74-18.02,15.18-27.03-3.784c-2.377-4.753,0.474-3.81-4.269-5.7
	c-3.323-1.419-4.741,3.309-8.063-1.891c-4.269-7.595,2.85-9.958,7.592-13.766c3.31,5.226,2.836,13.291,10.9,6.171
	c6.633-6.171,4.742-10.899,14.697-7.59c4.268,1.891,1.433,3.781,7.119,1.891c3.796-0.945,5.214-4.728,8.064-6.145
	c7.105-3.339,8.051,0.943,14.211,2.362c4.268,0.946,9.969-0.472,13.75,0.475c7.119,1.418,9.956,0.472,17.548-3.312
	c2.864-1.917,10.429-6.645,14.71-3.808c4.729,2.837,2.839,13.29,0,17.546c-4.281,6.175-9.481,3.81-16.601,5.229
	c-8.065,1.417-9.483,8.536-17.548,7.563c-6.633-0.943-11.374-5.199-18.021-4.254c-7.578,0.945-9.937,11.529-16.57,9.165
	L156.953,319.621z"/>
<linearGradient id="ian_symbols_339f6270813933e489636a84d85ac5d8" gradientUnits="userSpaceOnUse" x1="133.5483" y1="258.4375" x2="129.7538" y2="225.7105" gradientTransform="matrix(1 0 0 -1 0 498.9941)">
	<stop  offset="0" style="stop-color:#BFC99C"/>
	<stop  offset="0.5812" style="stop-color:#92AA6B"/>
	<stop  offset="1" style="stop-color:#76974C"/>
</linearGradient>
<path fill="url(#ian_symbols_339f6270813933e489636a84d85ac5d8)" d="M139.406,273.152c0-1.893,1.419-4.257,2.837-5.702c4.742,1.445,11.86,10.43,17.074,5.228
	c4.742-6.171-4.268-14.697-8.537-17.547c-6.159-4.268-7.579-3.795-11.846-10.428c-2.378-4.268-7.119-10.442-13.279-8.537
	c-7.118,2.364-2.85,9.482-5.214,13.751c-2.85,5.214-7.592,1.892-10.428,9.011c-1.905,5.214-0.959,7.104-5.228,10.913
	c-4.742,4.256-10.429,7.567,0.473,9.484c9.01,1.417,9.482-5.701,15.656-8.065c7.105-2.364,10.901,5.674,18.02,2.364L139.406,273.152
	z"/>
<linearGradient id="ian_symbols_e2df4918e206c08495cde2b94c168e83" gradientUnits="userSpaceOnUse" x1="128.4272" y1="451.0391" x2="146.8452" y2="379.9953" gradientTransform="matrix(0.9888 0.1491 0.1491 -0.9888 -68.9863 477.311)">
	<stop  offset="0" style="stop-color:#BFC99C"/>
	<stop  offset="0.3678" style="stop-color:#889C6E"/>
	<stop  offset="0.7947" style="stop-color:#506E3E"/>
	<stop  offset="1" style="stop-color:#395B2B"/>
</linearGradient>
<path fill="url(#ian_symbols_e2df4918e206c08495cde2b94c168e83)" d="M150.15,125.104c-2.771-2.535-6.896-3.152-9.759-5.162c-4.596-4.373-4.19-10.639-7.762-14.854
	c-8.104-9.128-18.743-4.938-17.442-20.542c0.736-8.314-4.204-18.453-4.505-26.925c0.04-14.21-18.019-16.969-11.321-21.789
	c5.727-6.514,11.781-8.236,14.146,0.552c1.642,6.567,2.325,8.76,8.748,11.847c5.241,2.521,11.688-7.724,15.078,1.221
	c1.524,3.914-2.272,8.078-2.299,11.769c-0.053,7.356,0.92,4.347,6.121,8.288c13.252,9.904,1.918,18.716,6.908,31.048
	c2.746,6.213,8.327,7.579,9.969,14.146c0.774,5.384-0.313,13.246-7.287,10.607L150.15,125.104z"/>
<linearGradient id="ian_symbols_36ed156676e36894398cfca892b75fec" gradientUnits="userSpaceOnUse" x1="103.8228" y1="429.6846" x2="110.4609" y2="332.0079" gradientTransform="matrix(1 0 0 -1 0 498.9941)">
	<stop  offset="0" style="stop-color:#BFC99C"/>
	<stop  offset="0.3678" style="stop-color:#889C6E"/>
	<stop  offset="0.7947" style="stop-color:#506E3E"/>
	<stop  offset="1" style="stop-color:#395B2B"/>
</linearGradient>
<path fill="url(#ian_symbols_36ed156676e36894398cfca892b75fec)" d="M165.004,200.599c-4.879,0.124-14.697-3.31-19.438-8.537c-4.741-4.256-4.741-9.956-8.052-14.225
	c-3.323-5.215-11.387-5.687-16.602-9.957c-5.687-4.741-6.173-8.537-6.173-15.643c0-17.074-13.266-11.387-21.802-21.342
	c-1.904-2.364-2.377-5.687-3.796-8.052c-2.837-4.742-0.946-3.323-5.687-4.742c-5.688-1.904-11.387-0.485-17.548-3.795
	c-2.377-1.432-5.215-2.85-7.105-4.742c-2.851-2.85-1.905-3.795-3.796-6.646c-2.376-4.268-9.01-8.537-9.01-14.224
	c0.473-7.107,7.106-6.16,12.806-4.269c7.105,2.376,7.578,5.687,8.05,12.333c4.742-1.419,11.387,1.892,15.656,0.473
	c12.792-4.268-2.377-6.16-5.228-8.065c-9.483-6.632,3.323-6.632,5.701-10.9c1.891-4.742-1.432-4.268-3.324-4.742
	c-3.323-0.945-3.323,3.324-9.009,0.473c-2.85-1.419-5.214-4.268-7.592-5.687c-3.783-1.905-9.01-1.905-6.632-7.12
	c1.891-4.268,11.86-4.741,15.644-6.159c9.482-4.742,23.706-9.483,31.771,0c3.796,4.741,4.742,10.901,11.86,13.75
	c8.064,3.31,11.374-1.904,15.643,6.633c1.419,2.377,0.945,5.7,3.323,7.591c1.891,1.891,6.633,0.473,9.483,3.323
	c5.687,4.742,2.837,8.537,1.892,14.696c-1.892,11.847-1.418,27.975,5.7,37.931c4.254,6.16,11.373,3.796,15.169,9.483
	c3.795,5.687,0.946,14.697,0,20.857c-0.473,5.227-3.046,12.076-4.742,16.129C160.469,189.479,169.884,200.476,165.004,200.599z"/>
<linearGradient id="ian_symbols_1eec5e7bfea635a4510b50c522ea00bf" gradientUnits="userSpaceOnUse" x1="147.2832" y1="309.3623" x2="101.0197" y2="362.6614" gradientTransform="matrix(1 0 0 -1 0 498.9941)">
	<stop  offset="0" style="stop-color:#76974C"/>
	<stop  offset="0.1979" style="stop-color:#7B9A51"/>
	<stop  offset="0.4462" style="stop-color:#89A461"/>
	<stop  offset="0.7213" style="stop-color:#A1B47A"/>
	<stop  offset="1" style="stop-color:#BFC99C"/>
</linearGradient>
<path fill="url(#ian_symbols_1eec5e7bfea635a4510b50c522ea00bf)" d="M113.847,161.971c-2.364,0-28.737-0.945-20.082-10.428c1.577-1.905,5.911,1.892,7.881,0.473
	c3.533-1.892,2.364-4.742,3.139-8.064c1.182-4.741,0.788-9.956,7.092-7.105c5.897,2.837,3.139,9.956,9.443,13.751
	c6.303,3.795,9.442-1.905,15.353-0.473c6.685,0.945,4.321,4.741,5.108,10.901c1.196,8.063,4.729,9.483,9.852,13.75
	c4.321,3.796,12.201,16.116,0.789,14.697c-4.728-0.472-11.427-10.9-14.96-14.697c-3.546-3.321-8.668-10.428-12.989-11.861
	c-5.123-1.891-9.05,3.323-13.778,0.946"/>
<path fill="#395B2B" d="M113.847,161.919c-5.438-0.013-11.243-0.618-16.417-2.299c-2.194-0.722-5.7-2.167-5.307-5.056
	c0.209-1.498,1.576-3.586,3.205-3.495c1.852,0.105,3.729,1.721,5.608,1.3c1.996-0.46,3.152-2.365,3.428-4.242
	c0.184-1.17,0.171-2.352,0.355-3.521c0.197-1.208,0.512-2.416,0.75-3.624c0.368-1.931,0.814-4.688,3.23-4.887
	c2.746-0.223,5.371,1.918,6.541,4.216c1.024,1.998,1.405,4.257,2.364,6.278c1.025,2.141,2.85,3.875,5.056,4.755
	c2.208,0.88,4.282,0.683,6.502-0.039c2.508-0.828,4.807-1.72,7.499-1.13c2.181,0.486,4.216,0.971,4.728,3.454
	c0.419,2.087,0.08,4.334,0.236,6.448c0.197,2.456,0.827,4.938,2.009,7.092c0.984,1.813,2.482,3.245,4.058,4.532
	c1.642,1.353,3.428,2.561,4.912,4.097c1.313,1.354,2.443,2.889,3.442,4.493c1.419,2.297,4.085,7.46,0.25,8.917
	c-1.813,0.683-4.243,0.395-5.924-0.525c-1.983-1.09-3.612-2.863-5.108-4.531c-3.1-3.454-5.739-7.264-8.958-10.611
	c-1.878-1.944-3.612-4.006-5.49-5.95c-1.708-1.76-3.586-3.559-5.844-4.544c-2.075-0.906-4.178-0.631-6.278,0.026
	c-2.667,0.854-5.228,2.035-7.973,0.749c-0.065-0.039-0.132,0.066-0.052,0.092c2.128,1.012,4.216,0.59,6.358-0.131
	c2.744-0.932,5.293-1.759,8.117-0.54c2.482,1.077,4.492,3.271,6.318,5.189c1.878,1.983,3.625,4.085,5.568,6.015
	c3.375,3.337,5.924,7.46,9.182,10.916c2.679,2.81,5.858,5.188,9.942,4.018c2.968-0.853,2.338-4.189,1.432-6.383
	c-1.261-3.073-3.428-6.054-5.911-8.262c-1.759-1.563-3.729-2.85-5.451-4.464c-1.786-1.694-2.981-3.757-3.703-6.094
	c-0.787-2.601-0.867-5.267-0.854-7.946c0-1.405,0.065-3.152-0.854-4.321c-1.17-1.471-3.349-1.838-5.097-2.022
	c-2.338-0.237-4.413,0.564-6.579,1.299c-2.876,0.971-5.477,0.801-8.091-0.84c-2.416-1.51-3.559-4.005-4.414-6.619
	c-0.63-1.931-1.209-3.889-2.614-5.412c-1.249-1.366-3.665-2.601-5.557-2.312c-1.575,0.223-2.245,1.563-2.666,2.955
	c-0.616,2.075-1.076,4.414-1.326,6.567c-0.132,1.209-0.119,2.429-0.434,3.625c-0.368,1.418-1.799,2.93-3.31,3.125
	c-1.983,0.249-3.809-1.366-5.806-1.339c-1.261,0.026-2.167,1.642-2.627,2.653c-0.368,0.827-0.459,1.813-0.066,2.64
	c1.024,2.219,3.941,3.138,6.082,3.782c3.165,0.933,6.462,1.366,9.733,1.682c1.917,0.184,3.861,0.329,5.805,0.341
	C113.913,162.037,113.913,161.919,113.847,161.919L113.847,161.919z"/>
<linearGradient id="ian_symbols_a5d5e17b77380634f585dfa5d0c32963" gradientUnits="userSpaceOnUse" x1="122.646" y1="331.3721" x2="123.1201" y2="297.2397" gradientTransform="matrix(1 0 0 -1 0 498.9941)">
	<stop  offset="0" style="stop-color:#BFC99C"/>
	<stop  offset="0.3508" style="stop-color:#A9BA84"/>
	<stop  offset="1" style="stop-color:#76974C"/>
</linearGradient>
<path fill="url(#ian_symbols_a5d5e17b77380634f585dfa5d0c32963)" d="M89.645,177.395c4.742-5.214,5.185-12.835,13.248-11.404c7.592,0.945,9.956,9.482,17.075,11.374
	c7.106,1.419,10.901-5.213,18.02-5.213c11.374,0,9.956,7.591,13.266,14.697c2.376,6.172,7.119,10.441,11.86,14.224
	c4.742,3.323,9.955,5.214,8.537,11.861c-0.945,5.214-7.118,13.75-11.86,14.225c-5.214,0.473-16.589-6.646-18.966-11.375
	c-1.418-3.322,0-7.118-1.892-9.968c-1.419-3.783-9.01-11.375-12.806-12.321c-7.119-1.904-9.01,4.269-14.697,6.16
	c-2.85,0.945-7.592,0.945-10.442,0.472c-6.633-0.472-18.479-4.268-23.221-9.481c-6.173-5.687-3.323-4.742,1.891-7.106
	c2.85-1.432,3.796,0.945,6.16-1.432c0.486-0.473,3.956-2.713,3.956-3.187L89.645,177.395z"/>
<linearGradient id="ian_symbols_7f92a2abca2da654c15cd8d66f8489d1" gradientUnits="userSpaceOnUse" x1="182.356" y1="456.5723" x2="176.4567" y2="394.4839" gradientTransform="matrix(1 0 0 -1 0 498.9941)">
	<stop  offset="0" style="stop-color:#BFC99C"/>
	<stop  offset="0.3678" style="stop-color:#889C6E"/>
	<stop  offset="0.7947" style="stop-color:#506E3E"/>
	<stop  offset="1" style="stop-color:#395B2B"/>
</linearGradient>
<path fill="url(#ian_symbols_7f92a2abca2da654c15cd8d66f8489d1)" d="M149.188,94.379c5.293-2.64,6.544-10.726,6.544-16.335c0-4.295-1.654-9.587,3.966-11.242
	c7.264-1.983,12.884,11.571,17.179,0.657c1.983-4.624,0.985-9.574,6.279-11.559c3.966-1.327,8.247,1.327,12.214-0.657
	c6.936-3.638,13.24-12.229,18.834-16.851c6.961,8.261-8.59,9.903-10.244,16.181c-1.314,6.619,4.964,4.624,6.619,8.59
	c1.971,5.622-3.967,6.277-7.592,4.965c-0.683,2.968,0.657,10.244-1.338,12.228c-3.284,3.967-9.248-1.327-13.214,0.329
	c-3.625,1.655-4.623,8.262-6.278,10.901c-1.982,3.637-5.607,7.276-8.261,10.244c-5.608,6.605-13.87,3.31-21.802,5.279
	c-4.624,1.327-6.936,3.639-8.59-1.969c-1.326-3.639,0.329-9.259,4.624-10.245L149.188,94.379z"/>
<linearGradient id="ian_symbols_e61077dddd5fd904c1792886161a5727" gradientUnits="userSpaceOnUse" x1="229.5601" y1="430.0117" x2="228.1377" y2="366.0029" gradientTransform="matrix(1 0 0 -1 0 498.9941)">
	<stop  offset="0" style="stop-color:#BFC99C"/>
	<stop  offset="0.1944" style="stop-color:#B8C494"/>
	<stop  offset="0.4941" style="stop-color:#A5B880"/>
	<stop  offset="0.8598" style="stop-color:#84A15A"/>
	<stop  offset="1" style="stop-color:#76974C"/>
</linearGradient>
<path fill="url(#ian_symbols_e61077dddd5fd904c1792886161a5727)" d="M183.957,152.042c3.323-7.119,6.634-9.011,6.634-17.547c-0.473-4.269,0-10.902-2.838-14.698
	c-4.269-5.214-11.387-5.687-14.225-12.806c-3.795-10.428,4.256-25.125,16.117-24.18c8.063,0.473,25.138,18.493,28.447,0.945
	c1.419-7.105-5.201-9.009,5.228-11.374c10.43-2.377,17.074,3.784,18.02-9.968c0.473-4.268-1.917-10.429,2.364-13.752
	c1.893-1.891,14.211-2.837,17.073-1.419c7.592,3.323,4.255,9.957,6.646,14.697c2.364,5.7,8.038,4.269,12.792,9.011
	c4.255,4.742,8.537,11.86,1.892,15.655c-3.311,2.365-10.901,0.473-14.684,0.946c-18.991,2.85-5.229,19.91-13.292,28.921
	c-2.363,2.85-14.211,4.268-18.02,5.214c-8.537,2.377-8.064,3.323-13.265,9.482c-4.282,5.214-9.012,4.742-12.346,11.861
	c-3.783,7.579-5.674,9.956-14.212,12.32L183.957,152.042z"/>
<linearGradient id="ian_symbols_808038ec17987d0479f314a258e3c304" gradientUnits="userSpaceOnUse" x1="194.7485" y1="371.1797" x2="199.8292" y2="330.4153" gradientTransform="matrix(1 0 0 -1 0 498.9941)">
	<stop  offset="0" style="stop-color:#BFC99C"/>
	<stop  offset="0.5812" style="stop-color:#92AA6B"/>
	<stop  offset="1" style="stop-color:#76974C"/>
</linearGradient>
<path fill="url(#ian_symbols_808038ec17987d0479f314a258e3c304)" d="M152.863,156.246c-18.217,1.564-4.894-19.189,10.211-13.462c4.675,2.088,5.201,5.213,10.402,4.176
	c3.651-0.525,5.739-3.651,8.853-5.727c6.265-5.214,9.363-6.252,16.667-6.777c3.125-0.525,7.801,0.524,10.401-1.038
	c4.178-2.087,4.178-6.777,7.303-9.377c6.777-4.688,11.978,0.524,17.705,4.163c4.149,3.127,13.002,4.689,14.578,7.815
	c4.15,8.853-6.778,8.853-12.503,8.327c-9.378-1.038-11.979-4.676-18.23,4.688c-6.225,9.377-8.326,6.778-19.254,7.29
	c-14.58,0.524-29.685,13.541-43.737,0.524L152.863,156.246z"/>
<linearGradient id="ian_symbols_1f9559992bfcd364d1e3e2223e3d9510" gradientUnits="userSpaceOnUse" x1="168.6094" y1="393.9121" x2="169.1297" y2="374.651" gradientTransform="matrix(1 0 0 -1 0 498.9941)">
	<stop  offset="0" style="stop-color:#BFC99C"/>
	<stop  offset="0.1929" style="stop-color:#B9C596"/>
	<stop  offset="0.461" style="stop-color:#AABA85"/>
	<stop  offset="0.7717" style="stop-color:#8EA766"/>
	<stop  offset="1" style="stop-color:#76974C"/>
</linearGradient>
<path fill="url(#ian_symbols_1f9559992bfcd364d1e3e2223e3d9510)" d="M118.286,115.188c0.526-7.803,2.601-12.49,10.941-12.49c7.289,0,11.453,7.288,17.704,7.801
	c6.239,0.524,8.852-4.163,16.655-3.638c6.777,0.524,12.504,1.564,18.743,1.564c10.415,0,14.591-5.726,24.993-5.215
	c10.928,0,22.381,8.341,6.778,11.466c-11.979,2.601-13.555-3.651-20.831,7.29c-2.075,3.125,1.051,3.638-3.651,5.727
	c-4.163,1.563-7.289-1.563-10.402-2.601c-7.289-3.651-11.466-6.252-19.793-2.087c-5.727,2.601-11.978,10.927-17.704,7.288
	c-2.601-2.089,0-6.251-2.601-7.815c-2.6-1.562-7.29,0-9.89,0c-6.252,0.526-17.599,3.714-11.347-6.176L118.286,115.188z"/>
<linearGradient id="ian_symbols_987d6cebe81d6644c52e8d39d5b8b7c8" gradientUnits="userSpaceOnUse" x1="159.6895" y1="477.6934" x2="162.6644" y2="418.5406" gradientTransform="matrix(1 0 0 -1 0 498.9941)">
	<stop  offset="0" style="stop-color:#BFC99C"/>
	<stop  offset="0.2213" style="stop-color:#BBC698"/>
	<stop  offset="0.4464" style="stop-color:#B0BF8D"/>
	<stop  offset="0.6733" style="stop-color:#9FB378"/>
	<stop  offset="0.9" style="stop-color:#85A15B"/>
	<stop  offset="1" style="stop-color:#76974C"/>
</linearGradient>
<path fill="url(#ian_symbols_987d6cebe81d6644c52e8d39d5b8b7c8)" d="M156.578,74.473c-7.932-7.605-21.336-11.637-7.453-22.867c3.625-2.969,8.917-2.639,7.264-8.917
	c-1.327-4.636-6.935-6.605-9.575-9.917c1.97-2.312,3.625-0.998,5.937-1.655c3.967-0.985,3.311-0.985,4.295-5.622
	c1.327-4.624,3.31-8.59,8.59-5.949c-1.313,3.309-4.952,8.275-0.657,11.571c1.654,0.999,4.952,0.328,6.948,1.328
	c2.64,1.313,6.264,5.279,7.263,7.604c-3.639,2.299-12.885-0.341-11.559,7.264c0.657,2.64,4.952,4.952,5.938,7.591
	c1.325,1.996,3.309,7.605,1.982,9.917c-0.984,1.983-3.624,2.312-5.28,3.967c-2.311,2.312-1.654,3.967-2.639,6.948
	c-2.325,7.263-6.292,3.954-9.917-0.67L156.578,74.473z"/>
</svg>
