<?xml version="1.0" encoding="UTF-8" standalone="no"?>
	<svg xmlns:rdf="http://www.w3.org/1999/02/22-rdf-syntax-ns#" xmlns="http://www.w3.org/2000/svg" height="226px" width="501px" xmlns:cc="http://creativecommons.org/ns#" xmlns:xlink="http://www.w3.org/1999/xlink" xmlns:dc="http://purl.org/dc/elements/1.1/">
	<title>Estuary 3D: braided river mouth</title>
<desc xmlns:ian_image_library="http://ian.umces.edu/imagelibrary/">
      <ian_image_library:title>Estuary 3D: braided river mouth</ian_image_library:title>
      <ian_image_library:descr>Illustration of an estuary with a braided river mouth.</ian_image_library:descr>
      <ian_image_library:scene>
		<ian_image_library:contains>symbol,vector,illustration,coastal,marine,freshwater,river mouth,braided,estuary,cutaway</ian_image_library:contains>
        <ian_image_library:when>2011-04-06</ian_image_library:when> 
	  </ian_image_library:scene>
   </desc>
    <metadata
		id="metadata-iil-dbbe04b0689bad248d14f8d476d7bcc0">
      <rdf:RDF>
      <cc:Work
         rdf:about="">
        <dc:format>image/svg+xml</dc:format>
        <dc:type
           rdf:resource="http://purl.org/dc/dcmitype/StillImage" />
        <cc:license
           rdf:resource="http://creativecommons.org/licenses/by-sa/3.0/" />
        <dc:title>Estuary 3D: braided river mouth</dc:title>
		<dc:date>2011-04-06</dc:date>
        <dc:creator>
			<cc:Agent>
				<dc:title>Tracey Saxby</dc:title>
			</cc:Agent>	
		</dc:creator>   
		<dc:rights>
          <cc:Agent>
            <dc:title>Tracey Saxby, Integration and Application Network</dc:title>
          </cc:Agent>
        </dc:rights>
        <dc:publisher>
          <cc:Agent>
            <dc:title>Integration and Application Network</dc:title>
          </cc:Agent>
        </dc:publisher>
		<dc:identifier>http://ian.umces.edu/imagelibrary/displayimage-6882.html</dc:identifier>
        <dc:source>http://ian.umces.edu/imagelibrary/displayimage-6882.html</dc:source>
        <dc:language>en-US</dc:language>
        <dc:subject>
          <rdf:Bag>
            <rdf:li>symbol,vector,illustration,coastal,marine,freshwater,river mouth,braided,estuary,cutaway</rdf:li>
          </rdf:Bag>
        </dc:subject>
        <dc:coverage></dc:coverage>
        <dc:description>Illustration of an estuary with a braided river mouth.</dc:description>
        <dc:contributor>
          <cc:Agent>
            <dc:title></dc:title>
          </cc:Agent>
        </dc:contributor>
      </cc:Work>
      <cc:License
         rdf:about="http://creativecommons.org/licenses/by-sa/3.0/">
        <cc:permits
           rdf:resource="http://creativecommons.org/ns#Reproduction" />
        <cc:permits
           rdf:resource="http://creativecommons.org/ns#Distribution" />
        <cc:requires
           rdf:resource="http://creativecommons.org/ns#Notice" />
        <cc:requires
           rdf:resource="http://creativecommons.org/ns#Attribution" />
        <cc:permits
           rdf:resource="http://creativecommons.org/ns#DerivativeWorks" />
        <cc:requires
           rdf:resource="http://creativecommons.org/ns#ShareAlike" />
      </cc:License>
    </rdf:RDF>
  </metadata>
	
<defs>
</defs>
<linearGradient id="ian_symbols_8a2ced90c25510b459e474598a6be440" gradientUnits="userSpaceOnUse" x1="250" y1="19.8496" x2="250" y2="164.3076">
	<stop  offset="0.2459" style="stop-color:#95CDE8"/>
	<stop  offset="1" style="stop-color:#6EBADD"/>
</linearGradient>
<polygon fill="url(#ian_symbols_8a2ced90c25510b459e474598a6be440)" points="421.186,21.075 420.55,19.85 272.185,19.85 253.617,52.757 50.218,70.354 0,164.307 
	500,164.307 "/>
<linearGradient id="ian_symbols_01940897cc94feb481ef104ce6869c72" gradientUnits="userSpaceOnUse" x1="250" y1="164.3071" x2="250" y2="218.4058">
	<stop  offset="0.2459" style="stop-color:#95CDE8"/>
	<stop  offset="1" style="stop-color:#6EBADD"/>
</linearGradient>
<rect y="164.307" fill="url(#ian_symbols_01940897cc94feb481ef104ce6869c72)" width="500" height="54.099"/>
<g>
	<g>
		<linearGradient id="ian_symbols_3c52950893aa388461145ded63f30dfa" gradientUnits="userSpaceOnUse" x1="244.4434" y1="164.4351" x2="244.4434" y2="18.4326">
			<stop  offset="0" style="stop-color:#D7C39A"/>
			<stop  offset="1" style="stop-color:#AA8D6B"/>
		</linearGradient>
		<path fill="url(#ian_symbols_3c52950893aa388461145ded63f30dfa)" d="M297.076,117.279c-0.586,0.496-1.203,1.071-1.77,1.594c-0.318,0.289-1.372,0.925-0.932,1.737
			c0.443,0.813,4.264,0.456,5.12,0.113c1.568-0.629,3.495-0.214,4.97-1.187c0.293-0.189,0.595-0.451,0.936-0.581
			c0.407-0.154,0.955-0.083,1.421-0.083c1.074,0,1.937-0.064,2.797-0.786c0.499-0.422,0.954-0.977,1.618-1.072
			c0.775-0.109,1.769,0.219,2.478-0.082c0.623-0.265,0.864-0.898,1.39-1.306c0.521-0.403,1.432-0.509,2.063-0.582
			c0.52-0.06,2.134-0.542,2.558-0.695c0.64-0.231,1.485-0.582,2.215-0.576c0.892,0.006,1.604,0.01,2.35-0.438
			c0.49-0.295,1.575-0.815,1.813-1.44c0.238-0.622,1.209-1.436,1.646-1.715c0.796-0.506,1.701-0.36,2.562-0.576
			c0.854-0.215,1.357-0.542,2.065-1.075c0.376-0.282,1.686-1.06,2.04-1.337c0.768-0.594,1.563-0.605,2.527-0.605
			c1.01,0,1.934-0.12,2.908-0.236c1.839-0.223,3.589-1.118,5.345-1.643c1.758-0.524,3.599-1.06,5.119-1.945
			c1.467-0.854,2.502-2.284,3.809-3.274c0.713-0.543,1.525-0.823,2.356-1.158c0.413-0.169,2.001-0.762,2.414-0.924
			c1.463-0.571,3.063-1.117,4.559-1.486c0.344-0.086,0.705-0.249,0.915-0.362c0.207-0.114,0.465-1.571-0.555-1.724
			c-0.381-0.059-0.794,0.067-1.177,0.01c-0.341-0.049-0.796-0.158-1.161-0.23c-0.621-0.121-1.521-0.539-2.067-0.839
			c-0.366-0.203-1.328-0.965-1.671-1.229c-0.345-0.264-1.224-0.835-1.868-1.152c-0.723-0.356-1.462-0.737-2.206-1.044
			c-0.787-0.324-1.398-0.665-2.093-1.044c-0.326-0.18-0.577-0.294-0.877-0.519c-0.353-0.267-0.658-0.585-1.049-0.818
			c-0.698-0.416-1.699-0.581-2.469-0.771c-0.907-0.224-1.826-0.449-2.792-0.469c-1.791-0.038-3.703-0.565-5.463-0.345
			c-0.929,0.117-1.913,0.027-2.794,0.229c-0.908,0.207-1.75,0.365-2.673,0.554c-1.649,0.336-3.426,0.615-4.999,1.158
			c-0.387,0.133-0.787,0.148-1.17,0.255c-0.413,0.113-0.857,0.351-1.279,0.463c-0.798,0.214-1.625,0.51-2.439,0.789
			c-0.875,0.301-1.754,0.466-2.672,0.578c-0.44,0.055-2.271,0.292-2.701,0.348c-0.645,0.088-1.255,0.18-1.839,0.372
			c-0.609,0.201-1.162,0.636-1.741,0.904c-0.526,0.244-1.147,0.521-1.743,0.611c-0.357,0.056-1.723-0.133-2.093-0.123
			c-1.137,0.037-2.277,0.744-3.283,1.135c-0.521,0.202-1.265,0.427-1.834,0.494c-0.381,0.046-1.424-0.009-2.093-0.005
			c-0.673,0.005-2.938,0.582-3.258,0.695c-0.32,0.116-0.688,0.256-0.931,0.464c-0.258,0.22-0.626,0.627-0.792,0.954
			c-0.407,0.808-0.405,1.801-0.112,2.638c0.599,1.691,0.495,3.354,1.133,4.988c0.351,0.894,1.051,1.675,1.051,2.663
			c0,0.964-0.004,1.931,0,2.896c-0.006,1.676-0.078,3.408-0.706,4.965l0.011,0.021C299.335,114.968,298.375,116.18,297.076,117.279z
			 M307.042,129.768l0.002-0.011c-0.63,0.181-1.137,0.355-1.854,0.354c-0.731-0.003-1.369-0.011-2.003,0.206
			c-0.543,0.183-1.058,0.404-1.596,0.604c-1.257,0.465-2.596,0.295-3.844,0.812c-0.619,0.259-1.162,0.441-1.721,0.84
			c-0.354,0.254-1.432,0.874-1.07,1.016c0.357,0.14,1.893,0.41,2.325,0.348s0.606-0.07,0.931-0.111
			c0.28-0.034,0.553-0.188,0.809-0.244c0.61-0.131,1.255-0.074,1.865-0.23c0.501-0.129,1.092-0.229,1.625-0.226
			c0.661,0.006,1.232-0.156,1.864-0.234c1.216-0.148,2.165-0.322,3.054-1.248c0.314-0.324,0.676-0.638,0.932-0.92
			c0.286-0.317,1.128-0.6,0.938-1.074C308.833,130.023,307.584,129.608,307.042,129.768z M318.478,59.763l0.005,0.005
			c0.064,0.301,0.353,0.654,0.469,0.919c0.35,0.772,1.006,1.36,1.553,2.021c0.424,0.512,1.058,0.994,1.548,1.573
			c0.455,0.537,0.918,1.12,1.471,1.586c1.236,1.045,2.699,1.249,4.104,1.782c1.854,0.702,3.524,1.977,5.384,2.816
			c1.03,0.461,1.727,1.245,2.607,1.892c0.894,0.657,1.644,1.131,2.677,1.463c1.122,0.365,2.152,0.463,3.133,1.122
			c0.925,0.618,1.827,0.913,2.797,1.357c0.921,0.422,1.848,0.743,2.753,1.114c0.825,0.338,1.894,1.547,2.791,1.55
			c0.897,0.005,1.552,1.083,1.552,1.083c0.258,0.243,0.405,0.898,0.58,1.273c0.207,0.445,0.251,1.155,0.531,1.506
			c0.63,0.792,1.956-1.013,2.448-1.578c0.783-0.895,1.815-1.239,2.764-1.854c0.837-0.546,1.646-1.178,2.475-1.713
			c1.738-1.122,3.646-1.938,5.58-2.771c2.172-0.936,4.694-0.936,7.015-1.2c2.38-0.27,4.709-0.853,7.103-1.114
			c1.165-0.13,2.48-0.518,3.634-0.705c1.249-0.202,2.336-0.355,3.532-0.768c1.181-0.408,2.244-0.891,3.407-1.274
			c1.037-0.34,1.634-0.757,2.446-1.588c0.818-0.836,1.292-1.661,1.126-2.893c-0.073-0.525-0.191-0.913-0.507-1.349
			c-0.416-0.579-0.709-0.588-1.326-0.846c-0.417-0.174-0.798-0.445-1.268-0.582c-0.571-0.166-1.152-0.258-1.679-0.497
			c-0.947-0.436-1.739-1.062-2.663-1.515c-0.813-0.396-1.472-2.01-0.584-2.743c0.767-0.633,2.215-0.533,3.183-0.692
			c0.545-0.09,1.104-0.366,1.737-0.274c0.54,0.078,0.742,0.21,1.671,0.278c0.929,0.07,1.629-0.393,2.674-0.857
			c1.047-0.463,2.674-3.13,1.395-2.781c-1.28,0.348-3.259,1.32-4.185,1.355c-0.934,0.035-2.294-0.363-2.521-1.51
			c-0.262-1.339,1.701-0.811,2.528-1.232c0.588-0.299,1.242-0.647,1.658-1.162c0.588-0.727,0.525-1.708,0.162-1.94
			c-0.361-0.233-0.8-0.229-1.245-0.46c-0.409-0.215-1.071-0.461-1.508-0.505c-1.105-0.12-2.375-0.058-3.3-0.731
			c-0.68-0.492-1.396-0.185-2.252-0.227c-1.553-0.078-2.051-0.013-3.02-0.389c-3.938-1.524-0.855-0.489-7.061-1.307
			c-1.143-0.151-3.84-0.553-4.496-0.469c-1.224,0.158-2.57,0.334-3.603-0.347c-1.079-0.713-2.913-0.491-4.187-0.811
			c-2.317-0.578-3.34-0.276-5.814-0.578c-1.309-0.162-3.019-0.273-4.305-0.464l-3.372-0.696c0.116-0.07-2.815,0.303-2.938,0.935
			c-0.212,1.074-1.266,1.964-2.178,2.465c-0.914,0.498-1.865,0.716-2.799,1.071c-0.991,0.379-1.92,0.818-2.946,1.246
			c-1.965,0.819-4.065,1.628-6.04,2.312c-0.691,0.239-1.33,0.445-2.023,0.621c-0.532,0.134-1.08,0.13-1.662,0.192
			c-1.147,0.13-2.178,0.361-3.285,0.745c-2.051,0.711-5.146,1.491-6.021,2.189c-0.881,0.699-1.093,1.295-1.393,2.012
			c-0.336,0.805-0.472,1.681-0.38,2.472C318.465,58.763,318.374,59.295,318.478,59.763z M413.532,56.902
			c0.285-0.558,0.167-0.673-0.533-0.773c-0.53-0.074-1.339-0.129-1.827-0.121c-0.49,0.008-0.962,0.217-1.229,0.25
			c-0.514,0.06-0.936,0.036-1.396,0.154c-0.831,0.212-1.855,0.136-2.647,0.442c-0.889,0.346-1.776,0.646-2.67,0.907
			c-0.725,0.209-1.554,0.736-2.291,0.807l-2.174,0.772c-0.555,0.371-1.994,0.849-2.178,1.692c-0.243,1.149,1.885,1.249,2.483,1.402
			c1.271,0.325,2.077,0.067,3.102-0.656c1.089-0.776,1.59-1.408,2.955-1.51c1.124-0.087,2.005-0.38,2.987-0.886
			c0.994-0.511,2.074-0.706,3.092-1.089C412.074,57.966,413.059,57.822,413.532,56.902z M405.741,63.207
			c-0.229,0.337-0.493,0.969-0.274,1.392c0.249,0.476,1.03,0.326,1.519,0.494c0.482,0.164,0.897,0.366,1.396,0.428
			c0.877,0.109,1.01-0.262,1.271-0.93c0.252-0.646,0.229-0.914,0.158-1.578c-0.048-0.453-0.015-1.332-0.345-1.653
			c-0.131-0.038-0.939,0.005-1.403,0.142h0.009C407.606,61.639,406.327,62.338,405.741,63.207z M396.291,77.271l-0.008-0.005h-0.932
			c-1.535,0.192-1.734,2.228-0.891,3.207c0.417,0.483,0.887,0.899,1.24,1.391c0.367,0.511,0.682,0.95,1.319,1.158
			c1.425,0.463,2.74-0.152,3.91-0.848c1.045-0.625,2.736-1.208,1.991-2.715c-0.645-0.166-1.206-0.225-1.833-0.339
			c-0.64-0.115-1.218-0.283-1.866-0.464C398.313,78.405,397.391,77.019,396.291,77.271z M349.364,25.499l-0.009,0.017
			c-1.012,0.024-1.984,0.188-3.509,0.57c-1.527,0.382-4.289,0.124-5.857,0.466c-1.566,0.344-7.904,0.957-7.904,0.957l-15.38-0.021
			c0,0-3.567,0.771-3.627,1.28c-0.057,0.507,0.151,0.804,0.781,1.219c0.629,0.413,0.947,0.487,1.331,0.578
			c0.617,0.148,1.236,0.111,1.857,0.186c1.164,0.137,2.246,0.605,3.267,1.198c0.86,0.5,1.604,1.112,2.51,1.549
			c1.058,0.509,1.949,0.757,3.063,0.967c0.634,0.118,1.243,0.251,1.868,0.424c0.632,0.179,1.185,0.106,1.862,0.186
			c1.093,0.126,1.826,0.454,2.939,0.775c1.105,0.319,2.146,0.969,3.248,1.095c0.601,0.067,1.236-0.507,1.835-0.438
			c0.538,0.06,1.184,0.189,1.738,0.275c2.417,0.364,5.463,1.552,7.908,1.544c1.266-0.004,2.008,0.77,3.256,0.615
			c1.245-0.154,2.618,0.003,3.875,0.003c1.303,0,2.594,0.039,3.878,0.188c0.636,0.074,1.186,0.279,1.859,0.275
			c0.7-0.005,1.209,0.13,1.868,0.314c1.184,0.332,2.358,0.626,3.565,0.927c0.49,0.124,1.045,0.182,1.537,0.309
			c0.678,0.172,1.33,0.056,2.026,0.142c1.139,0.14,2.377,0.272,3.567,0.161c1.049-0.097,2.714,0.119,3.252,0.465
			c0.542,0.348,1.679-0.196,2.327,0.136c0.642,0.332,3.118,1.535,4.8,2.181c0.835,0.32,1.6,0.622,2.453,0.807
			c0.805,0.175,1.708,0.268,2.51,0.438c1.754,0.372,3.482,1.014,5.243,1.572c1.679,0.53,3.413,0.666,5.15,1.056
			c1.178,0.265,2.329,0.25,3.403,0.765c0.997,0.478,1.982,0.774,2.957,1.236c0.986,0.47,1.949,0.772,2.946,1.235
			c0.966,0.452,1.957-0.441,2.944-0.154c1.034,0.301,2.175,0.502,3.223,0.966c0.97,0.429,1.427,1.37,2.244,1.931
			c0.43,0.297,0.866,0.493,1.323,0.69c0.38,0.166,0.914,0.308,1.273,0.585c1.093,0.844-0.365,1.612-1.232,1.708
			c-1.248,0.137-2.009,0.276-3.066,0.96c-0.85,0.549-1.679,1.181-2.331,2.007c-0.8,1.012-0.659,2.046-0.659,3.359
			c0,0.638,0.081,1.291-0.153,1.855c-0.191,0.455-0.536,0.807-0.813,1.199c-0.603,0.843-0.964,1.842-1.633,2.672
			c-0.821,1.009-1.744,0.98-2.791,1.417c-0.995,0.415-2.047,1.325-2.973,1.864c-0.576,0.331-2.28,0.866-2.365,1.626
			c-0.746,0.119-1.12,1.438-0.754,1.928c0.444,0.592,1.876,1.889,2.526,2.084c0.763,0.231,1.585,0.364,2.325,0.619
			c0.393,0.136,0.82,0.071,1.209,0.22c0.376,0.143,0.698-0.074,1.083,0.084c0.496,0.207,0.789-0.258,0.776,0.353
			c-0.004,0.191-0.229,0.905-0.336,1.046c-0.366,0.494-1.31,0.872-1.795,1.155c-0.736,0.429-1.422,0.809-2.021,1.373
			c-0.326,0.307-0.588,0.652-1.007,0.868c-0.239,0.125-0.416,0.046-0.736,0.033c-0.319-0.013-2.049,0.365-2.324,0.619
			c-0.283,0.252-0.431,0.829-0.622,1.236c-0.1,0.206-0.286,0.428-0.43,0.622c-0.158,0.224-0.528,0.495-0.619,0.648
			c-0.657,1.066,1.36,1.578,2.13,1.67c1.196,0.138,2.412-0.484,3.457,0.108c0.433,0.245,0.892,0.589,1.315,0.853
			c0.492,0.309,0.877,0.409,1.4,0.614c2.15,0.835,4.916,0.17,7.166,0.737c1.058,0.268,2.196,0.399,3.254,0.771
			c1.195,0.416,2.159,1.053,3.414,1.394c2.103,0.573,4.035,1.707,5.884,2.824c1.019,0.615,2.207,0.973,3.273,1.341
			c1.032,0.357,2.077,0.897,3.092,1.273c2.231,0.827,4.037,2.432,6.206,3.341c1.105,0.462,2.108,1.164,3.216,1.616
			c1.054,0.429,2.122,1.042,3.138,1.624c2.574,1.476,4.628,2.31,7.287,3.625c1.349,0.668,2.865,0.901,4.068,1.313
			c1.198,0.415,7.608,4.715,10.399,5.938c1.988,0.871,7.693,4.288,9.497,5.161L420.489,19.725l-0.147-0.284
			c-17.878-0.096-32.514-0.188-33.529-0.243c-2.685-0.144-9.743,0.568-9.743,0.568l-23.095,5.415
			C353.975,25.182,350.372,25.474,349.364,25.499z M416.598,96.264l0.002,0.007c0.079,1.008,0.65,0.774,1.55,0.773
			c0.75-0.001,1.317,0.075,1.979,0.347c0.634,0.26,1.187,0.653,1.865,0.768c0.412,0.072,0.318,0.105,0.692-0.15
			c0.137-0.095,0.599-0.493,0.596-0.657c-0.006-0.305-1.263-1.12-1.521-1.278c-0.584-0.353-1.275-0.478-1.907-0.698
			c-0.59-0.204-1.338-0.295-1.927-0.507c-0.594-0.214-1.417-0.935-1.483-0.763c-0.066,0.173,0.154,0.577,0.197,0.925
			C416.688,95.419,416.56,95.812,416.598,96.264z M423.103,102.774l0.003-0.003c0.52,0.071,0.94-0.112,1.398-0.167
			c0.511-0.061,1.047,0.065,1.554,0.007c0.494-0.056,1.08-0.247,1.369-0.498c0.289-0.25,1.616-1.23,1.555-1.949
			c-0.48-0.154-1.897-0.964-3.077-0.492c-0.634,0.307-0.842-0.334-1.243,0c-0.396,0.333-0.897,0.412-1.388,0.622
			c-0.438,0.187-1.035,0.682-1.22,0.949c-0.183,0.269-0.313,0.63-0.151,1.029C422.303,102.387,422.691,102.717,423.103,102.774z
			 M378.628,76.432c-0.146,0.072-0.189,0.176-0.308,0.259c-0.185,0.134-0.368,0.137-0.534,0.235
			c-0.249,0.147-0.575,0.434-0.785,0.646c-0.44,0.444-0.769,0.976-1.118,1.456c-0.151,0.208-0.38,0.424-0.481,0.665
			c-0.177,0.424,0.037,0.463,0.436,0.568c0.724,0.191,1.195-0.332,1.837-0.518c0.729-0.211,1.555-0.148,2.29-0.287
			c0.632-0.117,1.461-0.269,1.984-0.669c1.137-0.871-1.374-2.236-2.08-2.26c-0.185-0.005-0.293,0.136-0.478,0.092l0.002,0.002
			C379.212,76.58,378.77,76.358,378.628,76.432z M377.18,92.453c0.783,0.44,1.515,0.872,2.358,1.077
			c1.028,0.25,2.106,0.482,3.11,0.73c0.854,0.211,1.752,0.434,2.628,0.656c0.875,0.221,1.781,0.301,2.602,0.619
			c0.742,0.284,1.446,0.684,2.2,0.896c0.412,0.115,0.792,0.229,1.212,0.339c0.351,0.092,1.012,0.397,1.406,0.252
			c0.345-0.856-1.373-1.208-1.832-1.364c-0.971-0.329-1.827-0.809-2.799-1.09c-1.575-0.454-3.13-0.873-4.645-1.577
			c-0.756-0.35-1.406-0.771-2.169-1.055c-0.791-0.296-1.677-0.431-2.482-0.768c-0.726-0.308-1.613-0.538-2.301-0.954
			c-0.621-0.376-1.234-1.178-2.044-1.052c0,0-0.985-0.216-0.929,0.156c0.062,0.369,0.905,1.333,1.441,1.818l-0.01-0.001
			C375.658,91.797,376.336,91.98,377.18,92.453z M350.191,125.357c1.978-0.927,4.305-3.013,3.721-3.479
			c-0.581-0.462-5.697,0.233-9.651,0.696c-3.954,0.465-12.909,1.39-15.117,1.973c-2.209,0.578-5.814,3.126-7.213,3.476
			c-1.392,0.349-2.322,0.927-3.719,1.273c-1.396,0.348-4.303,1.507-3.722,2.55c0.582,1.044,5.006,1.044,8.376,1.506v0.002
			c3.372,0.462,13.836-1.159,15.116-2.087c1.277-0.926,3.604-2.896,4.883-3.594C344.146,126.98,348.215,126.286,350.191,125.357z
			 M315.87,124.338c0.361-0.119,0.694-0.183,1.054-0.286c0.671-0.19,1.323-0.335,2.003-0.568c0.295-0.101,0.956-0.191,0.696-0.622
			c-0.112-0.187-0.586-0.327-0.788-0.357c-0.407-0.064-0.866,0.002-1.244,0.1c-0.335,0.085-0.702,0.098-1.052,0.184
			c-0.391,0.099-0.739,0.244-1.145,0.294c-0.393,0.048-0.769,0-1.149,0.088c-0.75,0.168-1.521,0.044-2.292,0.002
			c-0.787-0.043-1.576-0.094-2.389-0.094c-0.792,0-1.507,0.032-2.29,0.094c-0.689,0.056-1.359,0.33-2.007,0.576
			c-0.672,0.255-1.374,0.403-2.03,0.732c-0.599,0.301-1.104,0.661-1.697,1.003c-0.611,0.352-1.229,0.672-1.908,0.902
			c-0.7,0.239-1.348,0.213-2.104,0.304c-0.673,0.081-1.361,0.227-2.003,0.384c-0.729,0.178-2.053,0.998-1.802,1.035
			c0.252,0.035,2.187,0.256,2.751,0.027c0.571-0.231,0.733-0.079,1.058-0.109c0.385-0.034,0.738-0.095,1.146-0.095
			c0.708,0,1.356-0.138,2.007-0.284s1.257-0.319,1.907-0.481c0.619-0.156,1.286-0.145,1.912-0.303
			c0.382-0.098,0.748-0.037,1.148-0.074c0.391-0.035,0.676-0.231,1.05-0.291c0.363-0.056,0.617-0.083,0.953-0.182
			c0.341-0.1,0.705-0.149,1.052-0.196c0.418-0.057,0.739-0.075,1.151-0.188c0.317-0.082,0.644-0.189,0.972-0.281l-0.017-0.002
			c0.619-0.175,1.295-0.312,1.927-0.455c0.205-0.046,0.426,0.016,0.625-0.044c0.171-0.05,0.328-0.202,0.499-0.266
			c0.332-0.121,0.636-0.163,0.953-0.285C315.149,124.469,315.517,124.459,315.87,124.338z M402.81,109.149
			c0.812,0.464,1.275,1.389,1.974,1.969c0.7,0.58,1.978,0.233,2.443,0.464c0.463,0.232-0.565-1.491-0.789-1.892
			c-0.223-0.399-0.32-1.2-0.668-1.779c-0.349-0.581-3.081-2.586-4.358-3.051c-1.278-0.463-6.279-2.549-5.929-1.506
			c0.348,1.038,1.05,1.967,1.744,2.776v0.006C397.922,106.947,401.995,108.684,402.81,109.149z M411.478,99.061l0.009-0.002
			c0.378-0.159,0.505-0.75,0.804-1.05c0.32-0.314,0.754-0.463,1.01-0.85c0.232-0.35,0.492-0.776,0.669-1.187
			c0.162-0.381,0.809-1.411,0.894-1.426c0.26-0.632-1.845-1.418-2.333-1.639c-0.897-0.409-2.014-1.031-2.944-1.236
			c-0.53-0.117-1.454-0.139-1.982,0c-0.794,0.208-0.555,0.584-0.466,1.201c0.079,0.576,0.023,1.191-0.188,1.695
			c-0.129,0.301-0.426,0.593-0.74,1.086c-0.317,0.495-0.395,0.787-0.313,1.235c0.083,0.449,0.188,0.837,0.89,1.127
			c0.513,0.209,1.078,0.298,1.589,0.424C409.154,98.633,410.607,99.43,411.478,99.061z M439.661,112.614l0.008,0.003
			c0.761-0.591,1.104-1.792,0.521-2.554c0.692-0.885,1.604-0.364,2.421-0.156c0.933,0.236,2.113,0.204,2.651-0.697
			c-0.177-0.41-1.249-0.508-1.686-0.692c-0.553-0.233-1.093-0.56-1.67-0.701c-1.192-0.293-2.432-0.653-3.597-1.193
			c-1.159-0.537-2.311-0.984-3.37-1.742c-0.652-0.465-1.964-1.716-2.679-1.967c-0.715-0.25-2.709-1.368-2.946-1.236
			c-0.239,0.132-0.47,0.49-0.584,0.808c-0.166,0.452,0.035,1.067,0.116,1.511c0.096,0.522,0.064,0.675,0.505,1.043
			c0.3,0.25,0.593,0.608,1.022,0.472c0.237-0.478,0.326-0.955,0.361-1.497c0.324-0.021,0.827,0.56,0.946,0.866
			c0.232,0.589-0.162,0.912-0.348,1.437c-0.396,1.141-0.627,1.974-1.598,2.893c-0.351,0.334-0.654,0.74-1.043,1.01
			c-0.446,0.312-0.997,0.518-1.398,0.881c-0.862,0.773-1.203,1.627-0.418,2.597c0.639,0.789,0.934,1.686,1.546,2.468
			c0.768,0.983,1.977,0.744,2.911,0.231c0.449-0.247,0.827-0.539,1.238-0.815c0.455-0.302,0.91-0.451,1.403-0.726
			c0.949-0.53,1.893-0.788,2.938-1.125C437.843,113.429,438.865,113.235,439.661,112.614z M425.16,104.27
			c-1.116-0.283-2.412-0.004-3.486-0.388c-0.888-0.316-1.534-1.33-1.866-2.16c-0.28-0.7-0.271-1.174-1.197-1.281
			c-0.656-0.075-1.25,0-1.855-0.154c-0.588-0.15-1.014-0.188-1.521-0.613c-0.525-0.441-0.646-0.909-1.236-0.306
			c-0.42,0.428-0.395,0.948-0.973,1.236c-0.4,0.199-1.016,0.338-1.857-0.003c-0.846-0.343-0.931,0.463-0.931,0.463
			c0.183,1.081,1.729,1.422,2.48,1.733c0.904,0.375,1.601,1.346,2.209,2.092c0.636,0.777,1.485,1.393,2.283,2.084
			c0.814,0.703,1.991,0.854,2.909,1.24c1.072,0.452,2.25,0.577,3.458,0.268c1.01-0.26,2.385-0.563,2.91-1.698
			C427.043,105.604,426.301,104.561,425.16,104.27z M340.781,84.53l-0.007,0c0.42,0.14,2.007-0.117,2.637,0
			c0.632,0.114,2.668,0.327,3.604,0.428c1.296,0.144,2.344,0.294,3.54,0.834c0.534-0.524-0.054-2.227-0.349-2.778
			c-0.245-0.456-1.112-1.383-1.648-1.761c-0.536-0.375-0.966-1.127-1.113-0.99c-0.151,0.137-0.1,0.626-0.28,0.897
			c-0.188,0.271-0.667,0.879-0.998,1.171c-0.419,0.374-1.477,0.858-2.018,1.081C342.979,83.896,340.359,84.388,340.781,84.53z
			 M473.148,126.138v0.003c-1.944-1.358-3.264-2.408-5.348-3.026c-2.084-0.616-2.639-1.852-4.721-2.716
			c-2.084-0.862-3.89-0.617-5.693-2.099c-1.806-1.481-4.771-2.43-6.215-3.736c-0.632-0.574-1.604-0.854-2.427-0.734
			c-1.105,0.155-1.887,0.538-3.027,0.278c-0.704-0.162-0.696,0.054-1.286,0.339c-0.37,0.179-0.875,0.222-1.216,0.49
			c-0.855,0.675,0.389,1.651,0.873,2.221c0.571,0.676,0.715,1.569,1.251,2.224c0.253,0.31,0.521,0.59,0.831,0.863
			c0.268,0.237,0.455,0.522,0.964,0.749c1.089,0.534,1.087,1.529,1.087,2.246c-0.005,0.563-0.029,0.997,0.31,1.475
			c0.301,0.42,0.691,0.558,1.051,0.9c0.354,0.329,0.265,0.811,0.445,1.205c0.207,0.454,0.569,0.624,0.997,0.834
			c0.468,0.229,0.806,0.336,1.187,0.679c0.293,0.26,0.453,0.76,1.008,0.834c1.425,0.328,1.946,1.357,3.611,2.468
			c1.666,1.111,2.084,3.21,4.166,3.705c2.084,0.493,8.574,0.614,9.372-1.11c0.488-1.05-2.858-1.368-1.076-3.149
			c1.426-1.42,2.884-1.172,3.994-1.913C474.399,128.423,475.094,127.5,473.148,126.138z M453,140.94
			c-0.555-0.938-1.18-1.301-1.976-1.932c-0.837-0.667-1.519-0.993-1.404-2.155c0.12-1.188-1.49-3.399-2.178-4.492
			c-1.098-1.749-1.461-3.216-3.553-3.204c-1.268,0.008-3.397-1.062-4.547-0.812c-0.634,0.138-0.769,0.802-1.294,1.225
			c-0.355,0.285-0.632,0.894-0.814,1.293c-0.41,0.886-0.447,1.872-0.451,2.77c-0.006,1.155,1.261,1.723,1.951,2.517
			c0.155,0.181,0.405,0.523,0.503,0.73c0.199,0.41,0.028,0.435-0.011,0.769c-0.061,0.493-0.297,1.132-0.037,1.587
			c0.278,0.49,1.012,0.573,1.095,1.237c0.056,0.434-0.191,1.149-0.389,1.553c-0.274,0.565-0.61,0.894,0.071,1.393
			c0.361,0.262,0.94,0.225,1.169,0.687c0.177,0.352-0.078,1.124,0.081,1.62c0.158,0.498,0.401,0.815,0.842,1.168
			c0.833,0.669,4.168,16.372,4.422,17.415c0.037,0.158,19.751,0,19.751,0c-0.19-0.248-4.716-13.927-6.231-17.021
			C458.604,144.434,453.346,141.524,453,140.94z M402.371,121.745l-0.013,0.005c-1.848-1.163-6.895-3.376-7.621-3.798
			c-0.728-0.421-1.037-1.447-1.682-1.579c-0.689-0.146-1.101,0.74-1.572,1.115c-1.131,0.896-2.642-0.114-4.019,0.632
			c-2.369,1.282-4.529,2.992-6.692,4.648c-2.187,1.673-2.577,2.736-4.89,4.135c-1.255,0.761-3.941,2.003-5.283,2.454
			c-0.688,0.232-1.42,0.503-2.13,0.66c-0.819,0.184-2.517,0.841-3.175,1.366c-1.23,0.982-1.933,1.626-2.951,2.747
			c-0.951,1.053-2.02,2.104-3.127,2.893c-2.526,1.799-3.239,2.889-5.904,4.276c-1.343,0.7-1.761,3.757-5.07,4.459
			c-0.931,0.198-2.77,2.1-3.586,2.485c-1.437,0.678-5.448,14.746-6.412,16.063c-0.21,0.287,44.041,0,44.041,0
			c0.257-0.037,0.511,0.009,0.767,0c1.279-0.034,2.522-0.071,3.729,0h17.588c1.725-8.82,3.508-23.418,4.474-24.956
			c1.232-1.964,2.36-7.536,2.234-8.763C410.956,129.361,404.218,122.916,402.371,121.745z M366.307,103.87l-0.004-0.022
			c0.818,0,1.57-0.102,2.385-0.096c0.676,0.006,1.286-0.245,1.795-0.69c0.146-0.13,0.377-0.317,0.479-0.476
			c0.087-0.143,0.052-0.22,0.112-0.362c0.05-0.111,0.174-0.158,0.201-0.277c0.057-0.248,0.07-0.629,0.096-0.856
			c0.042-0.333-0.017-0.646-0.108-0.956c-0.146-0.524-0.479-1.052-0.924-1.428c-0.366-0.312-0.898-0.663-1.17-1.049
			c0,0-0.632-0.596-1.05-0.665c-0.42-0.072-2.768,0.205-4.107,0.19c-1.162-0.014-2.421,0.589-3.366,1.213
			c-1.014,0.667-2.08,1.333-3.108,1.951c-1.163,0.702-3.177,2.087-3.571,2.241c-0.401,0.155-0.63,0.337-0.871,0.47
			c-0.343,0.188-0.553,0.217-0.929,0.31c-0.684,0.169-1.29,0.449-1.914,0.737c-0.297,0.138-0.561,0.27-0.833,0.431
			c-0.135,0.081-0.264,0.158-0.402,0.235c-0.279,0.155-0.383,0.145-0.674,0.213c-0.8,0.185-1.557,0.605-2.314,0.932
			c-0.229,0.099-0.813,0.235-0.914,0.495c-0.191,0.482,0.64,0.541,0.938,0.647c0.645,0.226,1.592,0.178,2.29,0.098
			c0.711-0.083,1.483-0.276,2.196-0.36c0.37-0.046,0.775,0,1.149,0.001c0.436,0,0.813-0.101,1.242-0.095
			c1.546,0.014,3.106-0.467,4.586-0.837c0.777-0.193,1.443-0.423,2.2-0.78c0.665-0.311,1.294-0.864,1.999-1.051
			C363.108,103.688,364.816,103.87,366.307,103.87z M289.459,119.339c0.86-0.354,1.706-0.833,2.5-1.396
			c0.343-0.245,0.918-0.559,1.18-0.841c0.35-0.377,0.604-0.927,0.963-1.361c1.392-1.68,2.711-3.104,3.223-5.255
			c0.307-1.307-0.67-1.962-1.052-3.09c-0.295-0.862,0.07-2.256-0.352-3.515c-0.419-1.258-1.163-4.411-1.163-4.411l-0.227-2.7
			c-0.081-0.583-0.389-0.923-0.16-1.585c0.339-1.176,2.851-2.018,3.761-2.468c0.451-0.224,0.884,0,1.357-0.193
			c0.625-0.255,1.051-0.18,1.745-0.261c1.13-0.135,2.34-0.518,3.411-0.781c1.147-0.282,3.235-0.389,4.345-0.769
			c2.145-0.737,4.733-0.516,6.78-1.618c1.105-0.594,2.661-0.657,3.823-0.667c1.29-0.009,3.482-0.977,4.677-1.237
			c2.063-0.446,3.046-1.144,5.065-1.903c0.488-0.185,2.618-0.893,3.154-0.953c1.176-0.13,2.246-0.68,3.339-0.95
			c1.091-0.271,3.418,0.009,4.492-0.478c0.962-0.436,3.657-1.263,4.586-1.618c0.877-0.336,0.964-1.116,0.667-2.38
			c-0.272-1.149-5.194-2.201-6.073-2.535c-1.008-0.381-2.03-0.493-3.036-0.997c-0.839-0.423-2.029-1.109-2.355-1.979
			c-0.195-0.525-1.64-0.646-1.623-1.246c0.021-0.676-4.258-2.414-5.17-2.963c-0.413-0.25-2.653-0.827-3.289-0.886
			c-1.141-0.105-1.683-1.958-2.718-2.339c-2.106-0.78-3.221-2.536-4.395-4.284c-1.334-1.999-1.049-2.475-1.049-4.189
			c0-1.713,0.741-2.574,2.198-3.903c1.454-1.329,3.896-1.922,5.855-2.829c1.148-0.534,2.387-0.706,3.611-1.043
			c1.076-0.297,2.16-0.791,3.243-1.086c1.105-0.299,3.322-1.679,4.538-1.84c1.188-0.158,2.551-0.557,3.754-0.898
			c1.181-0.334,2.313-0.62,3.451-1.039c0.921-0.338,2.117-0.745,2.6-1.733c0.673-1.381-0.044-1.977-1.409-2.318
			c-2.291-0.572-4.772-0.485-7.122-1.095c-2.303-0.595-4.735-0.766-7.136-1.381c-1.172-0.302-2.42-0.458-3.569-0.922
			c-0.962-0.39-1.693-1.019-2.587-1.593c-1.021-0.655-2.013-0.806-3.144-1.073c-1.249-0.296-2.482-0.745-3.724-1.057
			c-1.078-0.271-2.106-0.648-3.135-1.038c-0.447-0.171-0.91-0.318-1.324-0.534c-0.22-0.113-0.424-0.265-0.652-0.389
			c-0.212-0.118-1.056-0.809-2.061-1.577c-0.628-0.477-0.956-0.962-1.015-1.377c-0.052-0.355-0.118-0.571,0.731-1.296
			c0.696-0.593,1.146-0.749,2.325-1.102c0.748-0.225,1.974-0.371,2.641-0.506c1.467-0.452,3.016,0.168,3.311,0.132
			c1.192-0.147,9.978,0.639,11.712-0.212c1.733-0.85,3.106,0.036,5.55-0.16c1.284-0.103,5.633-0.969,7.071-1.01
			c4.172-0.122,3.875-0.546,5.124-0.745c1.25-0.2,6.133-0.118,9.753-1.224c2.423-0.741,14.054-2.672,13.867-2.765
			c-0.923-0.453-32.442-0.685-34.369-0.915c-4.912-0.593-10.227-0.207-11.31-0.361c-1.084-0.155-3.438-0.029-4.652-0.163
			c-0.519-0.058-21.949,0.255-47.388,0.66L12.662,144.333c0,0,0.063,2.108,10.106,0.266c3.191-0.584,10.451-1.623,15.958-3.191
			c4.917-1.399,8.044-3.325,11.834-4.067c4.981-0.976,16.131-2.519,21.145-3.911c10.551-2.93,15.236-5.868,27.66-6.18
			c8.636,0.496,28.555-4.05,33.245-3.927c2.374,0.063,21.085,1.17,22.075,2.926l9.574,5.053c2.064,1.055,14.991,3.233,15.218,3.477
			c0,0,1.589,0.717,3.133,2.108c1.546,1.392,3.925,4.434,5.195,4.58c0.957,0.112,3.09-0.002,3.924,0.423
			c0.59,0.298,4.054,0.417,4.71,0.582c0.58,0.148,7.622-1.666,8.245-1.596c1.184,0.134,5.215-0.918,6.383-1.063
			c0.598-0.072,6.216,0.7,6.809,0.636c0.559-0.064,1.27-0.204,1.903-0.132c0.538,0.065,1.099,0.3,1.699,0.319
			c0.664,0.021,13.692-2.243,14.284-2.368c0.536-0.115,4.164-1.15,4.671-1.335c0.525-0.193,1.054-0.544,1.583-0.743
			c0.917-0.342,1.87-0.807,2.789-1.081c2.316-0.694,4.942-0.063,7.413-0.339c1.028-0.117,2.021-0.617,2.981-1.048
			c0.853-0.382,2.001-1.459,2.899-1.591c1.194-0.178,8.618-3.514,9.801-3.756c1.137-0.237,2.038-0.364,3.098-0.894
			c1.951-0.939,3.74-1.783,5.889-2.325l0.004-0.027c1.216-0.306,2.602-1.058,3.761-1.469c1.063-0.376,1.824-1.188,2.907-1.553
			C285.603,121.417,287.413,120.172,289.459,119.339z M296.858,123.914c0.49-0.123,1.523-0.096,1.614-0.815
			c-0.153-0.12-0.289-0.097-0.465-0.113c-0.729-0.067-1.665-0.101-2.388,0c-0.692,0.097-1.461,0.123-2.124,0.264
			c-1.392,0.299-2.877,0.28-4.249,0.81l-0.004-0.003c-0.661,0.255-1.392,0.437-2.128,0.526c-0.75,0.094-1.533,0.04-2.202,0.302
			c-0.58,0.227-1.185,0.337-1.739,0.645c-0.289,0.161-0.555,0.434-0.806,0.625c-0.197,0.148-1.068,0.393-0.792,0.448
			c0.274,0.059,1.686,0.025,1.974-0.035c0.287-0.06,0.622-0.128,0.796-0.133c0.21-0.008,0.3,0.059,0.476,0.079
			c0.313,0.039,0.698,0.037,0.979,0.07c0.688,0.077,1.434,0.023,2.079-0.074c1.347-0.204,2.572-0.536,3.827-1.049
			c1.063-0.432,2.135-0.877,3.24-1.145C295.574,124.164,296.235,124.071,296.858,123.914z M312.238,121.077
			c0.65-0.039,2.032,0.088,2.961,0c1.012-0.096,1.963,0.006,2.963,0c1.045-0.007,2.18,0.198,3.245,0.191
			c0.983-0.009,1.922,0.096,2.863,0.096c1.498,0,2.953-0.464,4.28-0.974c1.305-0.501,2.741-0.837,4.129-1.142
			c0.741-0.163,1.564-0.108,2.292-0.269c0.673-0.147,1.443-0.185,2.123-0.262c0.387-0.043,0.827-0.054,1.22-0.021
			c0.357,0.029,0.611,0.144,0.958,0.189c0.382,0.052,0.864,0.027,1.238-0.021c0.395-0.048,0.731,0.036,1.126,0
			c0.659-0.058,1.353-0.286,2.023-0.364c0.731-0.081,1.49-0.17,2.207-0.376c0.692-0.198,1.365-0.483,2.104-0.663
			c0.707-0.174,1.478-0.281,2.19-0.455c0.829-0.203,1.644-0.353,2.482-0.479c0.788-0.119,1.617-0.128,2.39-0.302
			c0.746-0.159,1.561-0.193,2.286-0.376l0.004-0.01c0.777-0.196,1.839-0.443,2.281-0.589c0.44-0.147,1.147-0.78,1.52-1.125
			c0.395-0.36,0.619-0.782,0.861-1.256c0.246-0.473,0.956-1.607-0.153-2.761c-0.332-0.404-0.573-0.489-0.284-1.01
			c0.187-0.338,0.455-0.643,0.652-0.97c0.24-0.414,0.324-0.836-0.1-1.143c-0.431-0.313-0.731-0.131-1.166-0.021
			c-1.802,0.448-3.667,0.433-5.521,0.688c-0.401,0.057-0.767,0.009-1.146,0.088c-0.343,0.071-0.66,0.202-0.979,0.27
			c-0.767,0.161-1.479,0.199-2.269,0.307c-1.509,0.211-2.974-0.105-4.49-0.096c-0.765,0.007-1.5-0.092-2.292,0.007
			c-0.405,0.049-0.835-0.035-1.242,0.016c-0.376,0.046-0.765,0.135-1.147,0.169c-0.715,0.061-1.429,0.285-2.097,0.598
			c-0.354,0.168-0.689,0.237-1.053,0.35c-0.335,0.102-0.563,0.44-0.973,0.56c-0.411,0.118-1.032,0.431-1.413,0.588
			c-0.486,0.197-0.984,0.284-1.436,0.494c-1.019,0.467-2.03,0.877-3.057,1.215c-0.956,0.317-1.815,0.87-2.676,1.337
			c-0.451,0.241-0.904,0.504-1.359,0.739c-0.483,0.253-0.92,0.591-1.41,0.88c-1.276,0.752-2.813,1.143-4.135,1.781
			c-1.337,0.646-2.589,1.168-4.081,1.168c-0.787,0-1.533,0.003-2.219,0.266c-0.619,0.239-1.195,0.553-1.789,0.878
			c-1.236,0.678-4.227,1.24-4.11,1.428C310.154,120.883,311.588,121.116,312.238,121.077z M395.358,94.694v-0.007
			c1.001,0.439,2.011,0.726,2.948,1.276c0.92,0.537,1.721,1.145,2.672,1.659c0.912,0.493,2.01,1.101,2.479-0.232
			c0.344-0.976,0.728-1.994,1.048-2.975c0.183-0.566,1.382-2.4,0.941-2.826c-0.32-0.31-1.448-0.109-1.872-0.109h-2.018
			c-1.303,0-2.519,0.024-3.728-0.268c-0.912-0.218-2.234-0.56-3.063-1.161c-0.511-0.37-0.822-1.145-1.396-1.383
			c-0.574-0.236-0.86-0.628-1.262-0.751c-0.481-0.147-1.067-0.173-1.564-0.299c-0.451-0.116-0.914-0.176-1.395-0.313
			c-0.603-0.172-0.644-0.361-0.924-0.932c-0.188-0.369-0.287-0.885-0.503-1.23c-0.245-0.397-0.696-0.489-1.094-0.726
			c-0.752-0.453-1.275-1.134-1.662-1.897c-0.947-1.866-2.902-1.598-4.485-0.922c-0.781,0.333-1.405,0.756-1.872,1.54
			c-0.204,0.344-0.462,0.678-0.619,1.049c-0.152,0.359-0.534,0.836-0.65,1.239c-0.897,0.266-1.164,0.802-2.176,0.527
			c-0.594-0.163-1.947-0.637-2.136-0.961c-0.188-0.324-1.146-0.612-0.933-0.154c0.214,0.457,0.467,0.893,0.81,1.209
			c0.312,0.288,0.936,0.678,1.361,0.918c0.852,0.482,2.021,1.02,2.938,1.125c1.26,0.144,2.28,0.244,3.418,0.615
			c1.066,0.348,1.713,1.037,2.642,1.658c0.367,0.242,0.733,0.6,1.113,0.779c0.656,0.309,1.229,0.044,1.824,0.022
			c1.031-0.038,1.984,0.658,2.799,1.246c0.842,0.611,1.912,1.278,2.937,1.398c0.608,0.071,1.145-0.019,1.705,0.147
			C394.259,94.14,394.776,94.437,395.358,94.694z M367.829,110.133v-0.003c0.497,0.365,2.509,0.257,3.348-0.114
			c0.214-0.097,0.47-0.275,0.69-0.437c0.155-0.114,0.369-0.21,0.525-0.33c0.205-0.164,0.465-0.295,0.675-0.475
			c0.175-0.149,0.3-0.268,0.476-0.473c0.177-0.202,1.081-1.095,0.86-1.679c-0.47-0.226-0.879-0.036-1.325,0.146
			c-0.464,0.194-0.796,0.177-1.332,0.219c-0.916,0.072-1.808,0.127-2.676,0.379c-0.462,0.132-0.755,0.412-1.141,0.674
			c-0.289,0.195-0.746,0.339-0.981,0.638c-0.241,0.296-2.285,1.064-2.079,1.261C365.072,110.145,367.333,109.769,367.829,110.133z"
			/>
	</g>
</g>
<linearGradient id="ian_symbols_b8ad6521a4638814595f6eb270dcc2e4" gradientUnits="userSpaceOnUse" x1="325.9834" y1="71.9282" x2="362.4824" y2="71.9282">
	<stop  offset="0" style="stop-color:#7EA97E"/>
	<stop  offset="1" style="stop-color:#79A078"/>
</linearGradient>
<path fill="url(#ian_symbols_b8ad6521a4638814595f6eb270dcc2e4)" d="M361.715,73.007c-0.295-0.186-0.621-0.301-0.962-0.382c-0.287-0.067-0.565-0.201-0.853-0.287
	c-0.345-0.099-0.708-0.155-1.03-0.302c-1.39-0.636-2.641-1.562-4.227-1.602c-0.695-0.016-1.498-0.153-2.125-0.356
	c-0.638-0.208-1.062-0.766-1.7-0.974c-0.695-0.229-1.334-0.332-2.073-0.171c-0.721,0.156-1.359-0.039-2.03-0.208
	c-1.242-0.314-2.504-0.785-3.606-1.455c-1.251-0.76-2.211-1.585-3.747-1.117c-0.631,0.19-1.103,0.65-1.718,0.858
	c-0.707,0.241-1.336,0.274-2.103,0.185c-0.798-0.093-1.369-0.396-2.099-0.668c-0.674-0.251-1.417-0.213-2.101-0.495
	c-0.445-0.181-0.796-0.339-1.247-0.473c-0.516-0.154-0.777-0.132-1.529-0.17c-0.75-0.04-2.543-0.792-2.581-0.667
	c-0.033,0.553,1.151,0.845,1.527,0.954c0.74,0.211,1.413,0.313,2.099,0.692c0.576,0.316,1.1,0.664,1.629,1.046
	c0.551,0.396,0.938,0.954,1.459,1.379c0.89,0.724,2.109,1.778,3.318,1.738c0.769-0.026,1.596-0.205,2.392-0.095
	c0.315,0.044,0.667,0.127,0.977,0.169c0.395,0.054,0.824,0.039,1.222,0.114c0.689,0.13,1.072,0.836,1.244,1.426
	c0.189,0.644-0.021,1.416,0.379,2.004c0.45,0.665,1.117,0.583,1.813,0.765c0.748,0.193,1.28,0.408,1.935,0.827
	c1.253,0.801,2.516,1.536,3.798,2.217c1.384,0.737,2.841,0.979,4.393,1.142c0.711,0.076,1.566,0.058,2.271-0.021
	c0.731-0.082,1.277-0.312,1.937-0.717c1.018-0.631,2.416-1.901,3.035-2.23c0.619-0.328,0.168-1.074,0.399-1.41
	c0.227-0.331,0.789-0.768,0.65-1.221c-0.313-0.059-0.482-0.32-0.746-0.485V73.007z"/>
<linearGradient id="ian_symbols_aced5b074f8175545904dd07af63b4f1" gradientUnits="userSpaceOnUse" x1="300.0615" y1="98.5205" x2="356.8486" y2="98.5205">
	<stop  offset="0" style="stop-color:#7EA97E"/>
	<stop  offset="1" style="stop-color:#79A078"/>
</linearGradient>
<path fill="url(#ian_symbols_aced5b074f8175545904dd07af63b4f1)" d="M354.151,90.228l0.019,0.011c-1.24-0.477-2.48-1.144-3.53-1.618
	c-1.056-0.476-0.575-0.953-1.817-1.332c-1.241-0.381-4.488-1.335-9.17-1.428c-4.681-0.095-14.426,3.427-17.195,4.188
	c-2.768,0.762-3.617-0.286-5.909,0.761c-2.292,1.048-2.349,1.893-4.835,2.463c-2.483,0.57-6.257,1.728-7.405,2.68
	c-1.146,0.95-0.287,1.52-1.908,1.998c-1.626,0.476-2.759,1.989-2.188,3.225c0.571,1.237,0.765,1.249,1.242,3.725
	c0.479,2.474-0.428,6.115,0.098,6.188c0.763,0.102,1.984,0.095,2.756,0.095c0.81,0,1.558-0.156,2.291-0.382
	c0.738-0.229,1.435-0.644,2.198-0.855c1.496-0.413,3.018-0.771,4.492-1.048c0.788-0.148,1.563-0.19,2.388-0.19
	c0.733,0,1.608,0.06,2.267-0.214c0.547-0.222,0.927-0.706,1.461-0.924c0.264-0.11,0.567-0.334,0.853-0.39
	c0.404-0.079,0.831-0.06,1.248-0.11c0.191-0.026,0.357-0.082,0.571-0.074c0.197,0.006,0.399,0.104,0.576,0.104
	c0.376,0,0.824-0.104,1.24-0.104c0.368,0,0.785,0.055,1.146,0.002c0.354-0.052,0.705-0.272,1.054-0.384
	c0.604-0.194,1.087-0.695,1.621-1.047c0.54-0.357,1.091-0.69,1.718-0.928c0.803-0.3,1.531-0.309,2.388-0.309
	c0.374,0,0.779-0.046,1.149-0.003c0.382,0.046,0.654,0.143,1.043,0.003c0.603-0.218,1.176-0.621,1.705-0.949
	c0.26-0.162,0.516-0.359,0.788-0.476c0.367-0.157,0.715-0.171,1.122-0.215c0.725-0.079,1.556-0.175,2.313-0.268
	c0.798-0.098,1.625,0.111,2.39,0.201c0.798,0.091,1.579,0.28,2.39,0.28c0.855-0.002,1.489-0.267,2.289-0.458
	c0.405-0.096,0.604-0.081,0.98-0.283c0.31-0.167,0.611-0.366,0.906-0.614c0.33-0.278,0.399-0.615,0.671-0.936
	c0.252-0.294,0.512-0.567,0.763-0.876c0.698-0.866,1.814-1.218,2.771-1.712c1-0.517,1.999-1.185,2.631-2.143
	c0.262-0.403,0.582-0.779,0.813-1.183c0.266-0.47,0.306-1.128,0.306-1.695C356.825,92.988,355.388,90.702,354.151,90.228z"/>
<linearGradient id="ian_symbols_829298c3a90087b48d5578f0e1477113" gradientUnits="userSpaceOnUse" x1="347.9492" y1="56.6382" x2="393.209" y2="56.6382">
	<stop  offset="0" style="stop-color:#7EA97E"/>
	<stop  offset="1" style="stop-color:#79A078"/>
</linearGradient>
<path fill="url(#ian_symbols_829298c3a90087b48d5578f0e1477113)" d="M391.685,63.987h0.004c-0.564-0.68-1.441-0.839-2.271-1.07c-0.495-0.14-1.783-0.711-2.213-1.22
	c-0.433-0.51-1.087-0.814-1.347-1.253c-0.355-0.613-0.673-1.256-0.835-1.904c-0.081-0.318-0.179-0.603-0.285-0.881
	c-0.174-0.459-0.066-0.608,0.385-0.736c0.735-0.211,1.34-0.096,2.097-0.002c0.798,0.1,1.558-0.536,1.911-1.147
	c0.381-0.657,0.312-1.246,0.023-1.922c-0.258-0.602-0.593-1.315-0.688-1.978c-0.112-0.745-0.112-1.571-0.295-2.279
	c-0.339-1.338-0.374-1.486-1.808-2.208c-1.307-0.658-2.401-0.552-3.844-0.789c-0.721-0.119-1.342,0.146-2.086,0.066
	c-0.324-0.037-0.694-0.248-1.045-0.293c-0.397-0.052-0.84-0.46-1.241-0.461c-0.673-0.002-1.502-0.351-1.986,0.128
	c-0.174,0.176-0.341-0.008-0.476,0.203c-0.098,0.149-0.147,0.32-0.284,0.459c-0.154,0.159-0.374,0.229-0.427,0.452
	c-0.264,0.06-0.432-1.04-0.673-0.918c-0.334,0.167-0.671,0.203-1.03,0.306c-0.565,0.157-0.952,0.751-1.262,1.237
	c-0.328,0.513-0.575,1.314-1.043,1.693c-0.557,0.446-1.299,0.674-1.893,0.976c-0.264,0.132-0.58,0.259-0.858,0.289
	c-0.403,0.045-0.741,0.151-1.146,0.186c-0.783,0.066-1.536,0.197-2.296,0.281c-0.399,0.043-0.719,0.198-1.147,0.195
	c-0.413-0.002-0.827,0.003-1.24,0c-0.772-0.004-1.351,0.34-2.03,0.456c-0.977,0.166-2.042,0.288-3.027,0.407
	c-0.546,0.066-1.008-0.104-1.533-0.101c-0.551,0.005-1.062-0.095-1.625-0.095h-1.623c-0.557,0-1.02,0.129-1.528,0.19
	c-0.518,0.059-0.991,0.043-1.529,0.095c-0.51,0.049-0.989,0.182-1.513,0.302c-0.23,0.695,1.069,1.027,1.513,1.126
	c0.708,0.156,1.46,0.071,2.198,0.095c0.824,0.026,1.496,0.443,2.196,0.836c0.671,0.375,1.454,0.596,2.196,0.708
	c0.802,0.12,1.205-0.128,1.886-0.524c0.558-0.326,1.151-0.735,1.842-0.735c1.558,0-0.569,1.968-0.86,2.665
	c-0.293,0.7-0.477,1.524-0.477,1.524c-0.045,0.243,0.092,0.732,0.215,0.926c0.19,0.306,0.548,0.43,0.833,0.598
	c0.297,0.173,0.413,0.259,0.571,0.571c0.181,0.342,0.116,0.734,0.291,1.047c0.332,0.604,1.392,0.271,1.979,0.402
	c0.643,0.145,1.066,0.668,1.534,1.05c1.15,0.937,2.556,0.793,3.931,1.123c1.421,0.343,2.9,0.555,4.398,0.778
	c0.761,0.113,1.546,0.372,2.292,0.458c0.79,0.09,1.559,0.193,2.392,0.188c1.929-0.01,3.934,0.25,5.824,0.482
	c0.378,0.045,0.783,0.026,1.147,0.067c0.419,0.052,0.812,0.075,1.238,0.113c0.862,0.085,1.751,0.179,2.584,0.388
	c0.711,0.177,1.461,0.375,2.196,0.564c0.387,0.103,0.755,0.13,1.147,0.189c0.422,0.063,0.787,0.239,1.242,0.194
	c0.914-0.087,1.087-0.912,0.787-1.645C392.755,65.067,392.191,64.598,391.685,63.987z"/>
<linearGradient id="ian_symbols_35c83b77abd64844e1cd5685c974b903" gradientUnits="userSpaceOnUse" x1="341.6445" y1="58.4751" x2="356.7461" y2="58.4751">
	<stop  offset="0" style="stop-color:#7EA97E"/>
	<stop  offset="1" style="stop-color:#79A078"/>
</linearGradient>
<path id="svg_xxx" fill="url(#ian_symbols_35c83b77abd64844e1cd5685c974b903)" d="M355.727,59.272h-0.002c-0.51-0.301-0.945-0.62-1.536-0.756c-0.299-0.069-0.634-0.077-0.977-0.074
	c-0.363,0.002-0.634-0.152-0.949-0.196c-0.654-0.09-1.294-0.117-1.916-0.35c-0.608-0.229-1.103-0.574-1.725-0.789
	c-0.603-0.209-1.373-0.052-2.003-0.188c-0.588-0.129-1.099-0.358-1.647-0.646c-0.667-0.352-1.544-0.176-1.982-0.116
	c-0.438,0.059-1.452,0.366-1.336,0.477c0.118,0.109,0.648,0.181,0.931,0.309c0.302,0.134,0.622,0.297,0.908,0.429
	c0.532,0.241,0.919,0.697,1.434,0.951c0.562,0.28,1.363,0.335,1.977,0.409c0.4,0.049,0.601,0.055,0.957,0.188
	c0.339,0.127,0.69,0.216,1.035,0.403c0.555,0.297,1.05,0.674,1.644,0.951c0.739,0.345,1.457,0.288,2.269,0.379
	c0.726,0.082,1.461,0.109,2.222,0.17c0.474,0.037,1.718,0.283,1.718-0.477C356.751,59.882,356.084,59.487,355.727,59.272z"/>
<linearGradient id="ian_symbols_b523094a7dc9185415e3b25009d31125" gradientUnits="userSpaceOnUse" x1="304.8711" y1="63.3394" x2="314.2061" y2="63.3394">
	<stop  offset="0" style="stop-color:#7EA97E"/>
	<stop  offset="1" style="stop-color:#79A078"/>
</linearGradient>
<path fill="url(#ian_symbols_b523094a7dc9185415e3b25009d31125)" d="M312.832,62.127c-0.5-0.276-1.255-0.574-1.843-0.643c-0.384-0.043-0.772-0.05-1.146-0.094
	c-0.368-0.044-0.731-0.131-1.07-0.167c-0.366-0.041-0.754-0.021-1.126-0.021c-0.328,0-1.305-0.068-1.338-0.096
	c0,0-1.139-0.376-1.378-0.101c-0.245,0.277,0.297,0.772,0.995,0.856c0.636,0.077,1.315,0.138,1.916,0.287
	c0.467,0.114,1.148,0.32,1.428,0.768c0.188,0.298,0.216,0.499,0.028,0.786c-0.122,0.187-0.455,0.483-0.682,0.563
	c-1.03,0.558,0.414,0.943,1.133,1.027c0.696,0.081,1.257,0.478,2.005,0.478s1.34-0.204,1.982-0.596
	c0.682-0.416,0.523-0.944,0.146-1.518C313.514,63.108,313.451,62.474,312.832,62.127z"/>
<linearGradient id="ian_symbols_634c147201fea1949d1d14c526f7e885" gradientUnits="userSpaceOnUse" x1="360.2822" y1="45.6987" x2="365.6396" y2="45.6987">
	<stop  offset="0" style="stop-color:#7EA97E"/>
	<stop  offset="1" style="stop-color:#79A078"/>
</linearGradient>
<path fill="url(#ian_symbols_634c147201fea1949d1d14c526f7e885)" d="M365.131,45.139h0.004c-0.337-0.207-0.84-0.131-1.128-0.216c-0.289-0.083-0.574-0.38-0.574-0.38
	c-0.26-0.043-0.776,0.128-1.028,0.211c-0.272,0.092-0.663,0.249-0.908,0.43c-0.45,0.333-1.332,0.824-1.2,1.437
	c1.18,0.585,2.58-0.058,3.729-0.247c0.324-0.053,1.57-0.13,1.614-0.593C365.65,45.635,365.268,45.221,365.131,45.139z"/>
<linearGradient id="ian_symbols_458eb33a83cf0b84513d9a7ad43d2b9b" gradientUnits="userSpaceOnUse" x1="304.2871" y1="24.0889" x2="333.2871" y2="24.0889">
	<stop  offset="0" style="stop-color:#7EA97E"/>
	<stop  offset="1" style="stop-color:#749670"/>
</linearGradient>
<path fill="url(#ian_symbols_458eb33a83cf0b84513d9a7ad43d2b9b)" d="M331.869,24.653h0.009c-0.381-0.68-1.789-0.789-2.22-0.92c-1.196-0.363-1.452-0.91-2.716-0.898
	c-1.165,0.01-2.184-0.567-3.254-0.934c-1.111-0.378-2.075-0.437-3.249-0.295c-1.27,0.154-2.485,0.186-3.734,0.301
	c-1.163,0.109-2.553,0.042-3.723,0.302c-2.045,0.451-4.011,2.116-6.353,1.518c-0.091-0.065-0.197-0.105-0.31-0.119
	c0,0-0.469-0.244-0.933-0.155c-0.463,0.087-1.141,0.571-1.099,1.081c0.043,0.549,1.163,0.875,1.566,0.93
	c1.19,0.167,1.81,0.282,3.002,0.274c1.224-0.007,1.733,0.294,2.863,0c0.509-0.134,1.974-0.355,2.485-0.488
	c0.648-0.169,2.146,0.014,2.784,0.15c1.228,0.264,2.285,0.269,3.538,0.376c1.266,0.106,2.529,0.167,3.763,0.336
	c1.177,0.16,2.065,0.712,3.269,0.463c1.037-0.213,4.818-0.107,5.697-0.743C333.515,25.646,332.039,24.966,331.869,24.653z"/>
<linearGradient id="ian_symbols_5b0a736ca619c0f40590cc226c8ffe84" gradientUnits="userSpaceOnUse" x1="365.6104" y1="47.249" x2="369.9609" y2="47.249">
	<stop  offset="0" style="stop-color:#7EA97E"/>
	<stop  offset="1" style="stop-color:#79A078"/>
</linearGradient>
<path fill="url(#ian_symbols_5b0a736ca619c0f40590cc226c8ffe84)" d="M368.686,46.352c0,0-0.623-0.066-1.145,0.19c-0.526,0.256-2.194,0.529-1.896,1.507
	c0.468,0.224,1.043,0.036,1.507-0.083c0.536-0.137,1.137-0.031,1.625-0.278c0.369-0.186,0.984-0.434,1.15-0.861
	C370.159,46.248,369.118,46.352,368.686,46.352z"/>
<linearGradient id="ian_symbols_076eb7c43c8e7c9431cb5ef59bf0abb6" gradientUnits="userSpaceOnUse" x1="434.207" y1="44.3599" x2="434.2275" y2="44.3599">
	<stop  offset="0" style="stop-color:#7EA97E"/>
	<stop  offset="1" style="stop-color:#749670"/>
</linearGradient>
<polygon fill="url(#ian_symbols_076eb7c43c8e7c9431cb5ef59bf0abb6)" points="434.228,44.36 434.207,44.359 434.209,44.36 "/>
<linearGradient id="ian_symbols_fb8f55be8461e9e4fdc0a2574a1929b5" gradientUnits="userSpaceOnUse" x1="313.792" y1="30.8862" x2="433.3359" y2="30.8862">
	<stop  offset="0.1394" style="stop-color:#769A73"/>
	<stop  offset="1" style="stop-color:#749670"/>
</linearGradient>
<path fill="url(#ian_symbols_fb8f55be8461e9e4fdc0a2574a1929b5)" d="M433.336,43.009l-12.723-23.044l-0.984-1.767c-0.272,0.034-0.547,0.073-0.82,0.101
	c-1.22,0.123-2.413,0.378-3.641,0.433c-1.303,0.058-2.581-0.066-3.875-0.001c-1.351,0.068-2.612,0.049-3.939-0.334
	c-1.295-0.377-2.463-0.544-3.726-0.636c-1.194-0.086-2.436-0.048-3.639-0.01c-1.008,0.033-1.97,0.226-3.022,0.405
	c-1.268,0.213-6.192,2.675-7.453,2.682c-0.698,0.004-1.376,0.186-2.058,0.194c-0.604,0.007-1.146,0.209-1.732,0.234
	c-2.08,0.086-4.286,0.457-6.466,0.513c-2.311,0.058-4.688,0.083-6.948-0.024c-2.196-0.103-4.251-0.683-6.371-0.754
	c-2.392-0.08-4.737,0.14-7.149,0.46c-2.186,0.29-4.076,0.969-6.145,1.392c-2.246,0.462-4.261,3.493-6.442,4.044
	c-2.279,0.575-2.087,0.917-4.426,0.637c-0.661-0.079-3.092-0.122-3.755-0.201c-0.625-0.073-3.811-1.923-5.111-1.924
	c-1.301,0-2.388-0.611-3.709-0.611c-1.294,0-2.764,0.497-4.056,0.505c-0.661,0.003-2.213,0.322-2.896,0.323
	c-0.656,0.001-1.776,0.742-2.408,0.798c-1.317,0.117-2.904-0.04-3.879,0.309c-0.969,0.349-2.236,1.735-2.167,2.008
	c0.064,0.273,0.935,0.502,1.273,0.584c0.575,0.138,1.242,0.282,1.824,0.352c1.271,0.152,2.265,0.332,3.412,0.919
	c0.409,0.209,0.691,0.557,1.082,0.775c0.396,0.223,0.954,0.439,1.39,0.658c1.008,0.501,1.947,0.734,2.961,1.03
	c0.462,0.134,0.95,0.388,1.426,0.438c0.642,0.067,1.332-0.046,1.984,0.031c1.072,0.128,2.226,0.397,3.241,0.776
	c1.028,0.386,1.97,1.117,2.95,1.395c1.102,0.312,2.34-0.15,3.572-0.158c1.065-0.008,2.246,0.357,3.26,0.613
	c1.105,0.279,2.313,0.459,3.44,0.588c1.238,0.141,2.338-0.443,3.53-0.586c0.604-0.073,1.153,0,1.71-0.144
	c0.684-0.175,1.243-0.165,1.894-0.042c2.528,0.478,4.841,1.394,7.253,2.192c1.146,0.38,2.19,0.672,3.41,0.777
	c1.271,0.109,2.39-0.112,3.724-0.154c2.648-0.083,5.261-0.083,7.907,0c0.68,0.021,1.351,0.661,2.016,0.738
	c0.604,0.069,1.234-0.384,1.824-0.241c0.512,0.124,1.063,0.288,1.59,0.424c0.472,0.123,1.485,0.15,1.841,0.403
	c-0.046-0.029-0.091-0.06-0.139-0.089l46.324,4.043L433.336,43.009z"/>
<linearGradient id="ian_symbols_fdc68171fc8a9b54d99cd0268b82f7d2" gradientUnits="userSpaceOnUse" x1="377.2383" y1="70.6567" x2="468.2471" y2="70.6567">
	<stop  offset="0" style="stop-color:#7EA97E"/>
	<stop  offset="1" style="stop-color:#749670"/>
</linearGradient>
<path fill="url(#ian_symbols_fdc68171fc8a9b54d99cd0268b82f7d2)" d="M429.973,37.001c-2.787,0.003-6.309-0.104-9.014-0.455c-1.293-0.168-2.579,0-3.863-0.243
	c-1.186-0.228-2.375-0.32-3.561-0.579c-1.322-0.287-2.552-0.723-3.928-0.713c-1.27,0.009-2.532,0-3.8,0
	c-2.436,0-4.858,0.498-7.278,0.2c-2.072-0.255-4.07,0.126-6.186,0.313c-1.147,0.103-2.196,0.181-3.344,0.26
	c-1.172,0.078-2.198,0.484-3.361,0.512c-0.801,0.021-1.347,0.157-2.255,0.151c-0.901-0.006-2.252,0.912-3.378,1.292
	c-1.058,0.357-2.365,0.718-2.768,1.781c0.415,0.611,1.793,0.482,2.457,0.657c0.938,0.247,1.844,0.791,2.787,1.087
	c1.137,0.355,2.418,0.8,3.571,1.077c1.107,0.265,2.309,0.348,3.403,0.626c0.609,0.155,1.105,0.234,1.715,0.463
	c0.463,0.175,1.049,0.329,1.558,0.451c2.058,0.495,3.747,1.889,5.885,2.356c1.222,0.266,2.458,0.226,3.728,0.423
	c0.945,0.144,2.113,0.871,2.976,1.359c0.548,0.312,1.091,0.715,1.662,0.966c0.627,0.272,1.049,0.217,1.714,0.31
	c1.242,0.169,2.5,0.373,3.72,0.771c2.027,0.663,3.665,1.806,5.464,2.898c1.658,1.004,3.888,2.167,5.735,2.477
	c1.016,0.171,6.851,1.479,5.364,2.479c-0.505,0.178-2.231,0.056-3.195-0.163c-0.91-0.205-1.918-0.351-2.817-0.586
	c-1.874-0.488-4.061,0.006-5.739,0.814c-0.953,0.46-2.158,0.64-3.072,1.237c-0.653,0.427-1.11,1.494-1.389,2.163
	c-0.4,0.962-0.361,1.866-0.507,2.897c-0.135,0.981-0.761,2.014-1.054,2.812c-0.293,0.798-1.067,1.437-1.774,1.939
	c-0.748,0.531-1.473,1.139-2.285,1.584c-0.823,0.447-1.66,0.903-2.481,1.273c-0.603,0.275-2.742,2.014-2.95,2.279
	c-0.175,0.219-0.216,0.379-0.303,0.625c-0.217,0.605-0.11,0.864,0.345,1.348c0.671,0.716,1.882,1.22,2.788,1.395
	c1.1,0.213,2.381,0.062,3.341,0.694c0.902,0.597,1.183,1.818,0.035,2.431l-0.774,1.082c-0.744,0.969,0.603,2.007,1.356,2.352
	c1.096,0.5,2.382,0.629,3.605,0.772c3.571,0.417,7.019,0.577,10.389,1.67c2.213,0.717,4.355,1.707,6.51,2.661
	c2.19,0.968,4.094,2.365,6.202,3.391c2.071,1.01,4.179,1.891,6.325,2.785c1.942,0.809,3.877,1.987,5.928,2.556
	c2.209,0.609,4.291,1.338,6.512,2.229c1.109,0.446,2.242,0.97,3.376,1.397c0.418,0.16,0.834,0.406,1.276,0.583
	c0.083,0.032,5.178,2.836,9.624,4.16L429.973,37.001z"/>
<linearGradient id="ian_symbols_49d1af8a71e6691425228274a9b40a13" gradientUnits="userSpaceOnUse" x1="296.1113" y1="26.1162" x2="298.9229" y2="26.1162">
	<stop  offset="0" style="stop-color:#7EA97E"/>
	<stop  offset="1" style="stop-color:#749670"/>
</linearGradient>
<path fill="url(#ian_symbols_49d1af8a71e6691425228274a9b40a13)" d="M297.363,25.499h-0.006c-0.352-0.023-1.319,0.612-1.238,0.772c0.533,0.813,2.02,0.316,2.765,0.285
	C299.193,25.788,297.717,25.521,297.363,25.499z"/>
<linearGradient id="ian_symbols_1bd723256713eee465e652dd0d88ba8f" gradientUnits="userSpaceOnUse" x1="339.5869" y1="72.4927" x2="10.3687" y2="72.4927">
	<stop  offset="0" style="stop-color:#7EA97E"/>
	<stop  offset="1" style="stop-color:#79A078"/>
</linearGradient>
<path fill="url(#ian_symbols_1bd723256713eee465e652dd0d88ba8f)" d="M339.466,79.8l-0.011-0.032c-0.328-0.372-1.577-1.1-1.909-1.237
	c-0.333-0.139-0.724-0.105-0.977-0.17c-0.269-0.068-0.492-0.174-0.742-0.307c-0.544-0.288-0.997-0.691-1.356-1.144
	c-0.405-0.518-0.64-1.209-1.056-1.789c-0.376-0.522-0.85-1.028-1.332-1.42c-0.553-0.446-1.165-0.954-1.82-1.243
	c-0.667-0.295-1.329-0.364-1.961-0.612c-0.628-0.244-1.284-0.499-1.933-0.768c-0.642-0.264-1.268-0.405-1.909-0.639
	c-0.704-0.254-1.268-0.799-1.894-1.264c-0.5-0.37-0.997-0.768-1.545-1.092c-0.578-0.342-1.264-0.667-1.912-0.791
	c-0.721-0.136-1.666-0.387-2.388-0.208c-0.719,0.178-1.294,0.704-1.907,1.067c-0.629,0.375-1.587,0.625-2.292,0.77
	c-0.712,0.146-1.454-0.309-2.005-0.654c-0.665-0.417-1.436-0.662-2.108-1.088c-0.68-0.429-1.413-0.834-2.026-1.304
	c-0.667-0.512-0.945-1.256-1.432-1.904c-1.003-1.334-2.751-1.578-4.275-1.719c-0.775-0.07-1.501-0.131-2.196-0.401
	c-0.705-0.272-1.442-0.552-2.203-0.739c-1.524-0.376-3.173-0.384-4.772-0.384c-0.818,0-1.575-0.096-2.388-0.094
	c-0.422,0.001-0.729-0.097-1.148-0.096c-0.37,0.001-0.771,0.039-1.135-0.02c0.237-0.465,1.232-0.665,1.71-0.864
	c0.715-0.298,1.33-0.279,2.101-0.375c0.709-0.087,1.438-0.179,2.104-0.357c0.438-0.118,1.575-0.597,1.623-1.145
	c0.029-0.284-0.23-0.765-0.295-1.042c-0.077-0.354-0.077-0.693-0.208-1.03c-0.212-0.547-0.561-1.188-1.024-1.549
	c-0.498-0.389-1.205-0.658-1.817-0.781c-0.549-0.107-1.47-0.23-1.791-0.764c-0.337-0.552,0.405-1.025,0.831-1.33
	c0.28-0.203,0.573-0.396,0.891-0.526c0.272-0.113,0.508-0.3,0.834-0.309c0.321-0.009,3.711-0.032,4.205-0.262
	c0.686-0.315,1.282-0.481,2.003-0.693c0.663-0.193,1.557-0.283,2.292-0.193c0.763,0.094,1.557,0.1,2.292,0.294
	c1.432,0.375,3.21-0.016,4.679-0.003c0.757,0.006,1.535-0.099,2.298-0.188c0.63-0.073,1.64-0.343,2.17,0.211
	c0.505,0.526-0.055,1.247-0.354,1.692c-0.241,0.354-1.037,1.029-0.846,1.505c0.678,0.337,1.297,0.133,1.988-0.005
	c0.717-0.143,1.465-0.273,2.194-0.36c1.068-0.124,2.712-0.677,2.965-1.902c0.092-0.437,0.102-0.628,0.571-0.835
	c0.435-0.189,0.771-0.214,1.243-0.214c0.802,0,1.496,0.093,2.291,0.096c0.773,0.003,1.599-0.122,2.292-0.407
	c0.64-0.262,1.141-0.688,1.741-0.997c0.479-0.245,1.415-0.369,0.674-1.094c-0.397-0.392-1.131-0.574-1.65-0.643
	c-0.673-0.09-1.421,0-2.103,0c-0.599,0-1.878-0.043-1.974-0.093c-0.094-0.049,0.197-0.156,0.463-0.272
	c0.266-0.116,1.949-0.212,3.042-0.112c0.567,0.053,1.149,0.128,1.716,0.191c0.526,0.059,1.1,0.059,1.625,0.196
	c1.043,0.269,2.02,0.372,3.152,0.374c0.603,0.002,1.058-0.149,1.625-0.358c0.291-0.109,0.571-0.163,0.839-0.332
	c0.235-0.147,0.458-0.16,0.674-0.278s0.513-0.434,0.783-0.647c0.087-0.072,0.382-0.248,0.457-0.308
	c0.116-0.091,0.229-0.231,0.328-0.338c0.438-0.471,0.216-1.243-0.12-1.736c-0.156-0.23-0.37-0.399-0.477-0.663
	c-0.181-0.44-0.201-0.631-0.55-0.981c-0.488-0.489-1.07-0.933-1.746-1.118c-0.662-0.183-1.294-0.298-2.003-0.381
	c-0.395-0.046-0.652-0.011-1.051,0c-0.372,0.014-0.827-0.13-1.17-0.169c-0.752-0.084-1.54-0.128-2.27-0.212
	c-0.349-0.039-0.664-0.129-0.977-0.023c-0.34,0.114-0.627,0.338-0.931,0.501c-0.695,0.374-1.806,0.549-2.565,0.172
	c-0.092-0.395,0.1-0.592,0.457-0.726c0.317-0.118,0.706-0.215,1.053-0.209c0.486,0.006,1.806-0.238,1.632-0.958
	c-0.149-0.606-1.028-0.981-1.536-1.21c-0.601-0.274-1.255-0.602-1.909-0.688c-0.777-0.104-1.432,0.001-2.126-0.263
	c-0.633-0.241-1.279-0.592-1.889-0.95c-1.305-0.773-2.646-1.176-4.105-1.473c-0.748-0.155-1.519-0.245-2.294-0.365
	c-0.731-0.112-1.151-0.424-1.739-0.828c-0.236-0.162-0.503-0.361-0.767-0.476c-0.361-0.16-0.642-0.145-1.03-0.236
	c-0.702-0.167-1.373-0.39-2.097-0.548c-0.813-0.177-1.577-0.349-2.39-0.473c-0.781-0.118-1.513-0.263-2.291-0.383
	c-0.771-0.119-1.532-0.095-2.294-0.188c-0.811-0.1-1.544-0.409-2.388-0.387c-0.74,0.021-1.509,0.321-2.196,0.475
	c-0.761,0.168-1.596,0.095-2.39,0.098c-1.342,0.004-2.487-0.969-3.721-1.431c-1.401-0.527-3.049-0.478-4.514-0.641
	c-0.772-0.087-1.585,0-2.368-0.022c-0.403-0.01-0.755-0.144-1.144-0.192c-0.4-0.049-0.841,0.001-1.244,0.001
	c-0.711,0.003-2.948-0.429-3.341-0.477c-0.378-0.047-0.829-0.033-1.172-0.071c-1.538-0.174-3.123,0.063-4.563,0.263
	c-0.461,0.064-0.938,0.079-1.419,0.071l1.679-2.979c0.197,0.009,0.401,0.02,0.603,0.044c0.746,0.092,1.617,0.2,2.392,0.105
	c0.576-0.069,1.295-1.61,1.814-1.812c0.339-0.131,0.689-0.113,1.047-0.193c1.461-0.33,3.011-0.285,4.586-0.285
	c0.804,0,1.689,0.109,2.482-0.001c0.74-0.101,1.505-0.193,2.292-0.188c0.403,0,0.744-0.1,1.149-0.097
	c0.389,0.004,0.691-0.152,1.045-0.194c0.783-0.092,1.563,0.01,2.298-0.18c1.548-0.399,3.239-0.285,4.87-0.29
	c0.403-0.002,0.744,0.097,1.147,0.094c0.398-0.001,0.846-0.054,1.24,0c0.744,0.104,1.531,0.293,2.294,0.383
	c1.548,0.18,3.104-0.164,4.682,0.031c1.598,0.196,3.183-0.578,4.774-0.58c0.831,0,1.507-0.193,2.292-0.292
	c0.767-0.094,1.519-0.09,2.294-0.18c1.957-0.228,3.838,0.016,5.734-0.392c0.818-0.177,1.708,0.142,2.576,0.077
	c0.383-0.027,2.519-0.139,2.284-0.747h-0.009c-0.26,0.005-0.713-0.2-0.943-0.293c-0.384-0.158-0.827-1.18-1.242-1.266
	c-0.347-0.072-0.59-0.4-0.949-0.442c-0.416-0.049-0.838-0.043-1.243-0.094c-0.779-0.096-1.6-0.191-2.387-0.188
	c-0.904,0.004-1.791-0.279-2.675-0.402c-0.748-0.103-1.515-0.269-2.294-0.266c-0.789,0.005-1.489,0.09-2.291,0.096
	c-0.724,0.005-1.424,0.22-2.097,0.077c-0.744-0.157-1.448,0.334-2.203,0.073c-0.754-0.259-1.605-0.428-2.387-0.548
	c-0.393-0.061-0.761-0.103-1.147-0.19c-0.409-0.095-0.814-0.042-1.24-0.089c-0.413-0.044-0.831-0.244-1.24-0.295
	c-0.459-0.057-0.894,0.007-1.341-0.093c-0.872-0.195-1.869-0.094-2.773-0.094c-0.846,0-1.671-0.032-2.477-0.21
	c-0.888-0.195-1.8-0.181-2.674-0.479c-0.923-0.316-1.858-0.597-2.797-0.901c-0.468-0.152-0.981-0.148-1.432-0.308
	c-0.462-0.163-0.906-0.303-1.407-0.406c-1.683-0.347-3.422-0.268-5.163-0.265c-1.008,0.002-12.327-2.328-13.329-2.444l-12.803-1.28
	c-4.923,0.601-12.601-4.802-16.266-6.625c-3.052-1.514-8.171-1.495-11.613-2.307c-12.805-3.019-26.448,5.325-39.576,3.952
	c-15.243-1.595-31.08,2.159-46.291,3.227c-7.2,0.505-13.867-3.418-20.946-2.583c-7.534,0.888-14.892,1.912-22.706,1.4
	c-3.426-0.224-17.87,5.149-20.73,4.454L10.368,144.978c0,0,2.585,0.124,6.464-0.724c3.879-0.85,39.448-14.96,50.744-19.883
	c12.917-5.629,50.262-7.698,64.149-9.28c13.825-1.576,27.335-4.954,41.23-1.937c6.601,1.435,13.219,1.383,19.722,2.737
	c3.813,0.794,12.4,2.578,14.083,6.384l6.447,2.915c3.163,1.227,5.312,2.477,5.649,2.829c1.561,1.631,3.556,1.688,6.543,2.019
	c0.756,0.084,1.495,0.111,2.189,0.291c1.349,0.345,2.669,0.729,4.02,1.231c0.785,0.293,1.587,0.47,2.386,0.664
	c0.699,0.169,1.304,0.423,2.006,0.577c0.709,0.156,1.485,0.277,2.196,0.097c0.729-0.185,1.349-0.538,2.007-0.931
	c1.286-0.763,2.61-1.373,4.114-1.546c0.297-0.031,0.636-0.151,0.949-0.193c0.389-0.051,0.698,0.154,1.046,0.193
	c0.798,0.095,1.512,0.041,2.296-0.003c0.714-0.041,1.281-0.387,1.907-0.644c0.771-0.315,1.513-0.652,2.296-0.877
	c0.361-0.104,0.686-0.283,1.051-0.387c0.427-0.121,0.805-0.133,1.245-0.185c0.744-0.091,1.489-0.199,2.292-0.192
	c0.369,0.002,0.677-0.063,1.051-0.097c0.401-0.037,0.829-0.041,1.243-0.091c0.733-0.093,1.417-0.322,2.099-0.481
	c1.539-0.368,2.969-1.214,4.492-1.783c0.396-0.15,0.733-0.245,1.146-0.308c0.363-0.055,0.752-0.048,1.145-0.093
	c0.7-0.082,1.415-0.377,1.999-0.671c0.709-0.352,1.343-0.747,2.016-1.16c0.33-0.202,0.561-0.431,0.958-0.55
	c0.389-0.119,0.719-0.136,1.141-0.195c0.682-0.093,1.446-0.071,2.106-0.278c0.667-0.208,1.236-0.4,1.91-0.576
	c0.65-0.17,1.369-0.179,2.001-0.403c0.708-0.245,1.371-0.574,2.029-0.904c0.624-0.311,1.058-0.806,1.599-1.192
	c0.28-0.199,0.59-0.282,0.889-0.431c0.355-0.179,0.484-0.39,0.759-0.688c0.432-0.467,1.192-0.795,1.799-1.023
	c0.374-0.141,2.388-1.5,2.502-1.713c0.181-0.327,0.285-0.635,0.428-0.981c0.274-0.652,0.518-1.312,0.77-1.996
	c0.247-0.668,0.583-1.194,0.671-1.902c0.1-0.817-0.031-1.556-0.385-2.264c-0.308-0.624-0.47-1.299-0.26-2.017
	c0.175-0.596,0.619-1.167,0.931-1.717c0.333-0.588,0.698-1.22,0.79-1.903c0.046-0.366-0.006-0.773-0.006-1.144
	c0-0.449-0.094-0.735-0.169-1.142c-0.07-0.381-0.06-0.755-0.114-1.141c-0.056-0.39-0.253-0.864-0.384-1.238
	c-0.263-0.754-0.424-1.477-0.171-2.286c0.214-0.682,0.563-1.289,1.058-1.781c0.461-0.46,1.058-0.764,1.478-1.287
	c0.43-0.537,0.984-0.877,1.647-1.022c0.719-0.156,1.259,0.284,2.007,0.284c0.717,0,1.355-0.29,2.008-0.477
	c0.332-0.095,0.695-0.112,1.049-0.19c0.33-0.074,0.634-0.196,0.956-0.288c0.63-0.182,1.307-0.476,1.935-0.643
	c0.393-0.108,0.71-0.167,1.122-0.212c0.417-0.046,0.712-0.253,1.146-0.285c0.737-0.054,1.384-0.298,2.104-0.379
	c0.335-0.038,0.687-0.157,1.048-0.192c0.422-0.042,0.825-0.042,1.244-0.093c1.488-0.181,2.999-0.714,4.297-1.334
	c0.295-0.141,0.638-0.219,0.956-0.286c0.365-0.078,0.678-0.235,1.052-0.285c0.374-0.049,0.769,0.05,1.146,0
	c0.37-0.051,0.661-0.142,1.054-0.185c1.342-0.15,2.817-0.731,4.028-1.314c0.603-0.29,1.185-0.532,1.816-0.762
	c0.291-0.106,0.494-0.183,0.835-0.333c0.339-0.15,0.788-0.099,1.155-0.262c0.571-0.256,1.105-0.519,1.691-0.784
	c0.665-0.303,1.384-0.447,2.101-0.57c1.45-0.248,3.018-0.764,4.511-1.124c0.713-0.172,1.391-0.467,2.08-0.782
	c0.318-0.145,0.748-0.298,1.054-0.471C339.393,80.495,339.796,80.17,339.466,79.8z"/>
<linearGradient id="ian_symbols_eebe70f9b548ad6401314697bc3c5ab6" gradientUnits="userSpaceOnUse" x1="250" y1="159.6753" x2="250" y2="225.1587">
	<stop  offset="0.103" style="stop-color:#C7B089"/>
	<stop  offset="1" style="stop-color:#AA8D6B"/>
</linearGradient>
<path fill="url(#ian_symbols_eebe70f9b548ad6401314697bc3c5ab6)" d="M466.226,164.141c0,0-10.489-0.748-14.811-0.807c-4.319-0.058-4.802,0.973-4.802,0.973
	s-5.818,5.055-9.483,6.888c-3.667,1.833-3.724,8.19-12.937,9.206c-5.352,0.591-12.259,0.126-16.2-4.608
	c-2.847-3.417-3.28-5.948-3.624-11.485c-0.478-0.205-15.92-4.437-22.483-4.623c-6.565-0.187-17.952,2.786-27.283,2.562
	c-9.332-0.224-16.358,2.062-16.358,2.062s-3.269,4.64-12.343,6.639c-5.602,1.234-23.749,4.4-26.502,4.531
	c-3.352,0.16-16.121,11.073-24.186,11.077c-8.065,0.007-25.559,4.026-34.265,4.943c-8.708,0.914-29.687,7.268-37.677,9.729
	c-6.196,1.909-6.748,6.222-25.758,8.678c-10.995,1.42-15.036,0.758-27.344,1.487c-27.454,1.626-56.705,4.01-81.296,4.048
	C35.452,215.492,0,216.325,0,216.325v8.834h500v-50.485c0,0-15.623-1.247-23.803-3.894
	C468.019,168.132,466.226,164.141,466.226,164.141z"/>
</svg>
