<?xml version="1.0" encoding="UTF-8" standalone="no"?>
<svg xmlns:rdf="http://www.w3.org/1999/02/22-rdf-syntax-ns#" xmlns="http://www.w3.org/2000/svg" height="223px" width="501px" xmlns:cc="http://creativecommons.org/ns#" xmlns:xlink="http://www.w3.org/1999/xlink" xmlns:dc="http://purl.org/dc/elements/1.1/">
<title>Vulpes velox (swift fox)</title>
<desc xmlns:ian_image_library="http://ian.umces.edu/imagelibrary/">
      <ian_image_library:title>Vulpes velox (swift fox)</ian_image_library:title>
      <ian_image_library:descr>Illustration of Vulpes velox (swift fox)</ian_image_library:descr>
      <ian_image_library:scene>
		<ian_image_library:contains>symbol,vector,illustration,mammal,swift,fox,Chordata,Mammalia,Carnivora,Canidae,Vulpes,velox</ian_image_library:contains>
        <ian_image_library:when>2009-05-01</ian_image_library:when> 
	  </ian_image_library:scene>
   </desc>
    <metadata
		id="metadata-iil-ec8966e6bed1ca548d65a8faccfb575c">
      <rdf:RDF>
      <cc:Work
         rdf:about="">
        <dc:format>image/svg+xml</dc:format>
        <dc:type
           rdf:resource="http://purl.org/dc/dcmitype/StillImage" />
        <cc:license
           rdf:resource="http://creativecommons.org/licenses/by-sa/3.0/" />
        <dc:title>Vulpes velox (swift fox)</dc:title>
		<dc:date>2009-05-01</dc:date>
        <dc:creator>
			<cc:Agent>
				<dc:title>Kim Kraeer, Lucy Van Essen-Fishman</dc:title>
			</cc:Agent>	
		</dc:creator>   
		<dc:rights>
          <cc:Agent>
            <dc:title>Kim Kraeer, Lucy Van Essen-Fishman, Integration and Application Network</dc:title>
          </cc:Agent>
        </dc:rights>
        <dc:publisher>
          <cc:Agent>
            <dc:title>Integration and Application Network</dc:title>
          </cc:Agent>
        </dc:publisher>
		<dc:identifier>http://ian.umces.edu/imagelibrary/displayimage-3877.html</dc:identifier>
        <dc:source>http://ian.umces.edu/imagelibrary/displayimage-3877.html</dc:source>
        <dc:language>en-US</dc:language>
        <dc:subject>
          <rdf:Bag>
            <rdf:li>symbol,vector,illustration,mammal,swift,fox,Chordata,Mammalia,Carnivora,Canidae,Vulpes,velox</rdf:li>
          </rdf:Bag>
        </dc:subject>
        <dc:coverage></dc:coverage>
        <dc:description>Illustration of Vulpes velox (swift fox)</dc:description>
        <dc:contributor>
          <cc:Agent>
            <dc:title></dc:title>
          </cc:Agent>
        </dc:contributor>
      </cc:Work>
      <cc:License
         rdf:about="http://creativecommons.org/licenses/by-sa/3.0/">
        <cc:permits
           rdf:resource="http://creativecommons.org/ns#Reproduction" />
        <cc:permits
           rdf:resource="http://creativecommons.org/ns#Distribution" />
        <cc:requires
           rdf:resource="http://creativecommons.org/ns#Notice" />
        <cc:requires
           rdf:resource="http://creativecommons.org/ns#Attribution" />
        <cc:permits
           rdf:resource="http://creativecommons.org/ns#DerivativeWorks" />
        <cc:requires
           rdf:resource="http://creativecommons.org/ns#ShareAlike" />
      </cc:License>
    </rdf:RDF>
  </metadata>
	
 <defs></defs>
 <linearGradient id="ian_symbols_80001ac98774b8340198cc885dc3bdf9" y2="30.06" gradientUnits="userSpaceOnUse" x2="220.61" y1="222.23" x1="220.61">
  <stop stop-color="#D3B180" offset=".4663"/>
  <stop stop-color="#D3B180" offset=".6798"/>
  <stop stop-color="#CBB87B" offset=".7978"/>
  <stop stop-color="#BDB694" offset=".9157"/>
  <stop stop-color="#889578" offset="1"/>
 </linearGradient>
 <polygon points="351.85 35.427 346.49 35.427 340.57 34.354 336.28 34.354 333.06 34.354 328.24 34.354 324.48 33.816 321.79 33.816 314.82 33.275 308.91 33.275 303.01 32.736 299.24 32.736 294.96 32.736 291.2 32.736 286.36 33.816 281.53 33.816 277.25 33.816 271.32 33.275 268.12 33.816 262.75 33.816 258.45 33.816 253.08 33.816 245.58 34.354 240.2 34.354 235.91 34.354 230.01 34.354 224.64 33.275 217.66 33.275 213.36 33.275 208.54 33.275 202.62 33.275 195.12 32.208 191.36 32.208 187.06 32.208 182.77 32.208 177.94 32.736 173.24 33.68 166.81 33.68 159.7 32.736 152.72 32.208 149.49 32.208 142.51 31.667 136.07 30.06 130.16 30.598 123.73 31.129 117.81 31.129 112.45 31.667 106.54 32.736 100.64 33.275 96.89 34.354 91.513 33.816 89.372 32.736 89.906 38.114 91.513 39.717 92.064 47.233 88.299 57.433 85.622 67.094 82.928 69.781 76.485 74.079 75.409 76.217 79.179 76.755 83.998 79.98 88.299 83.74 93.537 86.816 97.415 89.642 101.18 92.859 101.18 98.765 103.32 101.99 104.94 105.75 104.4 108.43 107.09 111.11 107.62 117.42 111.91 118.62 116.21 118.62 120.51 120.23 124.8 119.16 129.62 119.16 133.8 119.02 135 119.83 140.36 121.31 144.12 121.84 147.88 122.38 144.12 124.53 141.97 127.21 140.36 128.29 136.07 132.04 132.31 133.66 127.49 136.34 123.73 139.03 121.05 141.17 117.81 142.78 113.52 144.39 110.85 148.15 105.48 151.9 102.79 154.59 102.26 157.81 102.26 161.56 101.18 165.86 101.18 170.7 101.18 173.91 100.64 178.21 99.574 181.42 97.956 184.65 98.491 187.33 98.491 190.02 99.032 192.16 100.1 195.92 100.1 198.61 99.032 201.29 96.89 205.05 98.491 207.73 104.4 208.8 109.78 206.66 113 203.98 114.07 199.68 114.6 197 115.13 193.24 116.75 190.56 116.21 184.65 118.9 181.42 118.9 177.67 118.9 173.91 118.9 168.55 121.05 165.86 129.62 158.88 139.3 153.52 149.49 149.75 154.33 149.75 154.85 170.16 153.78 176.6 153.78 181.42 153.24 190.02 152.18 196.46 148.41 201.29 146.27 206.66 144.66 208.8 146.27 213.1 150.02 213.1 155.93 213.1 160.75 213.1 163.98 209.34 163.98 203.44 167.73 195.92 169.34 191.1 169.89 187.87 173.65 181.96 173.65 177.67 176.33 174.45 176.33 170.16 176.86 165.32 176.86 159.42 179.02 155.13 180.09 149.23 180.09 143.31 182.23 137.42 184.92 133.12 191.36 129.35 200.48 128.82 211.89 129.49 217.66 130.97 222.49 131.51 226.78 133.12 236.98 132.58 245.03 129.89 249.32 129.89 255.24 129.35 257.91 127.21 264.9 127.21 268.65 127.76 271.32 128.82 281.53 142.78 292.81 154.05 304.08 159.97 307.3 163.17 318.57 166.4 322.88 167.48 329.32 168 335.74 173.91 339.5 178.21 341.66 183.57 342.18 189.49 340.57 193.77 337.89 199.14 334.67 203.98 333.06 207.19 330.38 209.34 327.43 216.85 325.42 217.26 323.94 219.01 328.24 220.08 330.92 222.23 335.74 222.23 341.12 222.23 343.26 220.08 347.56 216.32 347.56 212.56 349.16 207.19 349.7 201.82 353.46 196.46 356.15 191.62 359.9 187.33 363.13 181.96 365.27 177.13 365.81 172.84 364.74 167.48 362.05 160.9 358.83 157.68 351.85 150.29 351.32 135.27 351.32 128.82 353.46 122.92 355.61 115.95 361.51 104.67 362.58 52.069 360.98 44.546 359.9 38.651 355.61 37.034" fill="url(#ian_symbols_80001ac98774b8340198cc885dc3bdf9)"/>
 <linearGradient id="ian_symbols_aab5e68ff16e55c4e17bddf46e12310d" y2="204.54" gradientUnits="userSpaceOnUse" x2="394.97" y1="197.33" x1="375.16">
  <stop stop-color="#FEEDD1" offset=".2584"/>
  <stop stop-color="#F8DFBE" offset=".3281"/>
  <stop stop-color="#ECBF91" offset=".4683"/>
  <stop stop-color="#E9B686" offset=".5056"/>
  <stop stop-color="#C8965D" offset=".7753"/>
  <stop stop-color="#96A58E" offset=".9944"/>
 </linearGradient>
 <polygon points="381.65 182.63 379.62 185.05 379.62 187.46 379.23 189.88 379.23 193.51 378.83 197.53 378.02 201.96 377.22 205.18 376.8 208.8 373.59 211.62 371.98 214.84 374.39 217.26 377.62 218.07 381.65 218.07 386.47 216.05 389.7 215.64 391.7 213.23 393.71 208.01 392.91 203.98 394.12 200.34 393.71 198.74 394.12 195.12 394.93 189.07 392.91 186.66 387.27 181.83 383.66 180.22" fill="url(#ian_symbols_aab5e68ff16e55c4e17bddf46e12310d)"/>
 <radialGradient id="ian_symbols_856fbf0770057e04c9c3714aef393848" gradientUnits="userSpaceOnUse" cy="113.8" cx="437.2" r="132.37">
  <stop stop-color="#889578" offset=".1067"/>
  <stop stop-color="#C1AD73" offset=".3371"/>
  <stop stop-color="#D3B180" offset=".4326"/>
  <stop stop-color="#CBB87B" offset=".6742"/>
  <stop stop-color="#BCB399" offset=".8652"/>
 </radialGradient>
 <polygon points="357.76 42.408 357.56 48.841 355.67 54.208 356.68 61.192 360.24 67.591 360.98 72.999 363.24 89.09 362.88 100.91 362.58 110.57 364.19 115.95 363.66 120.77 363.13 125.07 362.58 129.35 363.32 132.54 364.19 136.34 369.56 138.49 373.87 142.78 376 147.61 380.83 151.9 385.13 159.42 388.88 159.97 391.58 163.18 395.33 168 399.61 170.7 403.38 169.08 404.46 172.84 407.68 173.91 409.82 177.13 411.43 176.6 413.58 178.21 417.88 176.6 418.95 181.42 422.18 181.96 424.86 181.42 424.86 184.11 425.92 186.8 429.69 186.8 431.82 185.18 432.9 189.49 437.2 188.94 438.26 191.62 442.03 192.7 445.24 192.16 448.47 195.38 449.01 197 453.3 199.14 456 199.14 456.52 195.92 458.67 199.68 461.89 200.22 461.35 198.07 466.72 201.82 470.21 201.16 472.08 201.82 475.32 201.29 478.53 198.07 484.44 193.24 488.19 187.87 488.19 181.96 488.73 179.28 491.15 177.13 491.15 171.76 488.19 166.94 486.72 164.92 483.89 164.25 481.75 161.03 478.53 159.97 474.24 156.74 469.41 152.44 464.57 150.03 457.61 147.08 452.22 141.17 443.64 135.27 439.89 129.89 437.2 128.29 431.3 122.92 427 115.41 425.4 110.03 414.11 103.06 414.65 96.616 409.82 88.562 402.85 79.98 402.85 73.537 402.3 67.635 392.91 57.433 387.27 55.822 378.42 48.174 370.77 46.167 367.95 44.015 363.66 41.87 360.98 39.18 356.15 38.651" fill="url(#ian_symbols_856fbf0770057e04c9c3714aef393848)"/>
 <linearGradient id="ian_symbols_bd260307ba264234f96982eca5ea0dd2" y2="54.752" gradientUnits="userSpaceOnUse" x2="90.982" y1="54.752" x1=".8062">
  <stop stop-color="#96A58E" offset=".0303"/>
  <stop stop-color="#3B2D2A" offset=".0848"/>
  <stop stop-color="#B29A78" offset=".4364"/>
  <stop stop-color="#B99F72" offset=".9879"/>
 </linearGradient>
 <polygon points="46.703 1.881 45.894 .538 43.214 0 41.062 1.079 38.919 1.607 37.302 6.443 35.698 11.275 34.08 15.035 31.938 17.711 30.324 20.937 30.324 24.154 30.324 27.911 30.324 30.06 30.324 33.275 30.324 35.964 28.717 39.18 26.037 40.259 24.419 44.015 24.96 47.233 24.419 50.458 23.888 53.676 21.208 56.901 18.517 59.582 16.91 62.796 16.91 67.635 16.91 71.392 15.83 74.606 15.83 80.508 14.765 84.806 13.154 88.024 11.005 91.249 8.856 94.467 6.173 97.157 4.027 99.303 2.413 100.91 2.018 103.33 .806 104.54 2.413 107.36 5.634 107.9 16.91 109.5 38.377 101.99 42.134 98.223 51.261 93.401 55.555 90.183 58.239 90.714 67.9 91.249 72.19 86.955 73.267 84.806 71.125 78.914 67.365 74.079 74.877 71.926 82.386 68.701 87.764 59.04 90.982 51.531 87.229 44.015 84.539 45.095 73.267 40.797 69.507 34.895 65.216 26.845 60.922 26.304 58.239 26.304 55.149 26.026 53.406 25.766 53.406 23.088 53.406 20.401 52.337 15.563 50.726 9.661" fill="url(#ian_symbols_bd260307ba264234f96982eca5ea0dd2)"/>
 <linearGradient id="ian_symbols_c39b0391b6bc8994dd29113566dd9437" y2="29.789" gradientUnits="userSpaceOnUse" x2="90.982" y1="29.789" x1="58.239">
  <stop stop-color="#FEEDD1" offset=".2135"/>
  <stop stop-color="#F9E9CC" offset=".2808"/>
  <stop stop-color="#EEE0BF" offset=".3624"/>
  <stop stop-color="#DDD3AA" offset=".4515"/>
  <stop stop-color="#C6C190" offset=".5452"/>
  <stop stop-color="#B5B47D" offset=".6067"/>
  <stop stop-color="#FEEDD1" offset="1"/>
 </linearGradient>
 <polygon points="58.239 35.427 60.922 33.275 62.533 28.983 65.216 26.845 67.365 24.154 68.441 19.329 70.049 15.563 72.732 11.807 74.877 9.12 78.092 9.12 81.311 9.12 83.998 10.727 85.08 14.494 86.146 17.711 86.146 19.86 87.764 22.009 88.299 25.224 88.84 28.453 89.372 32.208 89.372 35.964 89.372 39.717 90.982 39.717 90.982 41.338 90.982 44.015 89.372 47.233 88.84 49.379 86.146 49.379 82.386 49.92 77.568 50.458 75.409 50.458 74.35 46.692 73.267 44.546 71.125 45.626 68.441 46.167 66.831 41.87 66.831 37.572 64.14 35.964 61.463 35.427" fill="url(#ian_symbols_c39b0391b6bc8994dd29113566dd9437)"/>
 <linearGradient id="ian_symbols_10578965c8bb99c4dda3f6cc64ad95a4" y2="30.871" gradientUnits="userSpaceOnUse" x2="86.688" y1="30.871" x1="72.19">
  <stop stop-color="#6B7051" offset=".191"/>
  <stop stop-color="#96A58E" offset="1"/>
 </linearGradient>
 <polygon points="72.19 28.453 74.35 25.766 77.026 23.613 79.179 20.401 79.179 17.711 78.644 13.428 81.311 13.428 82.928 15.035 83.998 18.25 83.998 21.467 85.08 23.088 85.08 26.304 85.08 30.06 86.146 32.736 86.688 36.506 85.08 38.114 85.08 39.717 85.08 42.408 83.47 43.477 81.311 42.408 80.251 45.095 79.703 47.233 78.092 48.313 75.96 46.167 75.409 42.408 76.485 39.18 78.644 37.034 81.311 34.354 81.311 32.208 81.311 29.519 81.311 26.845 79.703 26.304 76.485 26.845" fill="url(#ian_symbols_10578965c8bb99c4dda3f6cc64ad95a4)"/>
 <radialGradient id="ian_symbols_424e707de89f9214212b562a74429ad7" gradientUnits="userSpaceOnUse" cy="53.406" cx="67.103" r="8.3874">
  <stop stop-color="#122F27" offset="0"/>
  <stop stop-color="#6B7051" offset="1"/>
 </radialGradient>
 <polygon points="72.19 59.04 71.125 60.651 69.507 62.796 67.365 59.582 65.216 56.901 64.14 55.284 62.533 52.069 62.533 49.92 60.922 47.233 59.856 44.015 63.605 46.167 65.748 46.692 68.441 46.167 71.125 45.626 73.267 44.546 74.35 46.692 71.66 49.379 71.66 51.531 72.732 54.743 73.267 56.901" fill="url(#ian_symbols_424e707de89f9214212b562a74429ad7)"/>
 <linearGradient id="ian_symbols_c5961d7669f0b3041d74b12e77566518" y2="76.96" gradientUnits="userSpaceOnUse" x2="49.918" y1="76.96" x1="30.869">
  <stop stop-color="#635A2E" offset="0"/>
  <stop stop-color="#6B7051" offset="1"/>
 </linearGradient>
 <polygon points="35.025 81.587 37.042 81.587 39.454 81.587 41.464 81.587 43.88 80.386 46.296 78.762 48.31 76.353 49.917 74.745 47.102 73.138 43.88 72.333 40.659 72.333 37.843 72.333 37.042 73.537 35.427 75.55 34.216 77.158 32.206 79.182 30.869 81.053" fill="url(#ian_symbols_c5961d7669f0b3041d74b12e77566518)"/>
 <linearGradient id="ian_symbols_680706a429ac889499311dae716efebe" y2="76.96" gradientUnits="userSpaceOnUse" x2="46.296" y1="76.96" x1="35.427">
  <stop stop-color="#8C754F" offset="0"/>
  <stop stop-color="#A28C65" offset="1"/>
 </linearGradient>
 <polygon points="45.894 75.95 45.488 73.94 43.88 72.333 41.87 72.333 37.843 72.333 37.042 73.537 35.427 75.55 35.427 77.557 36.233 79.98 38.648 80.386 41.464 81.587 43.88 80.386 46.296 78.762" fill="url(#ian_symbols_680706a429ac889499311dae716efebe)"/>
 <polygon points="41.062 73.94 41.062 75.145 40.659 76.755 39.454 77.557 40.259 78.762 41.87 78.762 43.481 76.353 43.075 73.94" fill="#122F27"/>
 <linearGradient id="ian_symbols_0ebf770f813e3d04adee1ca187d83e66" y2="69.919" gradientUnits="userSpaceOnUse" x2="88.97" y1="55.022" x1="74.074">
  <stop stop-color="#8D6A44" offset=".0281"/>
  <stop stop-color="#122F27" offset=".5618"/>
  <stop stop-color="#8D6A44" offset="1"/>
 </linearGradient>
 <polygon points="94.2 38.114 94.2 41.731 93.398 45.362 93.398 48.577 92.996 50.587 92.996 53.413 92.996 55.423 91.385 58.641 90.18 63.074 87.368 63.074 86.559 65.483 86.559 68.701 85.348 71.926 83.743 75.145 80.519 75.145 77.294 76.755 74.481 79.581 74.075 82.393 73.267 84.806 69.646 83.198 67.229 81.188 64.001 78.762 61.592 76.755 58.78 76.353 57.163 75.145 61.998 72.731 64.001 72.333 65.619 69.919 68.844 69.919 71.66 71.128 73.673 71.128 72.055 67.899 75.281 68.302 79.297 67.899 80.925 65.084 83.334 63.074 86.146 60.651 86.559 58.238 86.146 55.822 88.167 52.198 90.18 50.184 89.372 47.233 90.982 44.015 92.187 40.523 91.385 37.711" fill="url(#ian_symbols_0ebf770f813e3d04adee1ca187d83e66)"/>
 <linearGradient id="ian_symbols_1ac80b763c193e846533645d18e94067" y2="54.82" gradientUnits="userSpaceOnUse" x2="113.93" y1="54.82" x1="104.27">
  <stop stop-color="#9DAE9A" offset=".0056"/>
  <stop stop-color="#68856D" offset=".297"/>
  <stop stop-color="#4B7156" offset=".5"/>
  <stop stop-color="#96A58E" offset="1"/>
 </linearGradient>
 <polygon points="113.92 41.338 111.11 42.949 109.5 43.741 107.9 45.761 104.68 48.174 104.68 50.587 104.27 53.815 104.27 56.627 104.68 60.248 104.68 62.671 106.69 67.899 108.69 68.302 110.3 65.889 109.5 63.074 107.49 58.641 107.9 54.218 109.5 50.587 111.11 47.771 113.12 45.761" fill="url(#ian_symbols_1ac80b763c193e846533645d18e94067)"/>
 <radialGradient id="ian_symbols_4233f635e68b7874553b20c77afef656" gradientUnits="userSpaceOnUse" cy="49.089" cx="118.36" gradientTransform="matrix(1 0 0 1.0388 0 2.3419)" r="28.739">
  <stop stop-color="#122F27" offset="0"/>
  <stop stop-color="#635A2E" offset=".5337"/>
  <stop stop-color="#6B7051" offset=".882"/>
 </radialGradient>
 <path d="m118.36 40.378h3.225l2.419-1.263 3.614-.836h6.443l3.235-1.246h3.614l3.621-1.262h10.863l5.238-2.092h12.081l-6.45 1.256-5.631 1.262-4.02.835-.399 3.344-6.051 1.668-4.02 2.088-3.222 2.518-3.214 2.507-2.41 1.672v3.343l-1.225 2.508-3.627.835-.792 2.931-2.423 1.262v1.668l-2.815 1.249h-4.423l-1.205.836v3.343l-.815 3.77-1.205 2.93h-2.014l-3.225-.426-2.013 1.675-1.611-4.179-.799-2.095-1.205 2.518s-.809 2.507-2.013 2.081c-1.205-.419-4.034-.833-4.034-.833l-1.611-2.511-2.003-3.343-.406-3.767 1.204-3.766-.396-3.344-2.02 1.672v-2.92l-.809-3.77.809-2.504.798-2.931-2.01-4.605 1.607-4.179 2.829-2.507 3.631 1.262 4.017.826 3.625 1.255 2.812.839 4.43.426z" fill="url(#ian_symbols_4233f635e68b7874553b20c77afef656)"/>
 <linearGradient id="ian_symbols_88debf2b848f2bd4051957def0750742" y2="136.1" gradientUnits="userSpaceOnUse" x2="77.509" y1="84.047" x1="47.456">
  <stop stop-color="#9DAE9A" offset=".0225"/>
  <stop stop-color="#A2B19C" offset=".0273"/>
  <stop stop-color="#BDC2AB" offset=".0575"/>
  <stop stop-color="#D3D0B8" offset=".0909"/>
  <stop stop-color="#E5DCC3" offset=".1281"/>
  <stop stop-color="#F2E5CB" offset=".1715"/>
  <stop stop-color="#FBEBCF" offset=".2264"/>
  <stop stop-color="#FEEDD1" offset=".3315"/>
  <stop stop-color="#9DAE9A" offset=".691"/>
  <stop stop-color="#4B7156" offset=".9775"/>
 </linearGradient>
 <polygon points="107.09 119.02 108.69 117.02 108.29 113.4 105.08 110.57 107.49 106.95 106.28 103.73 102.26 101.72 103.87 98.098 103.87 94.064 101.85 93.262 99.032 90.85 97.415 88.437 92.996 88.437 92.996 86.024 90.585 84.806 88.572 84.004 86.146 82.393 86.146 80.786 84.133 78.376 82.129 77.158 79.297 77.158 76.083 77.557 74.481 79.581 72.468 81.587 72.468 82.799 70.049 86.024 69.646 87.219 68.844 89.642 65.619 90.044 62.797 89.642 60.387 86.024 57.971 86.024 56.354 87.219 53.142 88.024 51.129 89.642 49.116 91.249 45.894 92.054 43.88 93.262 43.075 94.88 40.259 95.672 36.632 96.078 35.827 98.098 20.128 106.82 19.323 105.75 16.91 105.33 13.688 104.54 12.48 104.54 11.269 104.94 10.061 105.75 11.678 109.77 14.088 112.18 20.937 113.79 31.4 110.97 40.659 106.15 42.27 106.55 45.894 105.33 51.129 105.33 55.555 104.14 58.377 104.14 63.203 104.94 67.632 104.94 72.055 104.94 76.485 108.56 80.105 110.17 82.928 110.97 87.764 111.78 91.791 111.78 95.405 111.78 98.234 113.4 100.64 115.41 103.87 117.02" fill="url(#ian_symbols_88debf2b848f2bd4051957def0750742)"/>
 <linearGradient id="ian_symbols_23ceb51f702f51e47d80040ce7fd69d4" y2="13.275" gradientUnits="userSpaceOnUse" x2="53.456" y1="14.61" x1="48.473">
  <stop stop-color="#C8965D" offset="0"/>
  <stop stop-color="#8D6A44" offset="1"/>
 </linearGradient>
 <polygon points="55.149 26.026 55.149 22.815 55.149 19.596 53.947 15.16 52.337 11.14 50.726 7.915 48.709 4.697 46.703 1.881 47.907 7.11 49.116 10.334 50.726 13.553 51.129 16.378 51.931 18.791 51.931 22.409 51.532 26.026" fill="url(#ian_symbols_23ceb51f702f51e47d80040ce7fd69d4)"/>
 <radialGradient id="ian_symbols_7d5536f99cf16574dd87ce8782af9ca9" gradientUnits="userSpaceOnUse" cy="114.2" cx="134.26" r="11.46">
  <stop stop-color="#FEF6CA" offset=".0112"/>
  <stop stop-color="#E3D0AD" offset="1"/>
 </radialGradient>
 <polygon points="121.99 121.04 126.41 121.45 131.23 121.45 133.26 120.64 134.46 121.45 136.47 121.45 138.9 119.83 142.51 118.22 146.53 116.21 148.55 114.19 146.14 112.18 144.53 110.97 142.11 108.96 139.3 107.76 137.29 106.55 134.86 106.95 132.84 107.36 130.83 109.77 128.02 111.38 126 113.79 124.4 116.62 121.99 119.02 119.97 121.84" fill="url(#ian_symbols_7d5536f99cf16574dd87ce8782af9ca9)"/>
 <linearGradient id="ian_symbols_386c0aadad86b984cd0f888f81cfd030" y2="180.42" gradientUnits="userSpaceOnUse" x2="159.82" y1="180.42" x1="145.73">
  <stop stop-color="#FEF6CA" offset=".2584"/>
  <stop stop-color="#E3D0AD" offset="1"/>
 </linearGradient>
 <polygon points="152.58 153.65 158.62 150.43 159.42 153.25 159.02 158.48 159.02 163.31 158.62 167.74 159.82 170.16 159.82 174.99 159.02 180.62 157.01 184.25 155.8 188.67 155 193.91 153.38 198.33 150.97 202.76 149.35 205.58 149.75 208.01 148.14 210.4 145.73 209.61 145.73 206.79 146.14 203.17 148.55 200.34 150.16 197.53 150.97 194.32 150.97 190.68 150.97 185.86 150.97 179.82 152.18 173.77 152.18 168.55 152.58 162.5 152.98 156.86" fill="url(#ian_symbols_386c0aadad86b984cd0f888f81cfd030)"/>
 <linearGradient id="ian_symbols_4461df65048d6e54ed43702799cc78fd" y2="155.69" gradientUnits="userSpaceOnUse" x2="150.17" y1="145.63" x1="144.36">
  <stop stop-color="#C8965D" offset=".3146"/>
  <stop stop-color="#635A2E" offset="1"/>
 </linearGradient>
 <polygon points="120.78 169.35 122.79 164.53 127.22 163.31 131.23 161.7 134.46 158.88 138.5 156.86 141.3 156.86 146.14 156.06 150.56 153.65 152.58 153.65 158.62 150.43 161.83 147.61 166.26 146.4 170.29 143.18 172.32 140.77 172.32 136.74 172.71 133.92 172.71 131.51 172.32 129.49 170.29 131.92 167.87 134.33 165.05 135.13 162.64 136.74 157.82 138.35 156.21 142.38 153.38 142.38 149.35 142.78 146.94 145.6 144.53 148.02 140.91 148.02 138.08 150.03 136.07 153.25 132.44 156.47 128.82 158.48 125.61 160.09 122.79 160.5 120.38 161.7" fill="url(#ian_symbols_4461df65048d6e54ed43702799cc78fd)"/>
 <radialGradient id="ian_symbols_e2db519b24d03fc4a53fd33a1ae0f86b" gradientUnits="userSpaceOnUse" cy="123.46" cx="196.86" r="19.336">
  <stop stop-color="#122F27" offset=".0056"/>
  <stop stop-color="#635A2E" offset=".5562"/>
  <stop stop-color="#D8BB76" offset=".7879"/>
 </radialGradient>
 <polygon points="176.74 138.35 176.74 132.72 179.14 130.71 184.38 126.68 187.2 123.86 190.83 120.64 191.23 118.22 191.63 112.99 191.63 108.96 192.84 104.94 196.06 104.94 197.67 107.36 198.87 110.57 200.88 115.01 203.29 119.02 206.52 121.45 208.94 125.48 213.77 128.29 214.57 129.89 216.98 131.1 211.35 131.1 203.29 131.92 198.87 133.12 192.84 133.52 188 133.52 184.38 134.73 181.16 137.14 178.35 139.97 176.74 141.98" fill="url(#ian_symbols_e2db519b24d03fc4a53fd33a1ae0f86b)"/>
 <radialGradient id="ian_symbols_1364a474a70c1ef4f9df22a2e2da493e" gradientUnits="userSpaceOnUse" cy="134.93" cx="373.8" r="49.875">
  <stop stop-color="#705E43" offset=".309"/>
  <stop stop-color="#5C533F" offset=".4069"/>
  <stop stop-color="#2E3834" offset=".604"/>
  <stop stop-color="#12292B" offset=".7079"/>
  <stop stop-color="#705E43" offset="1"/>
 </radialGradient>
 <polygon points="361.12 69.507 360.3 73.94 359.5 77.158 359.5 80.386 359.5 83.601 359.5 87.219 359.5 91.655 358.7 98.098 358.7 102.93 358.7 106.15 355.88 110.17 355.06 115.41 352.26 117.42 351.05 122.66 348.24 125.07 348.24 129.49 347.83 131.51 347.42 134.73 348.24 137.54 347.83 141.17 348.24 145.6 348.64 148.81 350.25 151.64 352.26 154.05 355.06 156.47 358.29 159.29 361.51 162.5 366.75 164.53 373.18 167.34 376.8 168.95 380.04 170.97 381.24 173.77 381.24 179.01 381.65 182.63 384.86 183.04 388.08 185.46 391.3 188.27 394.12 191.1 393.31 196.32 394.12 200.34 395.33 192.7 396.14 186.26 397.34 182.23 398.56 177.4 398.95 173.37 400.17 168.95 397.74 166.94 395.33 165.73 395.33 162.1 392.5 161.3 392.11 158.08 390.5 158.08 387.27 156.86 386.07 154.86 384.06 154.86 383.26 151.23 382.85 149.23 380.44 149.23 378.83 146.01 378.83 142.78 376.8 143.58 375.59 140.77 373.46 136.88 371.71 135.8 371.17 132.04 369.56 132.04 368.48 126.68 367.95 123.46 367.95 121.84 366.75 117.42 366.75 112.99 364.74 112.18 364.74 108.56 364.74 104.94 364.74 101.72 364.74 98.498 364.34 96.89 363.13 96.491 363.93 90.044 363.52 84.806 363.52 78.762 363.13 73.94" fill="url(#ian_symbols_1364a474a70c1ef4f9df22a2e2da493e)"/>
 <radialGradient id="ian_symbols_82d8f823a41e818451ac53d57baf9f12" gradientUnits="userSpaceOnUse" cy="130.3" cx="340.98" r="13.498">
  <stop stop-color="#554D25" offset=".2247"/>
  <stop stop-color="#66592E" offset=".3327"/>
  <stop stop-color="#977846" offset=".6391"/>
  <stop stop-color="#BA8D56" offset=".8711"/>
  <stop stop-color="#C8965D" offset="1"/>
 </radialGradient>
 <path d="m349.03 112.99l-3.221 3.218-3.635 1.208-2.815 2.017-1.604 3.218-2.815 2.413-2.01 3.218.806 4.433 2.003 3.617 2.416 1.205 2.017 1.621c.394 1.61 2.004 3.215 2.004 3.215s2.023.406 2.437 1.607c.393 1.211 1.198 3.624 1.198 3.624v-6.03l-.806-3.231v-12.074l.399-3.215 2.423-1.215 1.204-4.829v-4.02z" fill="url(#ian_symbols_82d8f823a41e818451ac53d57baf9f12)"/>
 <linearGradient id="ian_symbols_1e73b437e939154409ae5ac8b1f0a349" y2="112.72" gradientUnits="userSpaceOnUse" x2="308.85" y1="217.79" x1="308.85">
  <stop stop-color="#EFC18D" offset="0"/>
  <stop stop-color="#FEF6CA" offset=".3708"/>
  <stop stop-color="#FBEDC1" offset=".4025"/>
  <stop stop-color="#F4D8AA" offset=".4535"/>
  <stop stop-color="#EAB988" offset=".5172"/>
  <stop stop-color="#E9B686" offset=".5225"/>
  <stop stop-color="#F7E2B4" offset=".618"/>
  <stop stop-color="#FEF6CA" offset=".7135"/>
  <stop stop-color="#E3D0AD" offset=".8202"/>
  <stop stop-color="#E9B686" offset=".9775"/>
 </linearGradient>
 <polygon points="269.19 121.58 272.01 115.54 274.02 112.72 275.63 112.72 276.83 115.13 278.05 119.16 279.66 123.59 279.66 127.62 281.26 133.25 281.67 137.28 284.89 140.9 285.7 144.93 289.31 147.74 290.92 150.56 294.96 152.98 296.97 155.8 300.6 157.4 304.22 159.02 307.43 159.82 311.05 163.05 314.69 163.85 320.32 165.05 325.14 165.47 330.38 166.26 335.62 167.08 336.42 169.49 339.64 171.5 340.84 173.51 344.07 174.31 344.87 177.54 344.87 180.76 348.1 183.99 348.1 186.39 348.5 189.21 347.28 192.83 345.27 193.24 344.47 195.26 343.66 198.87 341.25 200.49 338.84 202.1 337.63 205.32 336.82 208.93 334.4 210.14 331.59 211.35 329.57 214.17 327.96 217.39 325.95 217.79 328.76 211.35 329.98 208.53 331.99 207.73 331.99 204.9 333.2 202.1 335.22 199.27 337.63 196.46 339.23 193.24 340.45 190.42 340.45 186.8 340.05 184.38 338.03 180.76 336.02 177.94 334.02 175.92 331.19 173.11 326.75 170.3 323.54 168.27 318.71 167.48 314.28 166.26 309.04 164.65 303.81 163.05 297.76 159.02 291.73 155.8 285.29 149.75 281.26 145.73 277.25 140.09 274.02 136.07 272.81 133.66 270.4 128.82 269.19 126.01" fill="url(#ian_symbols_1e73b437e939154409ae5ac8b1f0a349)"/>
 <linearGradient id="ian_symbols_374c4efd1b9727e4f13f4847aee7eee5" y2="92.08" gradientUnits="userSpaceOnUse" x2="426.94" y1="104.12" x1="408.4">
  <stop stop-color="#96A58E" offset=".0225"/>
  <stop stop-color="#C8965D" offset=".264"/>
  <stop stop-color="#78563D" offset=".6461"/>
  <stop stop-color="#122F27" offset=".8483"/>
 </linearGradient>
 <path d="m370.77 46.167l4.818 1.604c1.212 1.607 9.272 10.467 9.272 10.467l1.61 1.621 2.409-.819 4.027 2.014 2.822 2.02 3.621 3.621 1.212 3.627-.813 2.409.813 4.024-4.427 2.006 6.037 4.037 2.815 2.813 1.604 3.225 3.628 2.819 1.211 2.01 1.604 3.225-.392 2.413-.813 3.218-2.018 1.617 4.034 1.607 6.037 3.218 3.62.806.806 3.627 2.011 4.423 3.228 4.423 3.215 3.232 1.212 2.812 1.219 2.01 3.207 1.621 2.011 3.618v2.006l3.62 1.212 2.424 2.825 3.627 2.007 3.215.806 2.815 4.03 3.621.393 4.832 1.215-4.832-2.826-3.215-2.007-2.815-3.617-2.822-2.825-3.621-4.024-3.229-3.631-2.809-4.423-4.027-4.02-2.002-4.031-3.235-3.617-2.823-2.426-1.61-3.215-.799-2.01-2.416-2.815-2.017-4.03-2.003-4.433-3.621-5.228-1.611-2.826-3.228-2.812-1.611-2.014v-7.267l-2.017-4.023-.406-3.624-3.614-2.014-3.62-3.215-2.41-2.826-5.245-2.815-4.825-2.815-6.437-3.627-3.229-2.815-4.433-2.812-3.21.803z" fill="url(#ian_symbols_374c4efd1b9727e4f13f4847aee7eee5)"/>
 <linearGradient id="ian_symbols_e24599b0daa541d401068e5c35554caa" y2="109.17" gradientUnits="userSpaceOnUse" x2="40.659" y1="109.17">
  <stop stop-color="#122F27" offset="0"/>
  <stop stop-color="#6B7051" offset="1"/>
 </linearGradient>
 <polygon points="11.678 109.77 11.678 108.16 11.269 106.15 9.665 104.14 7.651 102.52 4.829 102.52 2.018 103.33 .806 104.54 0 106.55 .4 109.37 2.413 110.57 4.027 111.78 6.034 113.4 7.651 112.99 9.255 111.78 10.467 112.18 11.269 114.19 13.688 115.41 17.715 115.81 20.128 115.81 23.35 114.6 25.766 113.4 29.387 112.58 33.819 111.38 36.632 108.96 40.659 106.15 38.246 105.33 35.827 105.75 34.216 106.55 32.473 108.43 29.793 110.57 25.496 111.11 22.944 112.18 20.531 112.58 18.115 112.99 15.299 112.58 12.883 111.38" fill="url(#ian_symbols_e24599b0daa541d401068e5c35554caa)"/>
 <linearGradient id="ian_symbols_c561a9591e5266c45d1b5ccb52b8cdcb" y2="91.943" gradientUnits="userSpaceOnUse" x2="38.628" y1="102.48" x1="16.032">
  <stop stop-color="#122F27" offset=".0056"/>
  <stop stop-color="#183129" offset=".1579"/>
  <stop stop-color="#26392E" offset=".3426"/>
  <stop stop-color="#3C4536" offset=".5441"/>
  <stop stop-color="#5B5841" offset=".7575"/>
  <stop stop-color="#87724E" offset=".9784"/>
  <stop stop-color="#8C754F" offset="1"/>
 </linearGradient>
 <polygon points="30.869 81.053 28.717 83.74 27.103 85.885 23.888 88.024 22.815 90.183 20.128 93.401 17.444 97.692 15.299 100.91 17.986 103.06 20.667 104.67 20.128 106.82 22.815 110.03 25.496 111.11 29.793 110.57 32.473 108.43 33.549 104.67 34.622 101.99 35.698 99.303 35.698 96.616 33.549 93.401 33.011 90.183 33.011 86.955 33.549 81.053" fill="url(#ian_symbols_c561a9591e5266c45d1b5ccb52b8cdcb)"/>
 <linearGradient id="ian_symbols_b8b1b68b359939749191794fab3738bd" y2="199.84" gradientUnits="userSpaceOnUse" x2="495.28" y1="178.1" x1="473.53">
  <stop stop-color="#C8965D" offset=".0056"/>
  <stop stop-color="#9D7E54" offset=".0892"/>
  <stop stop-color="#5D5942" offset=".2499"/>
  <stop stop-color="#364134" offset=".3881"/>
  <stop stop-color="#1D342B" offset=".4965"/>
  <stop stop-color="#122F27" offset=".5618"/>
  <stop stop-color="#24312C" offset=".6422"/>
  <stop stop-color="#2C3130" offset=".7694"/>
  <stop stop-color="#272828" offset=".8757"/>
  <stop stop-color="#111112" offset=".9556"/>
  <stop stop-color="#000" offset="1"/>
 </linearGradient>
 <polygon points="486.72 164.92 485.51 167.74 487.53 169.75 488.73 173.37 488.33 176.2 485.12 176.6 485.12 178.21 486.72 182.23 486.72 185.05 485.51 187.87 482.29 186.66 480.27 187.46 480.27 189.88 481.08 192.3 479.47 193.51 476.24 193.51 473.03 196.32 475.84 198.33 473.44 201.16 470.21 201.16 469.41 202.76 475.84 204.38 479.47 201.96 481.88 203.98 486.32 204.77 488.33 202.37 492.75 202.37 493.56 199.94 496.37 197.53 497.58 194.71 499.2 190.28 498.8 186.66 500 184.65 498.39 181.42 498.39 177.4 495.97 173.77 492.75 171.36 493.15 169.75 489.94 168.14 489.54 165.32" fill="url(#ian_symbols_b8b1b68b359939749191794fab3738bd)"/>
 <radialGradient id="ian_symbols_2bda15a416b8cb54215be8945b3bd657" gradientUnits="userSpaceOnUse" cy="82.126" cx="183.31" r="37.816">
  <stop stop-color="#CBB87B" offset=".1124"/>
  <stop stop-color="#F8DA8B" offset=".4101"/>
  <stop stop-color="#D3B180" offset=".7079"/>
 </radialGradient>
 <path d="m176.86 71.926c11.81-.535 19.322 26.297 30.063 23.62-.542-2.687-2.146-5.905-3.756-8.05 2.152.528 4.833-.542 6.443-.542-1.069-1.069-2.687-3.756-4.291-4.822 9.123-9.661-11.817-5.377-2.694-14.497-1.61 0-3.749-.541-5.895 0 1.076-2.152 1.611-5.377 1.611-8.054-2.687.538-5.902 2.149-9.13 3.756-.542-3.218-.542-6.975-1.07-9.662-2.687 1.607-3.763 1.066-4.297 4.836-5.374-8.592-11.803-.538-7.513 5.905-4.832 1.607-4.291 5.363 0 7.509" fill="url(#ian_symbols_2bda15a416b8cb54215be8945b3bd657)"/>
</svg>
